<?xml version="1.0" standalone="no"?>
<!DOCTYPE svg PUBLIC "-//W3C//DTD SVG 1.1//EN" "http://www.w3.org/Graphics/SVG/1.1/DTD/svg11.dtd" >
<svg xmlns="http://www.w3.org/2000/svg" xmlns:xlink="http://www.w3.org/1999/xlink" version="1.1">
<metadata>
Created by FontForge 20170924 at Fri Oct 18 16:05:28 2002
 By www-data
Copyright 2002 Adobe Systems Incorporated. All rights reserved.
</metadata>
<defs>
<font id="PetersburgC" horiz-adv-x="526" >
  <font-face 
    font-family="PetersburgC"
    font-weight="400"
    font-stretch="normal"
    units-per-em="1000"
    panose-1="4 0 5 0 0 0 0 0 0 0"
    ascent="776"
    descent="-224"
    x-height="462"
    cap-height="700"
    bbox="-80 -224 1120 945"
    underline-thickness="50"
    underline-position="-100"
    stemh="22"
    stemv="76"
    unicode-range="U+0020-2122"
  />
<missing-glyph horiz-adv-x="233" 
 />
    <glyph glyph-name=".notdef" horiz-adv-x="233" 
 />
    <glyph glyph-name="space" unicode=" " horiz-adv-x="233" 
 />
    <glyph glyph-name="space" unicode="&#xa0;" horiz-adv-x="233" 
 />
    <glyph glyph-name="exclam" unicode="!" horiz-adv-x="310" 
d="M169 140h-28l-5 136c-7 196 -36 322 -36 389c0 45 40 49 55 49s55 -4 55 -49c0 -67 -29 -193 -36 -389zM101 39c0 30 24 54 54 54s54 -24 54 -54s-24 -54 -54 -54s-54 24 -54 54z" />
    <glyph glyph-name="quotedbl" unicode="&#x22;" horiz-adv-x="400" 
d="M70 700h100l-36 -200h-28zM230 700h100l-36 -200h-28z" />
    <glyph glyph-name="numbersign" unicode="#" horiz-adv-x="642" 
d="M385 17h-40l30 167h-165l-30 -167h-40l30 167h-114l10 56h114l37 207h-114l10 56h114l30 167h40l-30 -167h165l30 167h40l-30 -167h114l-10 -56h-114l-37 -207h114l-10 -56h-114zM220 240h165l37 207h-165z" />
    <glyph glyph-name="dollar" unicode="$" horiz-adv-x="600" 
d="M285 -72v58c-117 -3 -225 64 -225 150c0 50 34 66 57 66c24 0 55 -17 55 -63c0 -29 -14 -24 -14 -50c0 -33 49 -74 127 -75v321l-67 40c-75 45 -137 75 -137 158c0 97 71 187 204 181v46h38v-46c90 -4 194 -47 194 -138c0 -53 -34 -63 -48 -63c-24 0 -56 12 -56 55
c0 10 2 20 6 30c4 9 9 18 9 27c0 28 -47 61 -105 61v-264l102 -61c53 -32 115 -70 115 -166c0 -140 -113 -203 -217 -209v-58h-38zM285 445v241c-61 3 -127 -28 -127 -101c0 -48 19 -76 60 -100zM323 312v-298c78 1 143 62 143 146c0 54 -28 82 -69 107z" />
    <glyph glyph-name="percent" unicode="%" horiz-adv-x="800" 
d="M60 554c0 102 71 160 150 160s150 -58 150 -160s-71 -160 -150 -160s-150 58 -150 160zM132 554c0 -106 41 -138 78 -138s78 32 78 138s-41 138 -78 138s-78 -32 -78 -138zM720 731l-617 -781l-23 20l617 780zM440 146c0 102 71 160 150 160s150 -58 150 -160
s-71 -160 -150 -160s-150 58 -150 160zM512 146c0 -106 41 -138 78 -138s78 32 78 138s-41 138 -78 138s-78 -32 -78 -138z" />
    <glyph glyph-name="ampersand" unicode="&#x26;" horiz-adv-x="790" 
d="M514 285v22h233v-22h-37c-89 0 -5 -15 -169 -180c19 -37 59 -83 104 -83c30 0 58 20 78 38l14 -21c-43 -37 -80 -53 -133 -53c-28 0 -81 5 -125 65c-57 -43 -111 -65 -177 -65c-158 0 -225 102 -225 188c0 85 61 154 195 213c-28 53 -35 90 -35 132c0 86 62 141 140 141
c108 0 129 -73 129 -115c0 -79 -78 -123 -146 -146l166 -272c21 21 74 90 74 125c0 32 -31 33 -48 33h-38zM466 72l-181 289c-38 -20 -111 -71 -111 -155c0 -86 64 -179 167 -179c44 0 88 17 125 45zM347 423c84 38 98 90 98 128c0 56 -27 87 -56 87c-33 0 -77 -30 -77 -109
c0 -36 11 -67 35 -106z" />
    <glyph glyph-name="quotesingle" unicode="'" horiz-adv-x="240" 
d="M70 700h100l-36 -200h-28z" />
    <glyph glyph-name="parenleft" unicode="(" horiz-adv-x="427" 
d="M367 -204l-13 -20c-161 98 -294 277 -294 469s133 371 294 469l13 -20c-135 -101 -198 -268 -198 -449s63 -348 198 -449z" />
    <glyph glyph-name="parenright" unicode=")" horiz-adv-x="427" 
d="M60 694l13 20c161 -98 294 -277 294 -469s-133 -371 -294 -469l-13 20c135 101 198 268 198 449s-63 348 -198 449z" />
    <glyph glyph-name="asterisk" unicode="*" horiz-adv-x="484" 
d="M250 572l18 -10l94 93c30 -12 44 -41 42 -72l-128 -35v-20l128 -35c2 -31 -12 -60 -42 -72l-94 93l-18 -10l34 -128c-11 -8 -24 -14 -42 -14s-31 5 -42 14l34 128l-17 10l-94 -93c-24 9 -46 39 -43 72l129 35v20l-129 35c-3 33 19 63 43 72l94 -93l17 10l-34 128
c11 9 24 14 42 14s31 -5 42 -14z" />
    <glyph glyph-name="plus" unicode="+" horiz-adv-x="640" 
d="M60 330v40h240v240h40v-240h240v-40h-240v-240h-40v240h-240z" />
    <glyph glyph-name="comma" unicode="," horiz-adv-x="226" 
d="M71 -154l-16 15c31 29 65 85 65 117c0 87 -61 14 -61 87c0 34 29 48 54 48c34 0 58 -32 58 -76s-18 -111 -100 -191z" />
    <glyph glyph-name="hyphenminus" horiz-adv-x="360" 
d="M300 299v-60h-240v60h240z" />
    <glyph glyph-name="period" unicode="." horiz-adv-x="228" 
d="M60 39c0 30 24 54 54 54s54 -24 54 -54s-24 -54 -54 -54s-54 24 -54 54z" />
    <glyph glyph-name="slash" unicode="/" horiz-adv-x="500" 
d="M460 700h40l-460 -914h-40z" />
    <glyph glyph-name="zero" unicode="0" 
d="M44 350c0 179 77 364 219 364s219 -185 219 -364s-77 -364 -219 -364s-219 185 -219 364zM142 350c0 -263 60 -336 121 -336s121 73 121 336s-60 336 -121 336s-121 -73 -121 -336z" />
    <glyph glyph-name="one" unicode="1" 
d="M289 714h32v-641c0 -44 25 -45 38 -45h62v-28h-281v28h62c13 0 38 1 38 45v487c-27 -25 -77 -61 -114 -84l-13 19c75 63 133 128 176 219z" />
    <glyph glyph-name="two" unicode="2" 
d="M462 137l-14 -137h-406v24l167 185c101 112 159 198 159 307c0 63 -23 170 -121 170c-60 0 -89 -45 -89 -80c0 -9 4 -18 7 -27c3 -11 5 -22 5 -33c0 -36 -29 -52 -55 -52c-14 0 -46 10 -46 57c0 77 67 163 188 163c123 0 203 -76 203 -194c0 -63 -21 -156 -125 -251
l-218 -199h204c92 0 108 23 110 42l3 25h28z" />
    <glyph glyph-name="three" unicode="3" 
d="M149 353v46c17 -3 46 -8 74 -8c90 0 138 59 138 162c0 75 -37 133 -118 133c-66 0 -90 -31 -90 -56c0 -7 2 -15 4 -22c2 -8 3 -16 3 -24c0 -33 -25 -48 -51 -48c-24 0 -46 20 -46 54c0 48 46 124 179 124c147 0 211 -87 211 -174c0 -82 -59 -147 -144 -157v-7
c122 -19 171 -99 171 -180c0 -82 -66 -210 -247 -210c-149 0 -198 82 -198 129c0 37 24 56 51 56c24 0 46 -14 46 -51c0 -9 -3 -17 -6 -26c-2 -8 -4 -16 -4 -24c0 -21 24 -56 103 -56c24 0 157 7 157 191c0 37 -2 158 -160 158c-32 0 -62 -7 -73 -10z" />
    <glyph glyph-name="four" unicode="4" 
d="M306 148h-278v33c115 162 240 386 311 533l81 -51l-366 -487h252v261l81 69v-330h91v-28h-91v-75c0 -44 25 -45 38 -45h53v-28h-263v28h53c13 0 38 1 38 45v75z" />
    <glyph glyph-name="five" unicode="5" 
d="M131 700h224c33 0 70 -3 79 31l5 19h28l-29 -130h-285l-22 -193c29 19 63 33 113 33c102 0 229 -51 229 -214c0 -124 -74 -260 -249 -260c-119 0 -182 62 -182 113c0 39 22 63 50 63c23 0 50 -15 50 -53c0 -10 -3 -20 -7 -30c-3 -7 -7 -13 -7 -20c0 -21 33 -45 99 -45
c64 0 148 47 148 224c0 36 -5 191 -149 191c-43 0 -74 -14 -101 -44h-30z" />
    <glyph glyph-name="six" unicode="6" 
d="M149 376c52 41 105 55 144 55c96 0 198 -54 198 -215c0 -143 -90 -230 -213 -230c-182 0 -229 180 -229 334c0 197 93 394 271 394c114 0 151 -70 151 -118c0 -33 -23 -46 -43 -46c-37 0 -55 24 -55 54c0 12 3 24 3 36c0 15 -11 46 -55 46c-65 0 -164 -67 -172 -310z
M148 328c-1 -16 -2 -32 -2 -48c0 -247 93 -266 132 -266c100 0 117 120 117 195c0 150 -70 189 -122 189c-45 0 -95 -23 -125 -70z" />
    <glyph glyph-name="seven" unicode="7" 
d="M67 700h416l-76 -163c-38 -82 -87 -255 -107 -342c-19 -87 -11 -209 -88 -209c-20 0 -53 9 -53 60c0 54 32 123 124 314c64 133 72 140 127 260h-240c-56 0 -93 -14 -99 -68h-28z" />
    <glyph glyph-name="eight" unicode="8" 
d="M320 401c94 -46 165 -103 165 -215c0 -109 -79 -200 -219 -200c-137 0 -227 80 -227 197c0 115 88 170 148 191c-63 37 -116 83 -116 157c0 86 58 183 200 183c107 0 192 -67 192 -163c0 -87 -84 -135 -143 -150zM296 413c81 35 100 89 100 145c0 100 -76 128 -132 128
c-79 0 -126 -57 -126 -112c0 -81 83 -123 158 -161zM211 362c-77 -42 -101 -103 -101 -184c0 -94 69 -164 158 -164c94 0 143 74 143 149c0 99 -97 154 -200 199z" />
    <glyph glyph-name="nine" unicode="9" 
d="M377 324c-52 -41 -105 -55 -144 -55c-96 0 -198 54 -198 215c0 143 90 230 213 230c182 0 229 -180 229 -334c0 -197 -93 -394 -271 -394c-114 0 -151 70 -151 118c0 33 23 46 43 46c37 0 55 -24 55 -54c0 -12 -3 -24 -3 -36c0 -15 11 -46 55 -46c65 0 164 67 172 310z
M378 372c2 24 3 63 3 91c0 92 -28 223 -133 223c-100 0 -117 -120 -117 -195c0 -150 70 -189 122 -189c45 0 95 23 125 70z" />
    <glyph glyph-name="colon" unicode=":" horiz-adv-x="228" 
d="M60 420c0 30 24 54 54 54s54 -24 54 -54s-24 -54 -54 -54s-54 24 -54 54zM60 39c0 30 24 54 54 54s54 -24 54 -54s-24 -54 -54 -54s-54 24 -54 54z" />
    <glyph glyph-name="semicolon" unicode=";" horiz-adv-x="236" 
d="M76 -154l-16 15c31 29 65 85 65 117c0 87 -61 14 -61 87c0 34 29 48 54 48c34 0 58 -32 58 -76s-18 -111 -100 -191zM64 420c0 30 24 54 54 54s54 -24 54 -54s-24 -54 -54 -54s-54 24 -54 54z" />
    <glyph glyph-name="less" unicode="&#x3c;" horiz-adv-x="690" 
d="M45 365l582 240l18 -40l-522 -215l522 -215l-18 -40l-582 240v30z" />
    <glyph glyph-name="equal" unicode="=" horiz-adv-x="640" 
d="M60 390v40h520v-40h-520zM60 270v40h520v-40h-520z" />
    <glyph glyph-name="greater" unicode="&#x3e;" horiz-adv-x="690" 
d="M645 335l-582 -240l-18 40l522 215l-522 215l18 40l582 -240v-30z" />
    <glyph glyph-name="question" unicode="?" horiz-adv-x="504" 
d="M226 140h-28v119c0 34 15 69 61 111c44 40 116 85 116 178c0 55 -33 138 -145 138c-50 0 -82 -28 -82 -46c0 -9 6 -18 9 -28c3 -9 3 -18 3 -27c0 -31 -29 -42 -50 -42c-26 0 -50 18 -50 54c0 54 57 117 159 117c140 0 225 -84 225 -213c0 -94 -55 -138 -115 -181
c-57 -41 -103 -73 -103 -125v-55zM158 39c0 30 24 54 54 54s54 -24 54 -54s-24 -54 -54 -54s-54 24 -54 54z" />
    <glyph glyph-name="at" unicode="@" horiz-adv-x="822" 
d="M546 541h71l-44 -317c-2 -12 -4 -23 -4 -35c0 -25 10 -39 34 -39c57 0 129 49 129 231c0 225 -168 302 -313 302c-195 0 -329 -144 -329 -338c0 -184 107 -328 286 -328c67 0 148 18 198 48l15 -30c-74 -35 -144 -49 -218 -49c-200 0 -335 146 -335 346
c0 226 154 382 382 382c226 0 368 -138 368 -335c0 -205 -119 -257 -204 -257c-49 0 -79 30 -83 69l-5 1c-32 -41 -84 -70 -146 -70c-101 0 -159 73 -159 169c0 172 128 267 238 267c23 0 77 -6 114 -52zM360 148c96 0 162 112 162 263c0 35 -8 125 -89 125
c-108 0 -164 -141 -164 -260c0 -51 16 -128 91 -128z" />
    <glyph glyph-name="A" unicode="A" horiz-adv-x="715" 
d="M460 273h-227l-23 -62c-29 -79 -42 -109 -42 -137c0 -27 13 -46 29 -46h40v-28h-203v28h19c25 0 62 23 144 245l163 441h32l225 -625c7 -20 19 -61 69 -61h22v-28h-256v28h40c21 0 40 3 40 29c0 19 -10 42 -22 76zM243 301h208l-104 288z" />
    <glyph glyph-name="B" unicode="B" horiz-adv-x="710" 
d="M67 0v28h57c13 0 38 1 38 45v555c0 15 -3 44 -38 44h-57v28h321c77 0 239 -10 239 -166c0 -111 -103 -141 -160 -148v-4c70 -9 190 -53 190 -186c0 -102 -61 -196 -242 -196h-348zM254 398h116c20 0 161 -1 161 137c0 101 -73 137 -167 137c-45 0 -77 -7 -110 -22v-252z
M254 368v-310c39 -27 70 -30 110 -30c33 0 193 0 193 166c0 122 -79 174 -189 174h-114z" />
    <glyph glyph-name="C" unicode="C" horiz-adv-x="744" 
d="M623 700h32l14 -191h-32l-2 24c-6 74 -91 153 -214 153c-177 0 -242 -183 -242 -345c0 -221 133 -318 270 -318c95 0 173 56 231 176l25 -13c-69 -150 -174 -200 -288 -200c-182 0 -347 125 -347 356c0 191 120 372 351 372c87 0 148 -15 203 -49z" />
    <glyph glyph-name="D" unicode="D" horiz-adv-x="820" 
d="M67 700h293c125 0 407 -17 407 -356c0 -102 -39 -344 -377 -344h-323v28h57c13 0 38 1 38 45v554c0 44 -25 45 -38 45h-57v28zM254 641v-588c38 -17 80 -25 132 -25c133 0 272 85 272 315c0 187 -94 329 -253 329c-11 0 -75 0 -151 -31z" />
    <glyph glyph-name="E" unicode="E" horiz-adv-x="679" 
d="M67 700h532l12 -142h-32l-4 30c-4 34 -45 84 -248 84h-35c-28 0 -38 -18 -38 -45v-245h45c178 0 176 32 176 57v25h32v-192h-32v25c0 25 2 57 -176 57h-45v-281c0 -44 25 -45 38 -45h14c205 0 283 48 294 102l5 25h32l-33 -155h-537v28h57c13 0 38 1 38 45v554
c0 44 -25 45 -38 45h-57v28z" />
    <glyph glyph-name="F" unicode="F" horiz-adv-x="643" 
d="M369 0h-302v28h57c13 0 38 1 38 45v554c0 44 -25 45 -38 45h-57v28h532l12 -142h-32l-4 30c-4 34 -45 84 -248 84h-35c-28 0 -38 -18 -38 -45v-245h45c178 0 176 32 176 57v25h32v-192h-32v25c0 25 2 57 -176 57h-45v-281c0 -44 25 -45 38 -45h77v-28z" />
    <glyph glyph-name="G" unicode="G" horiz-adv-x="795" 
d="M498 305h287v-28h-42c-13 0 -38 -1 -38 -45v-160c-84 -55 -180 -86 -272 -86c-247 0 -363 184 -363 364c0 206 147 364 351 364c62 0 153 -6 233 -49l-1 35h32l14 -191h-32l-2 24c-6 68 -105 153 -244 153c-180 0 -242 -188 -242 -338c0 -270 153 -334 252 -334
c86 0 182 45 182 132v86c0 44 -25 45 -38 45h-77v28z" />
    <glyph glyph-name="H" unicode="H" horiz-adv-x="846" 
d="M254 379h353v248c0 44 -25 45 -38 45h-57v28h282v-28h-57c-13 0 -38 -1 -38 -45v-554c0 -44 25 -45 38 -45h57v-28h-282v28h57c13 0 38 1 38 45v278h-353v-278c0 -44 25 -45 38 -45h57v-28h-282v28h57c13 0 38 1 38 45v554c0 44 -25 45 -38 45h-57v28h282v-28h-57
c-13 0 -38 -1 -38 -45v-248z" />
    <glyph glyph-name="I" unicode="I" horiz-adv-x="401" 
d="M67 700h282v-28h-57c-13 0 -38 -1 -38 -45v-554c0 -44 25 -45 38 -45h57v-28h-282v28h57c13 0 38 1 38 45v554c0 44 -25 45 -38 45h-57v28z" />
    <glyph glyph-name="J" unicode="J" horiz-adv-x="430" 
d="M96 700h282v-28h-57c-13 0 -38 -1 -38 -45v-520c0 -257 -146 -331 -243 -331c-74 0 -120 41 -120 88c0 38 26 55 50 55c29 0 56 -16 56 -52c0 -8 -1 -15 -1 -23c0 -10 1 -40 41 -40c55 0 125 51 125 244v579c0 44 -25 45 -38 45h-57v28z" />
    <glyph glyph-name="K" unicode="K" horiz-adv-x="781" 
d="M162 73v554c0 44 -25 45 -38 45h-57v28h282v-28h-57c-13 0 -38 -1 -38 -45v-271l208 193c29 26 80 78 80 102c0 12 -11 21 -28 21h-49v28h262v-28h-24c-46 0 -112 -51 -148 -84l-192 -172l277 -323c37 -43 66 -63 127 -65v-28h-169l-302 356l-42 -39v-244
c0 -44 25 -45 38 -45h57v-28h-282v28h57c13 0 38 1 38 45z" />
    <glyph glyph-name="L" unicode="L" horiz-adv-x="637" 
d="M67 700h282v-28h-57c-13 0 -38 -1 -38 -45v-554c0 -41 22 -44 43 -45c58 -2 288 14 293 110l1 18h32l-12 -156h-544v28h57c13 0 38 1 38 45v554c0 44 -25 45 -38 45h-57v28z" />
    <glyph glyph-name="M" unicode="M" horiz-adv-x="979" 
d="M67 700h202l237 -563l239 563h182v-28h-57c-13 0 -38 -1 -38 -45v-554c0 -44 25 -45 38 -45h57v-28h-282v28h57c13 0 38 1 38 45v538l-257 -611h-26l-267 631v-333c0 -131 5 -270 70 -270h23v-28h-216v28h19c65 0 70 139 70 270v324c0 49 -22 50 -38 50h-51v28z" />
    <glyph glyph-name="N" unicode="N" horiz-adv-x="740" 
d="M0 700h164l428 -552v254c0 131 -5 270 -70 270h-23v28h226v-28h-29c-65 0 -70 -139 -70 -270v-416h-36l-435 565v-253c0 -131 5 -270 70 -270h23v-28h-216v28h19c65 0 70 139 70 270v294l-20 23c-33 38 -59 59 -101 57v28z" />
    <glyph glyph-name="O" unicode="O" horiz-adv-x="823" 
d="M70 350c0 186 123 364 350 364c243 0 350 -198 350 -364s-107 -364 -350 -364c-227 0 -350 178 -350 364zM179 350c0 -153 67 -336 241 -336s241 183 241 336s-67 336 -241 336s-241 -183 -241 -336z" />
    <glyph glyph-name="P" unicode="P" horiz-adv-x="673" 
d="M67 700h256c262 0 311 -117 311 -214c0 -138 -120 -212 -288 -212c-32 0 -60 3 -91 8v-209c0 -44 25 -45 38 -45h77v-28h-302v28h57c13 0 38 1 38 45v554c0 44 -25 45 -38 45h-58v28zM255 650v-338c12 -3 40 -9 73 -9c91 0 206 43 206 183c0 93 -46 186 -182 186
c-42 0 -72 -9 -97 -22z" />
    <glyph glyph-name="Q" unicode="Q" horiz-adv-x="823" 
d="M181 -135l193 123c-212 29 -304 203 -304 364c0 163 106 362 350 362s350 -198 350 -362c0 -167 -107 -366 -351 -366l-86 -54l3 -12c29 8 57 13 86 13c133 0 164 -73 271 -73c46 0 108 20 149 76l18 -14c-51 -114 -115 -146 -176 -146c-64 0 -107 31 -169 65
c-46 25 -99 51 -174 51c-64 0 -110 -27 -141 -53zM179 352c0 -155 67 -338 241 -338s241 183 241 338c0 150 -64 334 -241 334c-184 0 -241 -202 -241 -334z" />
    <glyph glyph-name="R" unicode="R" horiz-adv-x="731" 
d="M67 700h301c110 0 247 -23 247 -179c0 -147 -149 -181 -233 -181v-7c95 -11 138 -83 200 -200c19 -36 51 -102 82 -102c17 0 26 20 26 37v12h27v-14c0 -35 -25 -80 -80 -80c-74 0 -113 55 -152 120c-53 87 -98 247 -231 230v-263c0 -44 25 -45 38 -45h57v-28h-282v28h57
c13 0 38 1 38 45v554c0 44 -25 45 -38 45h-57v28zM254 652v-288c24 -3 49 -3 73 -3c62 0 192 13 192 161c0 103 -80 150 -174 150c-35 0 -62 -7 -91 -20z" />
    <glyph glyph-name="S" unicode="S" horiz-adv-x="589" 
d="M67 181h32l1 -13c6 -81 117 -154 210 -154c108 0 152 82 152 146c0 52 -30 83 -69 107l-179 108c-80 48 -137 75 -137 154c0 72 40 185 210 185c41 0 101 -6 180 -43l-1 29h32l6 -177h-32l-1 21c-4 82 -97 142 -192 142c-74 0 -124 -41 -124 -101c0 -31 15 -73 59 -100
l207 -124c42 -25 116 -65 116 -166c0 -87 -53 -209 -225 -209c-53 0 -124 6 -202 47l2 -33h-32z" />
    <glyph glyph-name="T" unicode="T" horiz-adv-x="682" 
d="M38 700h620v-156h-32v23c0 55 -100 105 -186 105c-15 0 -46 0 -46 -19v-580c0 -44 25 -45 38 -45h57v-28h-282v28h57c13 0 38 1 38 45v580c0 19 -31 19 -46 19c-86 0 -186 -50 -186 -105v-23h-32v156z" />
    <glyph glyph-name="U" unicode="U" horiz-adv-x="829" 
d="M67 700h282v-28h-57c-13 0 -38 -1 -38 -45v-393c0 -41 2 -217 185 -217c54 0 210 15 210 229v156c0 131 -5 270 -70 270h-28v28h226v-28h-24c-65 0 -70 -139 -70 -270v-157c0 -87 -27 -259 -244 -259c-273 0 -277 208 -277 249v392c0 44 -25 45 -38 45h-57v28z" />
    <glyph glyph-name="V" unicode="V" horiz-adv-x="764" 
d="M21 700h248v-28h-41c-28 0 -33 -13 -33 -29c0 -8 4 -15 8 -24l203 -511l150 358c53 127 58 155 58 171c0 6 -1 35 -29 35h-47v28h205v-28c-82 -2 -111 -107 -183 -277l-173 -409h-29l-251 633c-10 26 -29 53 -76 53h-10v28z" />
    <glyph glyph-name="W" unicode="W" horiz-adv-x="1086" 
d="M21 700h267v-28h-49c-45 0 -35 -35 -29 -53l168 -497l142 367l-43 130c-8 24 -20 53 -75 53h-24v28h276v-28h-58c-21 0 -30 -13 -30 -27c0 -5 4 -20 6 -26l167 -497l129 344c39 104 46 143 46 171c0 34 -22 35 -34 35h-45v28h230v-28c-70 -1 -110 -75 -188 -277
l-157 -409h-28l-156 451l-175 -451h-29l-216 633c-11 34 -34 53 -72 53h-23v28z" />
    <glyph glyph-name="X" unicode="X" horiz-adv-x="762" 
d="M56 700h276v-28h-63c-15 0 -20 -11 -20 -17c0 -9 8 -19 17 -33l138 -210c70 89 154 207 154 239c0 22 -26 21 -37 21h-48v28h248v-28h-22c-65 0 -132 -97 -277 -287l166 -249c46 -69 76 -113 140 -108v-28h-273v28h57c11 0 19 8 21 15c1 4 1 7 0 11c-2 7 -7 12 -12 20
l-157 235c-157 -206 -173 -246 -173 -261c0 -20 15 -20 24 -20h54v-28h-221v28c85 20 132 95 298 307l-167 252c-37 55 -68 84 -123 85v28z" />
    <glyph glyph-name="Y" unicode="Y" horiz-adv-x="712" 
d="M21 700h271v-28h-55c-12 0 -22 -6 -22 -17c0 -3 -1 -11 6 -23l169 -307l76 129c43 72 82 159 82 195c0 16 -12 23 -27 23h-56v28h226v-28c-66 4 -94 -54 -180 -197l-110 -183v-219c0 -44 25 -45 38 -45h57v-28h-282v28h57c13 0 38 1 38 45v213l-180 327
c-14 26 -42 59 -108 59v28z" />
    <glyph glyph-name="Z" unicode="Z" horiz-adv-x="650" 
d="M107 700h470v-28l-401 -644h91c226 0 293 53 297 94l2 22h32l-21 -144h-510v28l404 644h-101c-156 0 -236 -45 -240 -84l-3 -32h-32z" />
    <glyph glyph-name="bracketleft" unicode="[" horiz-adv-x="376" 
d="M100 714h216v-22h-91c-13 0 -38 -1 -38 -45v-804c0 -44 25 -45 38 -45h91v-22h-216v938z" />
    <glyph glyph-name="backslash" unicode="\" horiz-adv-x="500" 
d="M0 700h40l460 -914h-40z" />
    <glyph glyph-name="bracketright" unicode="]" horiz-adv-x="376" 
d="M60 714h216v-938h-216v22h91c13 0 38 1 38 45v804c0 44 -25 45 -38 45h-91v22z" />
    <glyph glyph-name="asciicircum" unicode="^" horiz-adv-x="488" 
d="M244 714l214 -314h-45l-169 249l-169 -249h-45z" />
    <glyph glyph-name="underscore" unicode="_" horiz-adv-x="580" 
d="M0 -214v40h580v-40h-580z" />
    <glyph glyph-name="grave" unicode="`" horiz-adv-x="370" 
d="M270 581l-18 -18l-177 132c-13 9 -25 18 -25 37s13 36 29 42c5 2 11 3 17 3c20 0 31 -14 41 -26z" />
    <glyph glyph-name="a" unicode="a" horiz-adv-x="468" 
d="M305 276v52c0 42 1 123 -110 123c-45 0 -58 -17 -58 -31c0 -5 1 -11 2 -16c1 -7 3 -14 3 -21c0 -29 -20 -44 -45 -44c-27 0 -43 21 -43 48c0 43 44 86 138 86c185 0 189 -111 189 -145v-261c0 -18 3 -39 22 -39c16 0 30 17 37 39l22 -9c-9 -26 -31 -69 -86 -69
c-56 0 -71 50 -71 87c-43 -52 -96 -87 -167 -87c-73 0 -106 49 -106 99c0 124 151 165 273 188zM305 105v149c-152 -29 -186 -89 -186 -150c0 -44 21 -76 62 -76c46 0 91 39 124 77z" />
    <glyph glyph-name="b" unicode="b" horiz-adv-x="538" 
d="M109 -11h-22v710c0 19 -24 21 -63 21h-12v22c16 1 64 5 151 38v-349c42 33 94 42 132 42c143 0 207 -125 207 -235c0 -186 -148 -249 -231 -249c-38 0 -98 12 -137 50zM163 394v-281c0 -69 54 -102 109 -102c58 0 143 43 143 226c0 144 -67 210 -148 210
c-42 0 -74 -23 -104 -53z" />
    <glyph glyph-name="c" unicode="c" horiz-adv-x="460" 
d="M410 136l20 -5c-16 -55 -66 -142 -187 -142c-120 0 -207 89 -207 236c0 127 77 248 231 248c83 0 139 -35 139 -86c0 -33 -23 -52 -48 -52c-18 0 -46 13 -46 44c0 14 5 29 5 37c0 16 -17 35 -55 35c-103 0 -139 -124 -139 -226c0 -123 58 -203 147 -203
c84 0 126 67 140 114z" />
    <glyph glyph-name="d" unicode="d" horiz-adv-x="558" 
d="M526 0h-128l-15 43c-44 -35 -81 -54 -135 -54c-126 0 -212 96 -212 237c0 152 106 247 232 247c53 0 96 -15 107 -19v245c0 19 -24 21 -63 21h-12v22c16 1 64 5 151 38v-669c0 -47 4 -89 48 -89h27v-22zM375 75v319c-24 56 -90 57 -99 57c-93 0 -153 -90 -153 -224
c0 -132 59 -209 139 -209c42 0 86 21 113 57z" />
    <glyph glyph-name="e" unicode="e" horiz-adv-x="457" 
d="M427 264h-303c-1 -12 -1 -25 -1 -37c0 -173 84 -202 143 -202c49 0 102 22 139 93l18 -10c-43 -80 -93 -119 -176 -119c-125 0 -211 94 -211 233c0 123 64 251 211 251c124 0 182 -106 180 -209zM124 286h221v14c0 124 -57 151 -100 151c-27 0 -108 -11 -121 -165z" />
    <glyph glyph-name="f" unicode="f" horiz-adv-x="303" 
d="M107 429h-75v33h75v15c0 162 80 293 177 293c42 0 69 -26 69 -56c0 -26 -17 -45 -41 -45c-27 0 -47 17 -47 45c0 8 2 25 -18 25c-67 0 -64 -165 -64 -233v-44h118v-33h-118v-383c0 -21 14 -24 36 -24h39v-22h-226v22h39c22 0 36 3 36 24v383z" />
    <glyph glyph-name="g" unicode="g" horiz-adv-x="508" 
d="M163 199v4c-66 9 -114 64 -114 124c0 65 57 146 200 146c44 0 74 -10 96 -19c11 25 38 70 90 70c35 0 49 -21 49 -39c0 -17 -13 -35 -32 -35c-12 0 -25 3 -33 12c-7 7 -12 16 -26 16s-27 -16 -32 -30c53 -29 84 -68 84 -121c0 -72 -62 -143 -203 -143c-18 0 -35 2 -53 2
c-48 0 -56 -25 -56 -41c0 -30 47 -41 89 -47l118 -18c127 -19 154 -86 154 -143c0 -58 -42 -161 -249 -161c-136 0 -231 61 -231 152c0 73 60 113 125 118v6c-46 9 -73 43 -73 72c0 35 42 70 97 75zM246 451c-77 0 -110 -62 -110 -120c0 -48 19 -125 108 -125
c82 0 114 62 114 125c0 70 -43 120 -112 120zM316 10l-136 21c-61 -8 -96 -60 -96 -110c0 -81 66 -123 161 -123c121 0 188 53 188 118c0 74 -82 89 -117 94z" />
    <glyph glyph-name="h" unicode="h" horiz-adv-x="560" 
d="M258 0h-226v22h39c22 0 36 3 36 24v653c0 19 -24 21 -63 21h-12v22c58 7 97 18 151 38v-358c47 33 91 51 140 51c141 0 140 -149 140 -173v-254c0 -21 14 -24 36 -24h39v-22h-226v22h39c22 0 36 3 36 24v263c0 96 -47 130 -102 130c-38 0 -78 -24 -102 -51v-342
c0 -21 14 -24 36 -24h39v-22z" />
    <glyph glyph-name="i" unicode="i" horiz-adv-x="290" 
d="M258 0h-226v22h39c22 0 36 3 36 24v355c0 19 -24 21 -63 21h-12v22c16 1 64 5 151 38v-436c0 -21 14 -24 36 -24h39v-22zM94 651c0 29 21 50 50 50s50 -21 50 -50c0 -35 -30 -50 -50 -50c-23 0 -50 16 -50 50z" />
    <glyph glyph-name="j" unicode="j" horiz-adv-x="283" 
d="M107 -44v445c0 19 -24 21 -63 21h-12v22c16 1 64 5 151 38v-481c0 -143 -89 -225 -175 -225c-48 0 -76 35 -76 69c0 27 23 44 41 44c26 0 45 -17 45 -49c0 -5 -2 -9 -2 -14c0 -13 6 -24 20 -24c37 0 71 34 71 154zM95 651c0 29 21 50 50 50s50 -21 50 -50
s-21 -50 -50 -50s-50 21 -50 50z" />
    <glyph glyph-name="k" unicode="k" horiz-adv-x="540" 
d="M248 0h-226v22h39c22 0 36 3 36 24v653c0 19 -24 21 -63 21h-12v22c16 1 64 5 151 38v-593c157 179 169 212 169 230c0 21 -21 23 -41 23h-20v22h202v-22h-21c-36 0 -41 -18 -181 -162l170 -220c28 -36 43 -36 64 -36h13v-22h-226v22h35c27 0 40 15 24 36l-124 165
l-64 -71v-106c0 -21 14 -24 36 -24h39v-22z" />
    <glyph glyph-name="l" unicode="l" horiz-adv-x="290" 
d="M258 0h-226v22h39c22 0 36 3 36 24v653c0 19 -24 21 -63 21h-12v22c16 1 64 5 151 38v-734c0 -21 14 -24 36 -24h39v-22z" />
    <glyph glyph-name="m" unicode="m" horiz-adv-x="806" 
d="M247 0h-215v22h39c22 0 36 3 36 24v355c0 19 -24 21 -63 21h-12v22c16 1 64 5 151 38v-58c46 33 84 49 125 49c49 0 91 -18 115 -56c55 44 102 56 141 56c72 0 145 -52 145 -155v-272c0 -21 14 -24 36 -24h39v-22h-215v22h28c22 0 36 3 36 24v269c0 93 -51 127 -101 127
c-25 0 -56 -8 -98 -48c9 -25 12 -46 12 -74v-274c0 -21 14 -24 36 -24h28v-22h-205v22h29c22 0 36 3 36 24v274c0 63 -24 122 -89 122c-37 0 -73 -21 -98 -48v-348c0 -21 14 -24 36 -24h28v-22z" />
    <glyph glyph-name="n" unicode="n" horiz-adv-x="560" 
d="M258 0h-226v22h39c22 0 36 3 36 24v355c0 19 -24 21 -63 21h-12v22c58 7 97 18 151 38v-60c47 33 91 51 140 51c141 0 140 -149 140 -173v-254c0 -21 14 -24 36 -24h39v-22h-226v22h39c22 0 36 3 36 24v263c0 96 -47 130 -102 130c-38 0 -78 -24 -102 -51v-342
c0 -21 14 -24 36 -24h39v-22z" />
    <glyph glyph-name="o" unicode="o" horiz-adv-x="520" 
d="M36 231c0 119 67 242 224 242s224 -123 224 -242s-67 -242 -224 -242s-224 123 -224 242zM123 231c0 -192 88 -220 137 -220s137 28 137 220s-88 220 -137 220s-137 -28 -137 -220z" />
    <glyph glyph-name="p" unicode="p" horiz-adv-x="538" 
d="M248 -214h-226v22h39c22 0 36 3 36 24v569c0 19 -24 21 -63 21h-12v22c16 1 64 5 151 38v-56c30 23 72 47 124 47c120 0 205 -97 205 -241c0 -137 -86 -243 -211 -243c-63 0 -98 15 -118 29v-186c0 -21 14 -24 36 -24h39v-22zM173 400v-319c0 -22 29 -70 107 -70
c76 0 135 83 135 219c0 102 -34 209 -145 209c-35 0 -71 -10 -97 -39z" />
    <glyph glyph-name="q" unicode="q" horiz-adv-x="528" 
d="M516 -214h-226v22h39c22 0 36 3 36 24v203c-39 -29 -87 -46 -136 -46c-92 0 -193 80 -193 242c0 138 92 242 221 242c57 0 98 -13 136 -48l27 48h21v-641c0 -21 14 -24 36 -24h39v-22zM365 69v299c0 40 -37 83 -108 83c-86 0 -134 -97 -134 -223c0 -153 69 -210 135 -210
c35 0 78 19 107 51z" />
    <glyph glyph-name="r" unicode="r" horiz-adv-x="389" 
d="M258 0h-226v22h39c22 0 36 3 36 24v355c0 19 -24 21 -63 21h-12v22c16 1 64 5 151 38v-105c20 45 55 96 114 96c44 0 80 -22 80 -60c0 -24 -14 -51 -42 -51s-42 24 -43 41c-1 10 0 31 -26 31c-39 0 -83 -81 -83 -146v-242c0 -21 14 -24 36 -24h39v-22z" />
    <glyph glyph-name="s" unicode="s" horiz-adv-x="390" 
d="M302 462h25l4 -125h-25v16c0 42 -61 98 -133 98c-57 0 -74 -42 -74 -73c0 -49 61 -70 116 -96c59 -28 139 -70 139 -156c0 -54 -43 -137 -158 -137c-52 0 -100 19 -130 33v-22h-25l-5 131h25c2 -69 76 -120 139 -120c58 0 89 42 89 88c0 65 -66 86 -142 126
c-66 35 -104 67 -104 125c0 73 56 123 145 123c27 0 72 -5 114 -29v18z" />
    <glyph glyph-name="t" unicode="t" horiz-adv-x="379" 
d="M92 437h-75v25c48 3 127 26 127 149v11h24v-160c70 -1 89 3 158 15v-40h-158v-321c0 -75 46 -91 75 -91c45 0 83 46 92 93l22 -9c-32 -103 -90 -120 -136 -120c-84 0 -129 60 -129 145v303z" />
    <glyph glyph-name="u" unicode="u" horiz-adv-x="557" 
d="M525 0h-151v63c-75 -67 -121 -74 -163 -74c-29 0 -114 8 -114 147v265c0 19 -24 21 -63 21h-12v22c16 1 64 5 151 38v-346c0 -67 20 -109 79 -109c44 0 96 35 122 64v310c0 19 -24 21 -63 21h-12v22c16 1 64 5 151 38v-436c0 -21 14 -24 36 -24h39v-22z" />
    <glyph glyph-name="v" unicode="v" 
d="M12 462h217v-22h-35c-19 0 -43 -9 -30 -41l125 -301l63 160c10 26 48 127 48 151c0 27 -19 31 -48 31h-22v22h184v-22h-23c-29 0 -54 -41 -111 -182l-108 -269h-18l-170 410c-13 32 -29 41 -46 41h-26v22z" />
    <glyph glyph-name="w" unicode="w" horiz-adv-x="749" 
d="M12 462h186v-22h-8c-46 0 -42 -19 -36 -34l121 -310l87 227l-30 83c-8 21 -27 34 -51 34h-11v22h186v-22h-20c-43 0 -32 -21 -27 -34l115 -310l65 167c50 128 50 147 50 153c0 21 -10 24 -33 24h-31v22h162v-22h-17c-41 0 -71 -85 -114 -197l-97 -254h-20l-114 304
l-112 -304h-25l-162 417c-11 30 -32 34 -47 34h-17v22z" />
    <glyph glyph-name="x" unicode="x" horiz-adv-x="516" 
d="M228 223l-116 168c-13 18 -37 48 -90 49v22h214v-22h-34c-8 0 -22 2 -22 -11c0 -6 4 -15 7 -20l87 -130l59 82c18 25 28 43 28 61c0 14 -9 18 -20 18h-37v22h180v-22h-18c-39 0 -70 -41 -103 -83l-75 -97l136 -198c17 -24 45 -40 78 -40v-22h-228v22h42c20 0 27 9 27 17
c0 5 0 12 -7 23l-93 141l-66 -88c-32 -43 -33 -58 -33 -68c0 -27 28 -25 45 -25h22v-22h-189v22h12c31 0 88 66 125 113z" />
    <glyph glyph-name="y" unicode="y" horiz-adv-x="528" 
d="M514 462v-22h-15c-44 0 -60 -71 -105 -185l-133 -336c-23 -59 -67 -143 -153 -143c-48 0 -81 30 -81 66c0 24 14 47 43 47c73 0 11 -77 71 -77c28 0 66 38 96 115l25 65l-174 412c-6 15 -18 36 -54 36h-20v22h206v-22h-34c-37 0 -24 -31 -22 -36l135 -321l42 116
c53 148 59 190 59 210c0 10 -2 31 -31 31h-27v22h172z" />
    <glyph glyph-name="z" unicode="z" horiz-adv-x="421" 
d="M52 462h335v-22l-280 -418h48c86 0 202 8 207 73l2 28h25l-9 -123h-358v22l273 418h-34c-131 0 -188 -37 -190 -77l-1 -24h-25z" />
    <glyph glyph-name="braceleft" unicode="{" horiz-adv-x="351" 
d="M295 714v-28c-65 -10 -75 -75 -75 -116s5 -92 5 -119c0 -91 -37 -174 -118 -206c81 -32 118 -115 118 -206c0 -27 -5 -78 -5 -119s10 -106 75 -116v-28c-64 5 -149 47 -149 200c0 24 3 49 3 73c0 152 -55 179 -93 181v30c38 2 93 29 93 181c0 24 -3 49 -3 73
c0 153 85 195 149 200z" />
    <glyph glyph-name="bar" unicode="|" horiz-adv-x="152" 
d="M56 -224v1053h40v-1053h-40z" />
    <glyph glyph-name="braceright" unicode="}" horiz-adv-x="351" 
d="M56 -224v28c65 10 75 75 75 116s-5 92 -5 119c0 91 37 174 118 206c-81 32 -118 115 -118 206c0 27 5 78 5 119s-10 106 -75 116v28c64 -5 149 -47 149 -200c0 -24 -3 -49 -3 -73c0 -152 55 -179 93 -181v-30c-38 -2 -93 -29 -93 -181c0 -24 3 -49 3 -73
c0 -153 -85 -195 -149 -200z" />
    <glyph glyph-name="asciitilde" unicode="~" horiz-adv-x="542" 
d="M90 254h-30c20 69 83 111 138 111c61 0 148 -46 190 -46c35 0 55 28 64 46h30c-40 -89 -78 -111 -124 -111c-40 0 -69 11 -95 20c-59 21 -81 26 -97 26c-33 0 -65 -21 -76 -46z" />
    <glyph glyph-name="afii10051" unicode="&#x402;" horiz-adv-x="832" 
d="M369 380v-380h-188v28h57c13 0 39 3 39 45v580c0 19 -31 19 -46 19c-66 0 -168 -41 -168 -105v-23h-32v156h604v-156h-32v23c0 59 -109 105 -188 105c-15 0 -46 0 -46 -19v-243c48 16 105 29 159 29c134 0 251 -71 251 -214c0 -127 -88 -233 -210 -233
c-106 0 -147 58 -147 104c0 26 21 52 57 52c35 0 54 -25 54 -53c0 -6 -1 -13 -2 -19c-1 -7 -3 -14 -3 -21c0 -12 13 -34 46 -34c39 0 105 32 105 183c0 38 -3 201 -169 201c-47 0 -103 -11 -141 -25z" />
    <glyph glyph-name="afii10052" unicode="&#x403;" horiz-adv-x="558" 
d="M369 0h-302v28h57c5 0 38 -1 38 38v572c0 24 -22 34 -38 34h-57v28h479l12 -145h-32l-4 33c-5 41 -49 84 -204 84h-16c-16 0 -48 1 -48 -46v-560c0 -39 33 -38 38 -38h77v-28zM171 805l174 121c23 16 36 19 44 19c25 0 49 -23 49 -52c0 -30 -21 -43 -54 -52l-204 -55z
" />
    <glyph glyph-name="quotesinglbase" unicode="&#x201a;" horiz-adv-x="226" 
d="M71 -154l-16 15c31 29 65 85 65 117c0 87 -61 14 -61 87c0 34 29 48 54 48c34 0 58 -32 58 -76s-18 -111 -100 -191z" />
    <glyph glyph-name="afii10100" unicode="&#x453;" horiz-adv-x="416" 
d="M32 0v22h39c22 0 36 3 36 24v370c0 21 -14 24 -36 24h-39v22h372v-123h-25v9c0 28 -16 92 -161 92h-12c-7 0 -23 1 -23 -24v-370c0 -21 14 -24 36 -24h49v-22h-236zM152 554l72 190c5 14 16 34 44 34c22 0 46 -19 46 -42c0 -8 -2 -20 -15 -36l-128 -157z" />
    <glyph glyph-name="quotedblbase" unicode="&#x201e;" horiz-adv-x="398" 
d="M71 -154l-16 15c31 29 65 85 65 117c0 87 -61 14 -61 87c0 34 29 48 54 48c34 0 58 -32 58 -76s-18 -111 -100 -191zM243 -154l-16 15c31 29 65 85 65 117c0 87 -61 14 -61 87c0 34 29 48 54 48c34 0 58 -32 58 -76s-18 -111 -100 -191z" />
    <glyph glyph-name="ellipsis" unicode="&#x2026;" horiz-adv-x="680" 
d="M60 39c0 30 24 54 54 54s54 -24 54 -54s-24 -54 -54 -54s-54 24 -54 54zM286 39c0 30 24 54 54 54s54 -24 54 -54s-24 -54 -54 -54s-54 24 -54 54zM512 39c0 30 24 54 54 54s54 -24 54 -54s-24 -54 -54 -54s-54 24 -54 54z" />
    <glyph glyph-name="dagger" unicode="&#x2020;" horiz-adv-x="550" 
d="M260 -214v295c0 103 -7 169 -33 236c21 44 34 94 33 132c-69 -1 -62 -40 -141 -40c-35 0 -59 19 -59 54c0 41 31 54 59 54c35 0 77 -38 142 -43c0 82 -44 100 -44 168c0 36 14 72 58 72s58 -36 58 -72c0 -68 -44 -86 -44 -168c65 5 107 43 142 43c28 0 59 -13 59 -54
c0 -35 -24 -54 -59 -54c-79 0 -72 39 -141 40c-1 -38 12 -88 33 -132c-26 -67 -33 -133 -33 -236v-295h-30z" />
    <glyph glyph-name="daggerdbl" unicode="&#x2021;" horiz-adv-x="550" 
d="M260 -214v45c0 70 -7 123 -33 197c21 44 34 94 33 132c-20 -2 -40 -6 -65 -16c-32 -13 -52 -27 -76 -27c-28 0 -59 13 -59 54c0 35 24 54 59 54c79 0 72 -39 141 -40c1 38 -12 88 -33 132c21 44 34 94 33 132c-69 -1 -63 -40 -141 -40c-35 0 -59 19 -59 54
c0 41 31 54 59 54c26 0 54 -18 75 -27c24 -10 45 -14 66 -16c0 76 -43 115 -43 168c0 36 15 72 58 72s58 -36 58 -72c0 -53 -43 -92 -43 -168c21 2 42 6 66 16c21 9 49 27 75 27c28 0 59 -13 59 -54c0 -35 -24 -54 -59 -54c-79 0 -72 39 -141 40c-1 -38 12 -88 33 -132
c-21 -44 -34 -94 -33 -132c69 1 62 40 141 40c35 0 59 -19 59 -54c0 -41 -31 -54 -59 -54c-24 0 -44 14 -76 27c-25 10 -45 14 -65 16c-1 -38 12 -88 33 -132c-26 -74 -33 -127 -33 -197v-45h-30z" />
    <glyph glyph-name="Yat'" horiz-adv-x="780" 
d="M23 640h233v27c0 44 -25 45 -38 45h-57v28h282v-28h-57c-13 0 -38 -1 -38 -45v-27h273l9 -151h-32l-1 22c-2 53 -95 101 -190 101c-36 0 -59 -1 -59 -33v-166c35 7 69 10 104 10c222 0 283 -116 283 -218c0 -195 -192 -205 -276 -205h-298v28h57c13 0 38 1 38 45v506
c0 28 -16 33 -59 33c-76 0 -148 -48 -150 -101l-1 -22h-32zM348 385v-334c37 -16 71 -23 99 -23c99 0 188 53 188 186c0 173 -150 179 -199 179c-33 0 -60 -3 -88 -8z" />
    <glyph glyph-name="perthousand" unicode="&#x2030;" horiz-adv-x="1180" 
d="M60 554c0 102 71 160 150 160s150 -58 150 -160s-71 -160 -150 -160s-150 58 -150 160zM132 554c0 -106 41 -138 78 -138s78 32 78 138s-41 138 -78 138s-78 -32 -78 -138zM720 731l-617 -781l-23 20l617 780zM440 146c0 102 71 160 150 160s150 -58 150 -160
s-71 -160 -150 -160s-150 58 -150 160zM512 146c0 -106 41 -138 78 -138s78 32 78 138s-41 138 -78 138s-78 -32 -78 -138zM820 146c0 102 71 160 150 160s150 -58 150 -160s-71 -160 -150 -160s-150 58 -150 160zM892 146c0 -106 41 -138 78 -138s78 32 78 138
s-41 138 -78 138s-78 -32 -78 -138z" />
    <glyph glyph-name="afii10058" unicode="&#x409;" horiz-adv-x="1051" 
d="M183 700h531v-28h-57c-13 0 -38 -1 -38 -45v-214c35 7 69 10 104 10c222 0 283 -116 283 -218c0 -195 -192 -205 -276 -205h-298v28h57c13 0 38 1 38 45v554c0 44 -25 45 -38 45h-57c-116 0 -79 -9 -126 -290c-49 -292 -103 -396 -195 -396c-50 0 -97 28 -97 81
c0 38 24 62 55 62c40 0 54 -30 54 -51c0 -5 -1 -10 -2 -15c-1 -4 -2 -9 -2 -13c0 -13 9 -21 18 -21c21 0 51 23 89 139c36 112 75 373 75 441c0 35 -15 63 -52 63h-66v28zM619 385v-334c37 -16 71 -23 99 -23c99 0 188 53 188 186c0 173 -150 179 -199 179
c-33 0 -60 -3 -88 -8z" />
    <glyph glyph-name="quilsinglleft" horiz-adv-x="440" 
d="M184 231l196 -215l-15 -16c-100 88 -179 151 -305 231c126 80 205 143 305 231l15 -16z" />
    <glyph glyph-name="afii10059" unicode="&#x40a;" horiz-adv-x="1131" 
d="M254 399h353v228c0 44 -25 45 -38 45h-57v28h282v-28h-57c-13 0 -38 -1 -38 -45v-214c35 7 69 10 104 10c222 0 283 -116 283 -218c0 -195 -192 -205 -276 -205h-298v28h57c13 0 38 1 38 45v298h-353v-298c0 -44 25 -45 38 -45h57v-28h-282v28h57c13 0 38 1 38 45v554
c0 44 -25 45 -38 45h-57v28h282v-28h-57c-13 0 -38 -1 -38 -45v-228zM699 385v-334c37 -16 71 -23 99 -23c99 0 188 53 188 186c0 173 -150 179 -199 179c-33 0 -60 -3 -88 -8z" />
    <glyph glyph-name="afii10061" unicode="&#x40c;" horiz-adv-x="741" 
d="M254 393h40c55 0 84 12 160 161c39 77 81 160 166 160c45 0 71 -27 71 -63c0 -34 -25 -53 -52 -53c-30 0 -48 23 -48 49c0 5 1 9 1 14s-1 14 -10 14c-59 0 -66 -252 -224 -295v-5c133 -16 205 -122 257 -258c26 -68 37 -88 56 -88c20 0 28 28 29 44h27
c-5 -58 -34 -87 -83 -87c-122 0 -178 199 -248 315c-24 40 -52 64 -102 64h-40v-292c0 -44 25 -45 38 -45h57v-28h-282v28h57c13 0 38 1 38 45v554c0 44 -25 45 -38 45h-57v28h282v-28h-57c-13 0 -38 -1 -38 -45v-234zM262 805l174 121c23 16 36 19 44 19
c25 0 49 -23 49 -52c0 -30 -21 -43 -54 -52l-204 -55z" />
    <glyph glyph-name="afii10060" unicode="&#x40b;" horiz-adv-x="867" 
d="M31 700h604v-156h-32v23c0 59 -109 105 -188 105c-15 0 -46 0 -46 -19v-288c109 60 186 70 238 70c128 0 137 -89 137 -145v-217c0 -44 25 -45 38 -45h57v-28h-275v28h50c15 0 38 3 38 45v233c0 15 -2 85 -100 85c-35 0 -92 -10 -183 -56v-262c0 -44 25 -45 38 -45h57
v-28h-283v28h57c13 0 39 3 39 45v580c0 19 -31 19 -46 19c-66 0 -168 -41 -168 -105v-23h-32v156z" />
    <glyph glyph-name="afii10145" unicode="&#x40f;" horiz-adv-x="773" 
d="M67 700h282v-28h-57c-13 0 -38 -1 -38 -45v-554c0 -44 25 -45 38 -45h238c13 0 38 1 38 45v554c0 44 -25 45 -38 45h-57v28h282v-28h-57c-13 0 -38 -1 -38 -45v-554c0 -44 25 -45 38 -45h57v-28h-329l32 -155c1 -7 3 -13 3 -20c0 -22 -15 -49 -50 -49s-50 27 -50 49
c0 7 2 13 3 20l32 155h-329v28h57c13 0 38 1 38 45v554c0 44 -25 45 -38 45h-57v28z" />
    <glyph glyph-name="afii10099" unicode="&#x452;" horiz-adv-x="541" 
d="M107 582h-97v28h97v89c0 19 -24 21 -63 21h-12v22c58 7 97 18 151 38v-170h188v-28h-188v-160c43 33 83 51 134 51c157 0 188 -187 188 -313c0 -129 -61 -384 -223 -384c-72 0 -108 34 -108 72c0 27 22 44 47 44c27 0 41 -25 41 -46c0 -13 -4 -17 -4 -26
c0 -8 10 -22 35 -22c63 0 125 97 125 339c0 246 -69 302 -135 302c-38 0 -77 -23 -100 -51v-342c0 -21 14 -24 36 -24h39v-22h-226v22h39c22 0 36 3 36 24v536z" />
    <glyph glyph-name="quoteleft" unicode="&#x2018;" horiz-adv-x="226" 
d="M155 714l16 -15c-31 -29 -65 -85 -65 -117c0 -87 61 -14 61 -87c0 -34 -29 -48 -54 -48c-34 0 -58 32 -58 76s18 111 100 191z" />
    <glyph glyph-name="quoteright" unicode="&#x2019;" horiz-adv-x="226" 
d="M71 447l-16 15c31 29 65 85 65 117c0 87 -61 14 -61 87c0 34 29 48 54 48c34 0 58 -32 58 -76s-18 -111 -100 -191z" />
    <glyph glyph-name="quotedblleft" unicode="&#x201c;" horiz-adv-x="398" 
d="M155 714l16 -15c-31 -29 -65 -85 -65 -117c0 -87 61 -14 61 -87c0 -34 -29 -48 -54 -48c-34 0 -58 32 -58 76s18 111 100 191zM327 714l16 -15c-31 -29 -65 -85 -65 -117c0 -87 61 -14 61 -87c0 -34 -29 -48 -54 -48c-34 0 -58 32 -58 76s18 111 100 191z" />
    <glyph glyph-name="quotedblright" unicode="&#x201d;" horiz-adv-x="398" 
d="M71 447l-16 15c31 29 65 85 65 117c0 87 -61 14 -61 87c0 34 29 48 54 48c34 0 58 -32 58 -76s-18 -111 -100 -191zM243 447l-16 15c31 29 65 85 65 117c0 87 -61 14 -61 87c0 34 29 48 54 48c34 0 58 -32 58 -76s-18 -111 -100 -191z" />
    <glyph glyph-name="bullet" unicode="&#x2022;" horiz-adv-x="600" 
d="M170 350c0 73 57 130 130 130s130 -57 130 -130s-57 -130 -130 -130s-130 57 -130 130z" />
    <glyph glyph-name="endash" unicode="&#x2013;" horiz-adv-x="640" 
d="M60 252v34h520v-34h-520z" />
    <glyph glyph-name="emdash" unicode="&#x2014;" horiz-adv-x="820" 
d="M760 286v-34h-700v34h700z" />
    <glyph glyph-name="yat'" horiz-adv-x="553" 
d="M22 462h156v177c0 19 -24 21 -63 21h-12v22c52 4 107 19 151 38v-258h186v-120h-25v20c0 31 -41 78 -97 78h-44c-12 0 -20 -8 -20 -18v-149c31 6 60 8 84 8c139 0 183 -72 183 -142c0 -72 -53 -139 -175 -139h-243v22h39c22 0 36 3 36 24v376c0 10 -8 18 -20 18h-14
c-56 0 -97 -47 -97 -78v-20h-25v120zM254 251v-214c17 -8 37 -15 60 -15c79 0 120 50 120 120c0 91 -62 116 -122 116c-17 0 -41 -4 -58 -7z" />
    <glyph glyph-name="trademark" unicode="&#x2122;" horiz-adv-x="850" 
d="M60 700h280v-87h-23v15c0 37 -59 50 -74 50c-11 0 -13 -7 -13 -15v-225c0 -14 10 -16 24 -16h25v-22h-158v22h26c13 0 23 2 23 16v225c0 8 -2 15 -13 15c-14 0 -73 -13 -73 -50v-15h-24v87zM494 700l93 -212l94 212h109v-22h-25c-13 0 -23 -2 -23 -16v-224
c0 -14 10 -16 23 -16h25v-22h-157v22h25c15 0 23 3 23 16v210l-109 -248h-12l-110 248v-139c0 -38 1 -87 30 -87h13v-22h-115v22h18c29 0 30 49 30 87v153c0 14 -10 16 -24 16h-23v22h115z" />
    <glyph glyph-name="afii10106" unicode="&#x459;" horiz-adv-x="744" 
d="M120 462h400v-22h-39c-22 0 -36 -3 -36 -24v-143c31 6 60 8 84 8c139 0 183 -72 183 -142c0 -92 -84 -139 -154 -139h-264v22h39c22 0 36 3 36 24v370c0 25 -15 24 -23 24h-26c-66 0 -66 17 -94 -175c-30 -203 -63 -276 -144 -276c-38 0 -70 19 -70 59c0 33 23 49 45 49
c23 0 43 -15 42 -43c0 -4 -1 -8 0 -12c2 -13 11 -15 17 -15c20 0 45 33 67 143c7 36 31 180 31 221c0 42 -21 49 -57 49h-37v22zM445 251v-214c17 -8 37 -15 60 -15c79 0 120 50 120 120c0 91 -62 116 -122 116c-17 0 -41 -4 -58 -7z" />
    <glyph glyph-name="quilsinglright" horiz-adv-x="440" 
d="M256 231l-196 215l15 16c100 -88 179 -151 305 -231c-126 -80 -205 -143 -305 -231l-15 16z" />
    <glyph glyph-name="afii10107" unicode="&#x45a;" horiz-adv-x="766" 
d="M391 247h-208v-201c0 -21 14 -24 36 -24h28v-22h-215v22h39c22 0 36 3 36 24v370c0 21 -14 24 -36 24h-39v22h215v-22h-28c-22 0 -36 -3 -36 -24v-147h208v147c0 21 -14 24 -36 24h-29v22h216v-22h-39c-22 0 -36 -3 -36 -24v-143c31 6 60 8 84 8c139 0 183 -72 183 -142
c0 -92 -84 -139 -154 -139h-254v22h29c22 0 36 3 36 24v201zM467 251v-214c17 -8 37 -15 60 -15c79 0 120 50 120 120c0 91 -62 116 -122 116c-17 0 -41 -4 -58 -7z" />
    <glyph glyph-name="afii10109" unicode="&#x45c;" horiz-adv-x="534" 
d="M32 462h226v-22h-39c-22 0 -36 -3 -36 -24v-157h39c48 0 70 34 102 106c34 77 68 108 117 108c34 0 59 -18 59 -48c0 -28 -18 -44 -37 -44c-16 0 -34 8 -40 27c-4 14 -4 30 -19 30c-26 0 -37 -61 -51 -98c-11 -31 -35 -80 -96 -92v-4c69 -7 116 -50 149 -113
c26 -51 33 -103 61 -103c8 0 22 6 23 35v8h22v-8c-1 -38 -22 -74 -67 -74c-77 0 -112 91 -154 181c-25 55 -48 67 -86 67h-22v-191c0 -21 14 -24 36 -24h39v-22h-226v22h39c22 0 36 3 36 24v370c0 21 -14 24 -36 24h-39v22zM211 554l72 190c5 14 16 34 44 34
c22 0 46 -19 46 -42c0 -8 -2 -20 -15 -36l-128 -157z" />
    <glyph glyph-name="afii10108" unicode="&#x45b;" horiz-adv-x="560" 
d="M107 582h-97v28h97v89c0 19 -24 21 -63 21h-12v22c58 7 97 18 151 38v-170h188v-28h-188v-160c47 33 91 51 140 51c141 0 140 -149 140 -173v-254c0 -21 14 -24 36 -24h39v-22h-226v22h39c22 0 36 3 36 24v263c0 96 -47 130 -102 130c-38 0 -78 -24 -102 -51v-342
c0 -21 14 -24 36 -24h39v-22h-226v22h39c22 0 36 3 36 24v536z" />
    <glyph glyph-name="afii10193" unicode="&#x45f;" horiz-adv-x="572" 
d="M32 462h217v-22h-30c-22 0 -36 -3 -36 -24v-370c0 -21 14 -24 36 -24h134c22 0 36 3 36 24v370c0 21 -14 24 -36 24h-30v22h217v-22h-39c-22 0 -36 -3 -36 -24v-370c0 -21 14 -24 36 -24h39v-22h-241l23 -130c1 -3 1 -7 1 -10c0 -14 -12 -31 -37 -31s-37 17 -37 31
c0 3 0 7 1 10l23 130h-241v22h39c22 0 36 3 36 24v370c0 21 -14 24 -36 24h-39v22z" />
    <glyph glyph-name="afii10062" unicode="&#x40e;" horiz-adv-x="777" 
d="M56 700h264v-28h-52c-21 0 -24 -20 -17 -33l201 -388c144 283 164 360 164 395c0 25 -20 26 -29 26h-51v28h217v-28h-32c-52 -30 -71 -88 -211 -376c-92 -188 -137 -310 -270 -310c-74 0 -111 48 -111 91c0 34 26 59 57 59c26 0 54 -17 54 -52c0 -23 -6 -17 -6 -39
c0 -9 10 -26 34 -26c13 0 72 2 132 132l-247 470c-8 16 -27 51 -76 51h-21v28zM428 726c-113 0 -174 66 -174 128c0 38 25 54 48 54c22 0 44 -15 44 -49c0 -18 -6 -26 -12 -37c-5 -9 -9 -17 -9 -24c0 -15 28 -46 103 -46s103 31 103 46c0 7 -4 15 -9 24c-6 11 -12 19 -12 37
c0 34 22 49 44 49c23 0 48 -16 48 -54c0 -62 -61 -128 -174 -128z" />
    <glyph glyph-name="afii10110" unicode="&#x45e;" horiz-adv-x="528" 
d="M14 462h206v-22h-34c-37 0 -24 -31 -22 -36l135 -321l42 116c53 148 59 190 59 210c0 10 -2 31 -31 31h-27v22h172v-22h-16c-48 0 -68 -95 -104 -185l-133 -336c-23 -59 -67 -143 -153 -143c-48 0 -81 30 -81 66c0 24 14 47 43 47c73 0 11 -77 71 -77c28 0 66 38 96 115
l25 65l-174 412c-6 15 -18 36 -54 36h-20v22zM287 535c-87 0 -148 57 -148 114c0 31 20 51 48 51c23 0 40 -19 40 -44c0 -47 -24 -33 -24 -58c0 -18 28 -41 84 -41s84 23 84 41c0 25 -24 11 -24 58c0 25 17 44 40 44c28 0 48 -20 48 -51c0 -57 -61 -114 -148 -114z" />
    <glyph glyph-name="afii10057" unicode="&#x408;" horiz-adv-x="430" 
d="M96 700h282v-28h-57c-13 0 -38 -1 -38 -45v-520c0 -257 -146 -331 -243 -331c-74 0 -120 41 -120 88c0 38 26 55 50 55c29 0 56 -16 56 -52c0 -8 -1 -15 -1 -23c0 -10 1 -40 41 -40c55 0 125 51 125 244v579c0 44 -25 45 -38 45h-57v28z" />
    <glyph glyph-name="currency" unicode="&#xa4;" horiz-adv-x="762" 
d="M664 660l28 -27l-100 -100c49 -56 69 -123 69 -183s-20 -127 -69 -183l100 -101l-28 -27l-100 100c-56 -49 -123 -69 -183 -69s-127 20 -183 69l-100 -100l-28 27l100 101c-49 56 -69 123 -69 183s20 127 69 183l-100 100l28 27l100 -99c56 49 123 69 183 69
s127 -20 183 -69zM141 350c0 -133 107 -240 240 -240s240 107 240 240s-107 240 -240 240s-240 -107 -240 -240z" />
    <glyph glyph-name="afii10050" unicode="&#x490;" horiz-adv-x="528" 
d="M67 700h210c73 0 219 31 219 96v22h32v-146h-236c-12 0 -38 -2 -38 -45v-554c0 -44 25 -45 38 -45h57v-28h-282v28h57c13 0 38 1 38 45v554c0 44 -25 45 -38 45h-57v28z" />
    <glyph glyph-name="brokenbar" unicode="&#xa6;" horiz-adv-x="152" 
d="M56 429v400h40v-400h-40zM56 -224v400h40v-400h-40z" />
    <glyph glyph-name="section" unicode="&#xa7;" horiz-adv-x="539" 
d="M248 499l147 -110c46 -35 88 -80 88 -151c0 -69 -43 -125 -108 -175c43 -40 47 -86 47 -107c0 -64 -49 -156 -150 -156c-86 0 -152 50 -152 111c0 40 29 53 48 53c31 0 51 -22 51 -43c0 -12 -2 -24 -2 -37c0 -36 18 -56 55 -56c61 0 86 56 86 96c0 49 -27 74 -48 91
l-171 133c-66 52 -83 110 -83 153c0 59 46 128 102 169c-34 45 -33 89 -33 96c0 58 50 148 171 148c68 0 134 -34 134 -85c0 -35 -23 -52 -48 -52c-16 0 -41 10 -47 45c-5 26 4 64 -58 64c-58 0 -88 -46 -88 -75c0 -58 45 -101 59 -112zM349 322l-173 131
c-44 -30 -66 -76 -66 -121c0 -53 36 -88 82 -123l166 -128c40 27 64 71 64 108c0 66 -41 109 -73 133z" />
    <glyph glyph-name="afii10023" unicode="&#x401;" horiz-adv-x="679" 
d="M67 700h532l12 -142h-32l-4 30c-4 34 -45 84 -248 84h-35c-28 0 -38 -18 -38 -45v-245h45c178 0 176 32 176 57v25h32v-192h-32v25c0 25 2 57 -176 57h-45v-281c0 -44 25 -45 38 -45h14c205 0 283 48 294 102l5 25h32l-33 -155h-537v28h57c13 0 38 1 38 45v554
c0 44 -25 45 -38 45h-57v28zM180 810c0 33 27 60 60 60s60 -27 60 -60s-27 -60 -60 -60s-60 27 -60 60zM410 810c0 33 27 60 60 60s60 -27 60 -60s-27 -60 -60 -60s-60 27 -60 60z" />
    <glyph glyph-name="copyright" unicode="&#xa9;" horiz-adv-x="800" 
d="M36 350c0 200 164 364 364 364s364 -164 364 -364s-164 -364 -364 -364s-364 164 -364 364zM76 350c0 -180 144 -324 324 -324s324 144 324 324s-144 324 -324 324s-324 -144 -324 -324zM521 560h22l8 -111h-22l-2 26c-18 48 -75 71 -120 71c-64 0 -140 -61 -140 -198
s78 -188 152 -188c52 0 101 26 132 99l22 -7c-29 -72 -80 -120 -173 -120c-139 0 -208 108 -208 217c0 106 69 219 217 219c35 0 72 -6 112 -25v17z" />
    <glyph glyph-name="afii10053" unicode="&#x404;" horiz-adv-x="739" 
d="M326 350h-147v-6c1 -260 164 -321 265 -321c125 0 196 99 231 176l25 -13c-69 -150 -174 -200 -288 -200c-228 0 -342 178 -342 359c0 185 120 369 358 369c49 0 122 -9 191 -43l-1 29h32l14 -185h-32l-2 20c-6 59 -75 151 -214 151c-153 0 -232 -169 -235 -308h145
c56 0 135 9 198 21v-70c-63 12 -142 21 -198 21z" />
    <glyph glyph-name="guillemotleft" unicode="&#xab;" 
d="M184 231l196 -215l-15 -16c-100 88 -179 151 -305 231c126 80 205 143 305 231l15 -16zM347 231l119 -151l-15 -14c-72 69 -107 101 -193 165c86 64 121 96 193 165l15 -14z" />
    <glyph glyph-name="logicalnot" unicode="&#xac;" horiz-adv-x="640" 
d="M60 380v40h520v-190h-40v150h-480z" />
    <glyph glyph-name="hyphen" unicode="-" horiz-adv-x="360" 
d="M300 299v-60h-240v60h240z" />
    <glyph glyph-name="hyphen" unicode="&#xad;" horiz-adv-x="360" 
d="M300 299v-60h-240v60h240z" />
    <glyph glyph-name="registered" unicode="&#xae;" horiz-adv-x="800" 
d="M36 350c0 200 164 364 364 364s364 -164 364 -364s-164 -364 -364 -364s-364 164 -364 364zM76 350c0 -180 144 -324 324 -324s324 144 324 324s-144 324 -324 324s-324 -144 -324 -324zM220 560h166c64 0 182 -3 182 -107c0 -78 -78 -112 -148 -111v-4
c85 -23 118 -89 140 -146c5 -12 14 -34 28 -34c2 0 3 0 5 1v-22c-8 -3 -16 -5 -24 -5c-70 0 -100 96 -120 137c-17 36 -44 68 -107 70v-150c0 -14 5 -27 23 -27h34v-22h-179v22h34c8 0 23 1 23 27v322c0 26 -15 27 -23 27h-34v22zM342 531v-170c23 -4 41 -4 49 -4
c89 0 105 57 105 96c0 33 -17 85 -104 85c-19 0 -34 -2 -50 -7z" />
    <glyph glyph-name="afii10056" unicode="&#x407;" horiz-adv-x="401" 
d="M162 73v554c0 44 -25 45 -38 45h-57v28h282v-28h-57c-13 0 -38 -1 -38 -45v-554c0 -44 25 -45 38 -45h57v-28h-282v28h57c13 0 38 1 38 45zM53 810c0 33 27 60 60 60s60 -27 60 -60s-27 -60 -60 -60s-60 27 -60 60zM243 810c0 33 27 60 60 60s60 -27 60 -60
s-27 -60 -60 -60s-60 27 -60 60z" />
    <glyph glyph-name="degree" unicode="&#xb0;" horiz-adv-x="332" 
d="M60 607c0 59 47 106 106 106s106 -47 106 -106s-47 -106 -106 -106s-106 47 -106 106zM96 607c0 -39 31 -70 70 -70s70 31 70 70s-31 70 -70 70s-70 -31 -70 -70z" />
    <glyph glyph-name="plusminus" unicode="&#xb1;" horiz-adv-x="640" 
d="M60 380v40h240v220h40v-220h240v-40h-240v-210h-40v210h-240zM60 50v40h520v-40h-520z" />
    <glyph glyph-name="Fita" horiz-adv-x="823" 
d="M70 350c0 186 123 364 350 364c243 0 350 -198 350 -364s-107 -364 -350 -364c-227 0 -350 178 -350 364zM180 338c41 41 87 91 157 91c30 0 53 -11 74 -20c11 -5 23 -10 34 -15c50 -22 80 -35 112 -35c23 0 52 6 101 46c-10 96 -61 281 -238 281
c-161 0 -257 -180 -240 -348zM660 374c-41 -50 -84 -86 -135 -86c-41 0 -79 20 -115 37c-51 24 -80 34 -107 34c-50 0 -94 -28 -121 -51c8 -112 65 -294 238 -294c199 0 241 232 241 336c0 8 0 16 -1 24z" />
    <glyph glyph-name="fita" horiz-adv-x="520" 
d="M36 231c0 119 67 242 224 242s224 -123 224 -242s-67 -242 -224 -242s-224 123 -224 242zM124 233c24 32 37 60 80 60c28 0 53 -13 95 -36c16 -9 34 -17 49 -17c8 0 23 5 48 25c-10 93 -36 186 -136 186c-52 0 -135 -29 -136 -218zM397 238c-27 -27 -42 -50 -76 -50
s-59 15 -83 31c-16 11 -33 22 -52 22c-24 0 -41 -14 -62 -35c8 -170 87 -195 136 -195c47 0 138 25 137 227z" />
    <glyph glyph-name="afii10098" unicode="&#x491;" horiz-adv-x="386" 
d="M32 462h152c131 0 165 52 165 91v9h25v-122h-168c-21 0 -23 -16 -23 -24v-370c0 -21 14 -24 36 -24h49v-22h-236v22h39c22 0 36 3 36 24v370c0 21 -14 24 -36 24h-39v22z" />
    <glyph glyph-name="mu" unicode="&#xb5;" horiz-adv-x="592" 
d="M403 462h76v-395c0 -18 3 -39 22 -39c16 0 30 17 37 39l22 -9c-4 -14 -25 -69 -86 -69c-54 0 -68 57 -64 95h-6c-16 -42 -55 -95 -124 -95c-75 0 -107 56 -118 90h-7c4 -193 30 -108 30 -254c0 -39 -30 -49 -53 -49c-21 0 -52 10 -52 49c0 13 1 25 3 38
c13 82 33 160 33 351v248h76v-326c0 -56 36 -89 89 -89c80 0 122 76 122 127v288z" />
    <glyph glyph-name="mu" unicode="&#x3bc;" horiz-adv-x="592" 
d="M403 462h76v-395c0 -18 3 -39 22 -39c16 0 30 17 37 39l22 -9c-4 -14 -25 -69 -86 -69c-54 0 -68 57 -64 95h-6c-16 -42 -55 -95 -124 -95c-75 0 -107 56 -118 90h-7c4 -193 30 -108 30 -254c0 -39 -30 -49 -53 -49c-21 0 -52 10 -52 49c0 13 1 25 3 38
c13 82 33 160 33 351v248h76v-326c0 -56 36 -89 89 -89c80 0 122 76 122 127v288z" />
    <glyph glyph-name="paragraph" unicode="&#xb6;" horiz-adv-x="584" 
d="M290 -214h-40v564c-37 0 -208 7 -208 170c0 57 21 180 220 180h280v-28h-112v-886h-40v886h-100v-886z" />
    <glyph glyph-name="periodcentered" unicode="&#xb7;" horiz-adv-x="228" 
d="M60 269c0 30 24 54 54 54s54 -24 54 -54s-24 -54 -54 -54s-54 24 -54 54z" />
    <glyph glyph-name="periodcentered" unicode="&#x2219;" horiz-adv-x="228" 
d="M60 269c0 30 24 54 54 54s54 -24 54 -54s-24 -54 -54 -54s-54 24 -54 54z" />
    <glyph glyph-name="afii10071" unicode="&#x451;" horiz-adv-x="457" 
d="M427 264h-303c-1 -12 -1 -25 -1 -37c0 -173 84 -202 143 -202c49 0 102 22 139 93l18 -10c-43 -80 -93 -119 -176 -119c-125 0 -211 94 -211 233c0 123 64 251 211 251c124 0 182 -106 180 -209zM124 286h221v14c0 124 -57 151 -100 151c-27 0 -108 -11 -121 -165z
M106 651c0 27 23 50 50 50s50 -23 50 -50s-23 -50 -50 -50s-50 23 -50 50zM266 651c0 27 23 50 50 50s50 -23 50 -50s-23 -50 -50 -50s-50 23 -50 50z" />
    <glyph glyph-name="numero" horiz-adv-x="1058" 
d="M76 700h163l374 -535v410c0 115 66 139 122 139c57 0 82 -39 82 -71c0 -38 -28 -50 -46 -50c-26 0 -49 20 -49 48c0 19 4 38 -22 38c-23 0 -53 -24 -53 -104v-589h-28l-379 542v-392c0 -128 -70 -150 -114 -150c-59 0 -98 41 -98 85c0 17 12 42 46 42c32 0 49 -24 48 -55
v-12c1 -11 9 -21 18 -23c3 -1 7 -1 10 0c51 9 56 84 56 135v416l-29 41c-18 25 -51 59 -101 57v28zM708 309c0 53 33 151 145 151c97 0 145 -77 145 -151c0 -73 -47 -151 -145 -151c-112 0 -145 99 -145 151zM780 309c0 -96 34 -129 73 -129c71 0 73 104 73 129
c0 66 -19 129 -73 129c-47 0 -73 -46 -73 -129zM973 0h-240v60h240v-60z" />
    <glyph glyph-name="afii10101" unicode="&#x454;" horiz-adv-x="476" 
d="M163 237h-40c2 -191 95 -215 149 -215c41 0 110 7 154 109l20 -10c-51 -116 -127 -132 -178 -132c-136 0 -232 92 -232 252c0 143 92 232 239 232c68 0 107 -17 129 -29l-1 18h25l4 -121h-25v12c0 47 -49 98 -132 98c-126 0 -152 -108 -152 -192h40c91 0 139 6 179 15
v-52c-40 9 -88 15 -179 15z" />
    <glyph glyph-name="guillemotright" unicode="&#xbb;" 
d="M342 231l-196 215l15 16c100 -88 179 -151 305 -231c-126 -80 -205 -143 -305 -231l-15 16zM179 231l-119 151l15 14c72 -69 107 -101 193 -165c-86 -64 -121 -96 -193 -165l-15 14z" />
    <glyph glyph-name="afii10105" unicode="&#x458;" horiz-adv-x="283" 
d="M107 -44v445c0 19 -24 21 -63 21h-12v22c16 1 64 5 151 38v-481c0 -143 -89 -225 -175 -225c-48 0 -76 35 -76 69c0 27 23 44 41 44c26 0 45 -17 45 -49c0 -5 -2 -9 -2 -14c0 -13 6 -24 20 -24c37 0 71 34 71 154zM95 611c0 27 23 50 50 50s50 -23 50 -50
s-23 -50 -50 -50s-50 23 -50 50z" />
    <glyph glyph-name="Izhitsa" horiz-adv-x="760" 
d="M21 700h248v-28h-41c-28 0 -33 -13 -33 -29c0 -8 4 -15 8 -24l197 -499l124 349c56 157 88 235 176 235c46 0 71 -27 71 -66s-26 -56 -50 -56c-23 0 -50 16 -50 46c0 5 1 9 1 14s-1 14 -10 14c-39 0 -83 -133 -105 -194l-170 -476h-29l-251 633c-10 26 -29 53 -76 53h-10
v28z" />
    <glyph glyph-name="izhitsa" horiz-adv-x="560" 
d="M12 462h217v-22h-35c-19 0 -43 -9 -30 -41l123 -297l45 129c44 125 76 241 174 241c46 0 62 -32 62 -59c0 -21 -11 -45 -37 -45c-23 0 -40 15 -40 39v12c-2 15 -13 17 -17 17c-47 0 -88 -129 -115 -205l-87 -242h-18l-170 410c-13 32 -29 41 -46 41h-26v22z" />
    <glyph glyph-name="afii10104" unicode="&#x457;" horiz-adv-x="291" 
d="M259 0h-227v22h39c40 0 36 16 36 24v355c0 12 -3 21 -63 21h-12v22c46 3 105 20 152 38v-436c0 -23 13 -24 35 -24h40v-22zM9 608c0 27 23 50 50 50s50 -23 50 -50s-23 -50 -50 -50s-50 23 -50 50zM163 608c0 27 23 50 50 50s50 -23 50 -50s-23 -50 -50 -50
s-50 23 -50 50z" />
    <glyph glyph-name="afii10017" unicode="&#x410;" horiz-adv-x="715" 
d="M460 273h-227l-23 -62c-29 -79 -42 -109 -42 -137c0 -27 13 -46 29 -46h40v-28h-203v28h19c25 0 62 23 144 245l163 441h32l225 -625c7 -20 19 -61 69 -61h22v-28h-256v28h40c21 0 40 3 40 29c0 19 -10 42 -22 76zM243 301h208l-104 288z" />
    <glyph glyph-name="afii10018" unicode="&#x411;" horiz-adv-x="701" 
d="M68 700h522l12 -142h-32l-4 30c-4 34 -45 84 -248 84h-15c-16 0 -48 1 -48 -46v-216c45 12 86 17 128 17c156 0 265 -78 265 -202c0 -99 -50 -225 -282 -225h-298v28h57c13 0 38 1 38 45v554c0 44 -25 45 -38 45h-57v28zM255 382v-324c33 -23 64 -30 110 -30
c141 0 183 108 183 199c0 174 -169 169 -200 169s-62 -5 -93 -14z" />
    <glyph glyph-name="afii10019" unicode="&#x412;" horiz-adv-x="710" 
d="M67 0v28h57c13 0 38 1 38 45v555c0 15 -3 44 -38 44h-57v28h321c77 0 239 -10 239 -166c0 -111 -103 -141 -160 -148v-4c70 -9 190 -53 190 -186c0 -102 -61 -196 -242 -196h-348zM254 398h116c20 0 161 -1 161 137c0 101 -73 137 -167 137c-45 0 -77 -7 -110 -22v-252z
M254 368v-310c39 -27 70 -30 110 -30c33 0 193 0 193 166c0 122 -79 174 -189 174h-114z" />
    <glyph glyph-name="afii10020" unicode="&#x413;" horiz-adv-x="558" 
d="M369 0h-302v28h57c5 0 38 -1 38 38v572c0 24 -22 34 -38 34h-57v28h479l12 -145h-32l-4 33c-5 41 -49 84 -204 84h-16c-16 0 -48 1 -48 -46v-560c0 -39 33 -38 38 -38h77v-28z" />
    <glyph glyph-name="afii10021" unicode="&#x414;" horiz-adv-x="738" 
d="M168 700h510v-28h-57c-13 0 -38 -1 -38 -45v-554c0 -44 25 -45 38 -45h57l8 -182h-32l-3 39c-5 63 -134 115 -248 115h-156c-84 0 -188 -41 -194 -118l-3 -36h-32l13 182c78 10 116 74 161 214c45 139 79 314 79 367c0 57 -32 63 -62 63h-41v28zM209 28h244
c13 0 38 1 38 45v554c0 44 -26 45 -37 45h-90c-89 0 -51 -137 -128 -400c-42 -145 -71 -183 -71 -212c0 -30 25 -32 44 -32z" />
    <glyph glyph-name="afii10022" unicode="&#x415;" horiz-adv-x="679" 
d="M67 700h532l12 -142h-32l-4 30c-4 34 -45 84 -248 84h-35c-28 0 -38 -18 -38 -45v-245h45c178 0 176 32 176 57v25h32v-192h-32v25c0 25 2 57 -176 57h-45v-281c0 -44 25 -45 38 -45h14c205 0 283 48 294 102l5 25h32l-33 -155h-537v28h57c13 0 38 1 38 45v554
c0 44 -25 45 -38 45h-57v28z" />
    <glyph glyph-name="afii10024" unicode="&#x416;" horiz-adv-x="1046" 
d="M664 0h-282v28h57c13 0 38 1 38 45v292h-20c-86 0 -113 -85 -165 -191c-50 -104 -91 -188 -175 -188c-40 0 -78 20 -83 87h27c2 -34 16 -44 29 -44c31 0 45 50 60 88c42 108 101 237 248 259v5c-72 15 -111 75 -157 199c-11 29 -34 95 -62 95c-9 0 -10 -9 -10 -14
s1 -9 1 -14c0 -26 -18 -49 -48 -49c-27 0 -52 19 -52 53c0 36 26 63 71 63c73 0 114 -63 161 -160c65 -132 94 -161 155 -161h20v234c0 44 -25 45 -38 45h-57v28h282v-28h-57c-13 0 -38 -1 -38 -45v-234h20c61 0 90 29 155 161c47 97 88 160 161 160c45 0 71 -27 71 -63
c0 -34 -25 -53 -52 -53c-30 0 -48 23 -48 49c0 5 1 9 1 14s-1 14 -10 14c-28 0 -51 -66 -62 -95c-46 -124 -85 -184 -157 -199v-5c147 -22 206 -151 248 -259c15 -38 29 -88 60 -88c13 0 27 10 29 44h27c-5 -67 -43 -87 -83 -87c-84 0 -125 84 -175 188
c-52 106 -79 191 -165 191h-20v-292c0 -44 25 -45 38 -45h57v-28z" />
    <glyph glyph-name="afii10025" unicode="&#x417;" horiz-adv-x="650" 
d="M238 357v49c29 -5 52 -6 83 -6c47 0 160 8 160 151c0 84 -54 135 -138 135c-115 0 -199 -72 -203 -140l-1 -19h-32l12 173h32l-2 -32c77 41 158 46 195 46c161 0 233 -86 233 -176c0 -95 -76 -147 -156 -155v-4c104 -8 176 -80 176 -179c0 -107 -82 -214 -274 -214
c-181 0 -256 88 -256 147c0 35 22 63 59 63c41 0 53 -33 53 -56c0 -17 -10 -33 -10 -49c0 -37 48 -77 142 -77c130 0 186 92 186 191c0 101 -62 167 -170 167c-27 0 -58 -4 -89 -15z" />
    <glyph glyph-name="afii10026" unicode="&#x418;" horiz-adv-x="848" 
d="M67 700h282v-28h-57c-13 0 -38 -1 -38 -45v-501l355 499v14c0 22 -21 33 -38 33h-57v28h282v-28h-57c-13 0 -38 -1 -38 -45v-554c0 -44 25 -45 38 -45h57v-28h-282v28h57c13 0 38 1 38 45v504l-355 -501v-15c0 -7 4 -33 38 -33h57v-28h-282v28h57c13 0 38 1 38 45v554
c0 44 -25 45 -38 45h-57v28z" />
    <glyph glyph-name="afii10027" unicode="&#x419;" horiz-adv-x="848" 
d="M67 700h282v-28h-57c-13 0 -38 -1 -38 -45v-501l355 499v14c0 22 -21 33 -38 33h-57v28h282v-28h-57c-13 0 -38 -1 -38 -45v-554c0 -44 25 -45 38 -45h57v-28h-282v28h57c13 0 38 1 38 45v504l-355 -501v-15c0 -7 4 -33 38 -33h57v-28h-282v28h57c13 0 38 1 38 45v554
c0 44 -25 45 -38 45h-57v28zM432 726c-113 0 -174 66 -174 128c0 38 25 54 48 54c22 0 44 -15 44 -49c0 -18 -6 -26 -12 -37c-5 -9 -9 -17 -9 -24c0 -15 28 -46 103 -46s103 31 103 46c0 7 -4 15 -9 24c-6 11 -12 19 -12 37c0 34 22 49 44 49c23 0 48 -16 48 -54
c0 -62 -61 -128 -174 -128z" />
    <glyph glyph-name="afii10028" unicode="&#x41a;" horiz-adv-x="741" 
d="M254 393h40c55 0 84 12 160 161c39 77 81 160 166 160c45 0 71 -27 71 -63c0 -34 -25 -53 -52 -53c-30 0 -48 23 -48 49c0 5 1 9 1 14s-1 14 -10 14c-28 0 -50 -59 -63 -95c-45 -125 -93 -181 -161 -200v-5c147 -20 205 -151 251 -258c20 -45 33 -88 62 -88
c20 0 28 27 29 44h27c-5 -58 -34 -87 -83 -87c-89 0 -126 85 -180 188c-52 100 -79 191 -170 191h-40v-292c0 -44 25 -45 38 -45h57v-28h-282v28h57c13 0 38 1 38 45v554c0 44 -25 45 -38 45h-57v28h282v-28h-57c-13 0 -38 -1 -38 -45v-234z" />
    <glyph glyph-name="afii10029" unicode="&#x41b;" horiz-adv-x="766" 
d="M183 700h531v-28h-57c-13 0 -38 -1 -38 -45v-554c0 -44 25 -45 38 -45h57v-28h-282v28h57c13 0 38 1 38 45v554c0 44 -25 45 -38 45h-57c-116 0 -79 -9 -126 -290c-49 -292 -103 -396 -195 -396c-50 0 -97 28 -97 81c0 38 24 62 55 62c40 0 54 -30 54 -51
c0 -5 -1 -10 -2 -15c-1 -4 -2 -9 -2 -13c0 -13 9 -21 18 -21c21 0 51 23 89 139c36 112 75 373 75 441c0 35 -15 63 -52 63h-66v28z" />
    <glyph glyph-name="afii10030" unicode="&#x41c;" horiz-adv-x="979" 
d="M67 700h202l237 -563l239 563h182v-28h-57c-13 0 -38 -1 -38 -45v-554c0 -44 25 -45 38 -45h57v-28h-282v28h57c13 0 38 1 38 45v538l-257 -611h-26l-267 631v-333c0 -131 5 -270 70 -270h23v-28h-216v28h19c65 0 70 139 70 270v324c0 49 -22 50 -38 50h-51v28z" />
    <glyph glyph-name="afii10031" unicode="&#x41d;" horiz-adv-x="846" 
d="M254 379h353v248c0 44 -25 45 -38 45h-57v28h282v-28h-57c-13 0 -38 -1 -38 -45v-554c0 -44 25 -45 38 -45h57v-28h-282v28h57c13 0 38 1 38 45v278h-353v-278c0 -44 25 -45 38 -45h57v-28h-282v28h57c13 0 38 1 38 45v554c0 44 -25 45 -38 45h-57v28h282v-28h-57
c-13 0 -38 -1 -38 -45v-248z" />
    <glyph glyph-name="afii10032" unicode="&#x41e;" horiz-adv-x="823" 
d="M70 350c0 186 123 364 350 364c243 0 350 -198 350 -364s-107 -364 -350 -364c-227 0 -350 178 -350 364zM179 350c0 -153 67 -336 241 -336s241 183 241 336s-67 336 -241 336s-241 -183 -241 -336z" />
    <glyph glyph-name="afii10033" unicode="&#x41f;" horiz-adv-x="807" 
d="M67 700h688v-28h-57c-13 0 -38 -1 -38 -45v-554c0 -44 25 -45 38 -45h57v-28h-282v28h57c13 0 38 1 38 45v554c0 44 -25 45 -38 45h-238c-13 0 -38 -1 -38 -45v-554c0 -44 25 -45 38 -45h57v-28h-282v28h57c13 0 38 1 38 45v554c0 44 -25 45 -38 45h-57v28z" />
    <glyph glyph-name="afii10034" unicode="&#x420;" horiz-adv-x="673" 
d="M67 700h256c262 0 311 -117 311 -214c0 -138 -120 -212 -288 -212c-32 0 -60 3 -91 8v-209c0 -44 25 -45 38 -45h77v-28h-302v28h57c13 0 38 1 38 45v554c0 44 -25 45 -38 45h-58v28zM255 650v-338c12 -3 40 -9 73 -9c91 0 206 43 206 183c0 93 -46 186 -182 186
c-42 0 -72 -9 -97 -22z" />
    <glyph glyph-name="afii10035" unicode="&#x421;" horiz-adv-x="744" 
d="M623 700h32l14 -191h-32l-2 24c-6 74 -91 153 -214 153c-177 0 -242 -183 -242 -345c0 -221 133 -318 270 -318c95 0 173 56 231 176l25 -13c-69 -150 -174 -200 -288 -200c-182 0 -347 125 -347 356c0 191 120 372 351 372c87 0 148 -15 203 -49z" />
    <glyph glyph-name="afii10036" unicode="&#x422;" horiz-adv-x="682" 
d="M38 700h620v-156h-32v23c0 55 -100 105 -186 105c-15 0 -46 0 -46 -19v-580c0 -44 25 -45 38 -45h57v-28h-282v28h57c13 0 38 1 38 45v580c0 19 -31 19 -46 19c-86 0 -186 -50 -186 -105v-23h-32v156z" />
    <glyph glyph-name="afii10037" unicode="&#x423;" horiz-adv-x="777" 
d="M56 700h264v-28h-52c-21 0 -24 -20 -17 -33l201 -388c144 283 164 360 164 395c0 25 -20 26 -29 26h-51v28h217v-28h-32c-52 -30 -71 -88 -211 -376c-92 -188 -137 -310 -270 -310c-74 0 -111 48 -111 91c0 34 26 59 57 59c26 0 54 -17 54 -52c0 -23 -6 -17 -6 -39
c0 -9 10 -26 34 -26c13 0 72 2 132 132l-247 470c-8 16 -27 51 -76 51h-21v28z" />
    <glyph glyph-name="afii10038" unicode="&#x424;" horiz-adv-x="965" 
d="M350 740h282v-28h-57c-13 0 -38 -1 -38 -45v-24c302 25 375 -147 375 -275c0 -117 -66 -296 -375 -271v-24c0 -44 25 -45 38 -45h57v-28h-282v28h57c13 0 38 1 38 45v24c-14 -1 -27 -2 -41 -2c-272 0 -334 162 -334 273c0 110 55 277 315 277c20 0 40 0 60 -2v24
c0 44 -25 45 -38 45h-57v28zM445 125v490c-11 1 -23 2 -34 2c-113 0 -232 -60 -232 -248c0 -141 80 -246 223 -246c14 0 29 0 43 2zM537 615v-490c132 -16 266 56 266 244c0 223 -167 258 -266 246z" />
    <glyph glyph-name="afii10039" unicode="&#x425;" horiz-adv-x="762" 
d="M56 700h276v-28h-63c-15 0 -20 -11 -20 -17c0 -9 8 -19 17 -33l138 -210c70 89 154 207 154 239c0 22 -26 21 -37 21h-48v28h248v-28h-22c-65 0 -132 -97 -277 -287l166 -249c46 -69 76 -113 140 -108v-28h-273v28h57c11 0 19 8 21 15c1 4 1 7 0 11c-2 7 -7 12 -12 20
l-157 235c-157 -206 -173 -246 -173 -261c0 -20 15 -20 24 -20h54v-28h-221v28c85 20 132 95 298 307l-167 252c-37 55 -68 84 -123 85v28z" />
    <glyph glyph-name="afii10040" unicode="&#x426;" horiz-adv-x="807" 
d="M67 700h282v-28h-57c-13 0 -38 -1 -38 -45v-554c0 -44 25 -45 38 -45h238c15 0 38 3 38 45v554c0 44 -25 45 -38 45h-57v28h282v-28h-57c-13 0 -38 -1 -38 -45v-539c0 -22 2 -60 68 -60h61v-182h-32v39c0 86 -157 115 -225 115h-465v28h57c13 0 38 1 38 45v554
c0 44 -25 45 -38 45h-57v28z" />
    <glyph glyph-name="afii10041" unicode="&#x427;" horiz-adv-x="756" 
d="M34 700h282v-28h-57c-13 0 -38 -1 -38 -45v-203c0 -64 27 -102 113 -102c55 0 131 12 183 33v272c0 44 -25 45 -38 45h-57v28h282v-28h-57c-13 0 -38 -1 -38 -45v-554c0 -44 25 -45 38 -45h57v-28h-302v28h77c13 0 38 1 38 45v254c-66 -28 -127 -42 -198 -42
c-178 0 -190 105 -190 146v196c0 44 -25 45 -38 45h-57v28z" />
    <glyph glyph-name="afii10042" unicode="&#x428;" horiz-adv-x="1137" 
d="M67 700h275v-28h-50c-13 0 -38 -1 -38 -45v-554c0 -44 25 -45 38 -45h200c13 0 38 1 38 45v554c0 44 -25 45 -38 45h-50v28h268v-28h-50c-13 0 -38 -1 -38 -45v-554c0 -44 25 -45 38 -45h200c13 0 38 1 38 45v554c0 44 -25 45 -38 45h-50v28h275v-28h-57
c-13 0 -38 -1 -38 -45v-554c0 -44 25 -45 38 -45h57v-28h-1018v28h57c13 0 38 1 38 45v554c0 44 -25 45 -38 45h-57v28z" />
    <glyph glyph-name="afii10043" unicode="&#x429;" horiz-adv-x="1137" 
d="M810 700h275v-28h-57c-13 0 -38 -1 -38 -45v-539c0 -22 2 -60 68 -60h61v-182h-32v44c0 60 -110 110 -225 110h-795v28h57c13 0 38 1 38 45v554c0 44 -25 45 -38 45h-57v28h275v-28h-50c-13 0 -38 -1 -38 -45v-554c0 -44 25 -45 38 -45h200c13 0 38 1 38 45v554
c0 44 -25 45 -38 45h-50v28h268v-28h-50c-13 0 -38 -1 -38 -45v-554c0 -44 25 -45 38 -45h200c13 0 38 1 38 45v554c0 44 -25 45 -38 45h-50v28z" />
    <glyph glyph-name="afii10044" unicode="&#x42a;" horiz-adv-x="780" 
d="M23 700h420v-28h-57c-13 0 -38 -1 -38 -45v-214c35 7 69 10 104 10c222 0 283 -116 283 -218c0 -195 -192 -205 -276 -205h-298v28h57c13 0 38 1 38 45v566c0 28 -16 33 -59 33c-76 0 -148 -48 -150 -101l-1 -22h-32zM348 385v-334c37 -16 71 -23 99 -23
c99 0 188 53 188 186c0 173 -150 179 -199 179c-33 0 -60 -3 -88 -8z" />
    <glyph glyph-name="afii10045" unicode="&#x42b;" horiz-adv-x="1011" 
d="M254 627v-214c35 7 69 10 104 10c222 0 283 -116 283 -218c0 -195 -192 -205 -276 -205h-298v28h57c13 0 38 1 38 45v554c0 44 -25 45 -38 45h-57v28h282v-28h-57c-13 0 -38 -1 -38 -45zM254 385v-334c37 -16 71 -23 99 -23c99 0 188 53 188 186c0 173 -150 179 -199 179
c-33 0 -60 -3 -88 -8zM772 73v554c0 44 -25 45 -38 45h-57v28h282v-28h-57c-13 0 -38 -1 -38 -45v-554c0 -44 25 -45 38 -45h57v-28h-282v28h57c13 0 38 1 38 45z" />
    <glyph glyph-name="afii10046" unicode="&#x42c;" horiz-adv-x="686" 
d="M254 627v-214c35 7 69 10 104 10c222 0 283 -116 283 -218c0 -195 -192 -205 -276 -205h-298v28h57c13 0 38 1 38 45v554c0 44 -25 45 -38 45h-57v28h282v-28h-57c-13 0 -38 -1 -38 -45zM254 385v-334c37 -16 71 -23 99 -23c99 0 188 53 188 186c0 173 -150 179 -199 179
c-33 0 -60 -3 -88 -8z" />
    <glyph glyph-name="afii10047" unicode="&#x42d;" horiz-adv-x="732" 
d="M418 378h152c4 108 -28 308 -213 308c-96 0 -204 -56 -212 -139l-2 -21h-38l12 174h39l-2 -25c65 29 125 39 187 39c232 0 338 -156 338 -341c0 -232 -152 -387 -365 -387c-160 0 -247 72 -247 144c0 44 27 67 59 67c30 0 56 -21 56 -59c0 -10 -4 -20 -8 -30
c-4 -9 -9 -17 -9 -26c0 -31 52 -68 147 -68c188 0 263 179 258 336h-152c-53 0 -133 -8 -198 -22v72c65 -14 145 -22 198 -22z" />
    <glyph glyph-name="afii10048" unicode="&#x42e;" horiz-adv-x="1113" 
d="M254 380h107c13 191 150 334 350 334c244 0 350 -198 350 -362c0 -168 -107 -366 -350 -366c-89 0 -159 25 -215 69c-90 71 -136 188 -135 297h-107v-279c0 -44 25 -45 38 -45h57v-28h-282v28h57c13 0 38 1 38 45v554c0 44 -25 45 -38 45h-57v28h282v-28h-57
c-13 0 -38 -1 -38 -45v-247zM470 352c0 -155 67 -338 241 -338s241 183 241 338c0 132 -57 334 -241 334s-241 -202 -241 -334z" />
    <glyph glyph-name="afii10049" unicode="&#x42f;" horiz-adv-x="736" 
d="M497 73v267c-127 -3 -173 -77 -194 -120c-38 -76 -90 -234 -199 -234c-51 0 -83 34 -83 79v15h27c-2 -22 4 -49 26 -49c28 0 45 37 52 52c64 134 117 224 240 251v6c-133 -8 -261 57 -261 181c0 173 188 179 295 179h284v-28h-57c-13 0 -38 -1 -38 -45v-554
c0 -44 25 -45 38 -45h57v-28h-282v28h57c13 0 38 1 38 45zM497 368v290c-22 6 -69 13 -126 13c-125 0 -170 -82 -170 -158c0 -83 54 -150 215 -150c29 0 52 1 81 5z" />
    <glyph glyph-name="afii10065" unicode="&#x430;" horiz-adv-x="468" 
d="M305 276v52c0 42 1 123 -110 123c-45 0 -58 -17 -58 -31c0 -5 1 -11 2 -16c1 -7 3 -14 3 -21c0 -29 -20 -44 -45 -44c-27 0 -43 21 -43 48c0 43 44 86 138 86c185 0 189 -111 189 -145v-261c0 -18 3 -39 22 -39c16 0 30 17 37 39l22 -9c-9 -26 -31 -69 -86 -69
c-56 0 -71 50 -71 87c-43 -52 -96 -87 -167 -87c-73 0 -106 49 -106 99c0 124 151 165 273 188zM305 105v149c-152 -29 -186 -89 -186 -150c0 -44 21 -76 62 -76c46 0 91 39 124 77z" />
    <glyph glyph-name="afii10066" unicode="&#x431;" horiz-adv-x="524" 
d="M69 312h11c15 61 61 161 182 161c133 0 226 -101 226 -242c0 -23 -5 -242 -226 -242c-211 0 -226 196 -226 242c0 138 34 327 141 416c145 121 251 71 248 133h20c14 -105 -92 -136 -163 -163c-97 -36 -203 -79 -213 -305zM264 11c133 0 137 169 137 220s-4 220 -137 220
c-135 0 -141 -167 -141 -220c0 -54 4 -220 141 -220z" />
    <glyph glyph-name="afii10067" unicode="&#x432;" horiz-adv-x="508" 
d="M32 0v22h39c22 0 36 3 36 24v370c0 21 -14 24 -36 24h-39v22h258c130 0 157 -65 157 -113c0 -75 -78 -95 -112 -99v-4c44 -4 131 -29 131 -115c0 -43 -22 -131 -189 -131h-245zM183 260h78c63 0 106 32 106 92c0 88 -93 88 -119 88s-44 -4 -65 -12v-168zM183 238v-201
c20 -10 40 -15 65 -15c69 0 131 29 131 108c0 99 -84 108 -122 108h-74z" />
    <glyph glyph-name="afii10068" unicode="&#x433;" horiz-adv-x="416" 
d="M32 0v22h39c22 0 36 3 36 24v370c0 21 -14 24 -36 24h-39v22h372v-123h-25v9c0 28 -16 92 -161 92h-12c-7 0 -23 1 -23 -24v-370c0 -21 14 -24 36 -24h49v-22h-236z" />
    <glyph glyph-name="afii10069" unicode="&#x434;" horiz-adv-x="525" 
d="M94 462h395v-22h-39c-22 0 -36 -3 -36 -24v-368c0 -20 9 -26 36 -26h44v-144h-25v31c0 50 -92 91 -180 91h-105c-107 0 -145 -55 -145 -91v-31h-25v144h21c79 0 148 297 148 373c0 44 -37 45 -56 45h-33v22zM338 51v360c0 16 -4 29 -38 29h-30c-48 0 -49 -13 -66 -105
c-43 -241 -77 -224 -77 -283c0 -32 37 -30 52 -30h126c35 0 33 20 33 29z" />
    <glyph glyph-name="afii10070" unicode="&#x435;" horiz-adv-x="457" 
d="M427 264h-303c-1 -12 -1 -25 -1 -37c0 -173 84 -202 143 -202c49 0 102 22 139 93l18 -10c-43 -80 -93 -119 -176 -119c-125 0 -211 94 -211 233c0 123 64 251 211 251c124 0 182 -106 180 -209zM124 286h221v14c0 124 -57 151 -100 151c-27 0 -108 -11 -121 -165z" />
    <glyph glyph-name="afii10072" unicode="&#x436;" horiz-adv-x="744" 
d="M259 462h226v-22h-39c-17 0 -36 0 -36 -24v-157h22c42 0 63 27 98 106c28 65 54 108 111 108c41 0 59 -26 59 -48c0 -23 -14 -44 -37 -44c-13 0 -35 4 -42 35c-2 8 -5 22 -17 22c-24 0 -35 -60 -48 -98c-11 -30 -31 -80 -89 -92v-4c69 -7 116 -50 149 -113
c26 -51 33 -103 61 -103c10 0 25 9 23 43h22c1 -41 -19 -82 -67 -82c-84 0 -117 118 -149 181c-31 61 -61 67 -91 67h-5v-191c0 -24 19 -24 36 -24h39v-22h-226v22h39c17 0 36 0 36 24v191h-5c-30 0 -60 -6 -91 -67c-32 -63 -65 -181 -149 -181c-48 0 -68 41 -67 82h22
c-2 -34 13 -43 23 -43c28 0 35 52 61 103c33 63 80 106 149 113v4c-58 12 -78 62 -89 92c-13 38 -24 98 -48 98c-12 0 -15 -14 -17 -22c-7 -31 -29 -35 -42 -35c-23 0 -37 21 -37 44c0 22 18 48 59 48c57 0 83 -43 111 -108c35 -79 56 -106 98 -106h22v157
c0 24 -19 24 -36 24h-39v22z" />
    <glyph glyph-name="afii10073" unicode="&#x437;" horiz-adv-x="437" 
d="M55 462h25l-2 -23c44 23 86 34 139 34c123 0 164 -60 164 -110c0 -61 -54 -99 -117 -103v-7c49 0 131 -25 131 -122c0 -129 -151 -142 -204 -142c-128 0 -169 59 -169 95c0 28 12 55 43 55c24 0 45 -17 45 -47c0 -7 -1 -13 -3 -20s-6 -13 -6 -20c0 -19 28 -41 91 -41
c78 0 116 59 116 123c0 41 -16 110 -115 110c-22 0 -37 -3 -53 -8v38c20 -4 36 -6 56 -6c31 0 105 2 105 93c0 45 -24 90 -91 90c-65 0 -132 -43 -139 -99l-2 -16h-25z" />
    <glyph glyph-name="afii10074" unicode="&#x438;" horiz-adv-x="584" 
d="M32 0v22h39c22 0 36 3 36 24v370c0 21 -14 24 -36 24h-39v22h216v-22h-29c-22 0 -36 -3 -36 -24v-302l218 276v26c0 21 -14 24 -36 24h-29v22h216v-22h-39c-22 0 -36 -3 -36 -24v-370c0 -21 14 -24 36 -24h39v-22h-216v22h29c22 0 36 3 36 24v309l-218 -278v-31
c0 -22 14 -24 36 -24h29v-22h-216z" />
    <glyph glyph-name="afii10075" unicode="&#x439;" horiz-adv-x="584" 
d="M32 0v22h39c22 0 36 3 36 24v370c0 21 -14 24 -36 24h-39v22h216v-22h-29c-22 0 -36 -3 -36 -24v-302l218 276v26c0 21 -14 24 -36 24h-29v22h216v-22h-39c-22 0 -36 -3 -36 -24v-370c0 -21 14 -24 36 -24h39v-22h-216v22h29c22 0 36 3 36 24v309l-218 -278v-31
c0 -22 14 -24 36 -24h29v-22h-216zM292 535c-87 0 -148 57 -148 114c0 31 20 51 48 51c23 0 40 -19 40 -44c0 -47 -24 -33 -24 -58c0 -18 28 -41 84 -41s84 23 84 41c0 25 -24 11 -24 58c0 25 17 44 40 44c28 0 48 -20 48 -51c0 -57 -61 -114 -148 -114z" />
    <glyph glyph-name="afii10076" unicode="&#x43a;" horiz-adv-x="534" 
d="M32 462h226v-22h-39c-22 0 -36 -3 -36 -24v-157h39c48 0 70 34 102 106c34 77 68 108 117 108c34 0 59 -18 59 -48c0 -28 -18 -44 -37 -44c-13 0 -35 4 -42 35c-2 8 -5 22 -17 22c-19 0 -31 -35 -38 -58c-16 -51 -34 -117 -109 -132v-4c69 -7 116 -50 149 -113
c26 -51 33 -103 61 -103c10 0 25 9 23 43h22c1 -41 -19 -82 -67 -82c-61 0 -94 61 -119 115c-50 108 -62 133 -121 133h-22v-191c0 -21 14 -24 36 -24h39v-22h-226v22h39c22 0 36 3 36 24v370c0 21 -14 24 -36 24h-39v22z" />
    <glyph glyph-name="afii10077" unicode="&#x43b;" horiz-adv-x="552" 
d="M294 0v22h39c22 0 36 3 36 24v370c0 25 -15 24 -23 24h-26c-65 0 -66 17 -94 -175c-25 -173 -52 -276 -144 -276c-38 0 -70 19 -70 59c0 33 23 49 45 49c23 0 43 -15 42 -43c0 -4 -1 -8 0 -12c2 -13 11 -15 17 -15c20 0 45 33 67 143c7 36 31 180 31 221
c0 42 -21 49 -57 49h-37v22h400v-22h-39c-22 0 -36 -3 -36 -24v-370c0 -21 14 -24 36 -24h39v-22h-226z" />
    <glyph glyph-name="afii10078" unicode="&#x43c;" horiz-adv-x="666" 
d="M31 462h159l148 -348l146 348h151v-22h-39c-22 0 -36 -3 -36 -24v-370c0 -21 14 -24 36 -24h39v-22h-226v22h39c22 0 36 3 36 24v357l-167 -403h-19l-172 403v-235c0 -114 27 -146 50 -146h16v-22h-161v22h20c23 0 50 32 50 146v248c0 21 -14 24 -37 24h-33v22z" />
    <glyph glyph-name="afii10079" unicode="&#x43d;" horiz-adv-x="574" 
d="M391 247h-208v-201c0 -21 14 -24 36 -24h28v-22h-215v22h39c22 0 36 3 36 24v370c0 21 -14 24 -36 24h-39v22h215v-22h-28c-22 0 -36 -3 -36 -24v-147h208v147c0 21 -14 24 -36 24h-29v22h216v-22h-39c-22 0 -36 -3 -36 -24v-370c0 -21 14 -24 36 -24h39v-22h-216v22h29
c22 0 36 3 36 24v201z" />
    <glyph glyph-name="afii10080" unicode="&#x43e;" horiz-adv-x="520" 
d="M36 231c0 119 67 242 224 242s224 -123 224 -242s-67 -242 -224 -242s-224 123 -224 242zM123 231c0 -192 88 -220 137 -220s137 28 137 220s-88 220 -137 220s-137 -28 -137 -220z" />
    <glyph glyph-name="afii10081" unicode="&#x43f;" horiz-adv-x="571" 
d="M32 462h507v-22h-39c-22 0 -36 -3 -36 -24v-370c0 -21 14 -24 36 -24h39v-22h-216v22h29c22 0 36 3 36 24v370c0 21 -14 24 -36 24h-133c-22 0 -36 -3 -36 -24v-370c0 -21 14 -24 36 -24h29v-22h-216v22h39c22 0 36 3 36 24v370c0 21 -14 24 -36 24h-39v22z" />
    <glyph glyph-name="afii10082" unicode="&#x440;" horiz-adv-x="538" 
d="M248 -214h-226v22h39c22 0 36 3 36 24v569c0 19 -24 21 -63 21h-12v22c16 1 64 5 151 38v-56c30 23 72 47 124 47c120 0 205 -97 205 -241c0 -137 -86 -243 -211 -243c-63 0 -98 15 -118 29v-186c0 -21 14 -24 36 -24h39v-22zM173 400v-319c0 -22 29 -70 107 -70
c76 0 135 83 135 219c0 102 -34 209 -145 209c-35 0 -71 -10 -97 -39z" />
    <glyph glyph-name="afii10083" unicode="&#x441;" horiz-adv-x="460" 
d="M410 136l20 -5c-16 -55 -66 -142 -187 -142c-120 0 -207 89 -207 236c0 127 77 248 231 248c83 0 139 -35 139 -86c0 -33 -23 -52 -48 -52c-18 0 -46 13 -46 44c0 14 5 29 5 37c0 16 -17 35 -55 35c-103 0 -139 -124 -139 -226c0 -123 58 -203 147 -203
c84 0 126 67 140 114z" />
    <glyph glyph-name="afii10084" unicode="&#x442;" horiz-adv-x="466" 
d="M28 462h410v-122h-25v24c0 48 -75 76 -114 76c-25 0 -28 -14 -28 -23v-371c0 -21 14 -24 36 -24h39v-22h-226v22h39c22 0 36 3 36 24v371c0 9 -3 23 -28 23c-39 0 -114 -28 -114 -76v-24h-25v122z" />
    <glyph glyph-name="afii10085" unicode="&#x443;" horiz-adv-x="528" 
d="M514 462v-22h-15c-44 0 -60 -71 -105 -185l-133 -336c-23 -59 -67 -143 -153 -143c-48 0 -81 30 -81 66c0 24 14 47 43 47c73 0 11 -77 71 -77c28 0 66 38 96 115l25 65l-174 412c-6 15 -18 36 -54 36h-20v22h206v-22h-34c-37 0 -24 -31 -22 -36l135 -321l42 116
c53 148 59 190 59 210c0 10 -2 31 -31 31h-27v22h172z" />
    <glyph glyph-name="afii10086" unicode="&#x444;" horiz-adv-x="732" 
d="M479 -214h-226v22h39c22 0 36 3 36 24v184c-26 -19 -53 -27 -91 -27c-103 0 -201 85 -201 251c0 130 71 233 202 233c29 0 59 -3 90 -27v193c0 19 -24 21 -63 21h-12v22c16 1 64 5 151 38v-274c31 24 61 27 90 27c131 0 202 -103 202 -233c0 -166 -98 -251 -201 -251
c-38 0 -65 8 -91 27v-184c0 -21 14 -24 36 -24h39v-22zM404 380v-333c17 -17 45 -36 84 -36c94 0 121 118 121 228c0 126 -40 212 -118 212c-62 0 -82 -52 -87 -71zM328 380c-5 19 -25 71 -87 71c-78 0 -118 -86 -118 -212c0 -110 27 -228 121 -228c39 0 67 19 84 36v333z
" />
    <glyph glyph-name="afii10087" unicode="&#x445;" horiz-adv-x="516" 
d="M228 223l-116 168c-13 18 -37 48 -90 49v22h214v-22h-34c-8 0 -22 2 -22 -11c0 -6 4 -15 7 -20l87 -130l59 82c18 25 28 43 28 61c0 14 -9 18 -20 18h-37v22h180v-22h-18c-39 0 -70 -41 -103 -83l-75 -97l136 -198c17 -24 45 -40 78 -40v-22h-228v22h42c20 0 27 9 27 17
c0 5 0 12 -7 23l-93 141l-66 -88c-32 -43 -33 -58 -33 -68c0 -27 28 -25 45 -25h22v-22h-189v22h12c31 0 88 66 125 113z" />
    <glyph glyph-name="afii10088" unicode="&#x446;" horiz-adv-x="571" 
d="M539 22v-144h-25v31c0 58 -116 91 -180 91h-302v22h39c22 0 36 3 36 24v370c0 21 -14 24 -36 24h-39v22h217v-22h-30c-22 0 -36 -3 -36 -24v-370c0 -21 14 -24 36 -24h133c22 0 36 3 36 24v370c0 21 -14 24 -36 24h-30v22h217v-22h-39c-22 0 -36 -3 -36 -24v-370
c0 -21 14 -24 36 -24h39z" />
    <glyph glyph-name="afii10089" unicode="&#x447;" horiz-adv-x="523" 
d="M340 46v165c-55 -21 -111 -24 -134 -24c-130 0 -129 87 -129 107v122c0 21 -14 24 -36 24h-30v22h199v-22h-21c-22 0 -36 -3 -36 -24v-141c0 -28 16 -58 85 -58c51 0 88 15 102 20v179c0 21 -14 24 -36 24h-21v22h208v-22h-39c-22 0 -36 -3 -36 -24v-370
c0 -21 14 -24 36 -24h39v-22h-236v22h49c22 0 36 3 36 24z" />
    <glyph glyph-name="afii10090" unicode="&#x448;" horiz-adv-x="806" 
d="M32 462h215v-22h-28c-22 0 -36 -3 -36 -24v-370c0 -21 14 -24 36 -24h110c22 0 36 3 36 24v370c0 21 -14 24 -36 24h-28v22h204v-22h-28c-22 0 -36 -3 -36 -24v-370c0 -21 14 -24 36 -24h110c22 0 36 3 36 24v370c0 21 -14 24 -36 24h-28v22h215v-22h-39
c-22 0 -36 -3 -36 -24v-370c0 -21 14 -24 36 -24h39v-22h-742v22h39c22 0 36 3 36 24v370c0 21 -14 24 -36 24h-39v22z" />
    <glyph glyph-name="afii10091" unicode="&#x449;" horiz-adv-x="806" 
d="M441 416v-370c0 -21 14 -24 36 -24h110c22 0 36 3 36 24v370c0 21 -14 24 -36 24h-28v22h215v-22h-39c-22 0 -36 -3 -36 -24v-370c0 -21 14 -24 36 -24h39v-144h-25v31c0 58 -116 91 -180 91h-537v22h39c22 0 36 3 36 24v370c0 21 -14 24 -36 24h-39v22h215v-22h-28
c-22 0 -36 -3 -36 -24v-370c0 -21 14 -24 36 -24h110c22 0 36 3 36 24v370c0 21 -14 24 -36 24h-28v22h204v-22h-28c-22 0 -36 -3 -36 -24z" />
    <glyph glyph-name="afii10092" unicode="&#x44a;" horiz-adv-x="553" 
d="M254 416v-143c31 6 60 8 84 8c139 0 183 -72 183 -142c0 -72 -53 -139 -175 -139h-243v22h39c22 0 36 3 36 24v376c0 10 -8 18 -20 18h-14c-56 0 -97 -47 -97 -78v-20h-25v120h307v-22h-39c-22 0 -36 -3 -36 -24zM254 251v-214c17 -8 37 -15 60 -15c79 0 120 50 120 120
c0 91 -62 116 -122 116c-17 0 -41 -4 -58 -7z" />
    <glyph glyph-name="afii10093" unicode="&#x44b;" horiz-adv-x="714" 
d="M183 416v-143c31 6 60 8 84 8c139 0 183 -72 183 -142c0 -72 -53 -139 -175 -139h-243v22h39c22 0 36 3 36 24v370c0 21 -14 24 -36 24h-39v22h226v-22h-39c-22 0 -36 -3 -36 -24zM183 251v-214c17 -8 37 -15 60 -15c79 0 120 50 120 120c0 93 -62 117 -122 117
c-19 0 -40 -4 -58 -8zM531 46v370c0 21 -14 24 -36 24h-39v22h226v-22h-39c-22 0 -36 -3 -36 -24v-370c0 -21 14 -24 36 -24h39v-22h-226v22h39c22 0 36 3 36 24z" />
    <glyph glyph-name="afii10094" unicode="&#x44c;" horiz-adv-x="482" 
d="M183 416v-143c31 6 60 8 84 8c139 0 183 -72 183 -142c0 -72 -53 -139 -175 -139h-243v22h39c22 0 36 3 36 24v370c0 21 -14 24 -36 24h-39v22h226v-22h-39c-22 0 -36 -3 -36 -24zM183 251v-214c17 -8 37 -15 60 -15c79 0 120 50 120 120c0 93 -62 117 -122 117
c-19 0 -40 -4 -58 -8z" />
    <glyph glyph-name="afii10095" unicode="&#x44d;" horiz-adv-x="458" 
d="M54 462h25l-1 -18c45 22 94 29 135 29c180 0 209 -147 209 -232c0 -178 -123 -252 -236 -252c-82 0 -156 37 -156 97c0 28 15 49 45 49c33 0 43 -26 43 -49c0 -18 -4 -29 -4 -40c0 -12 18 -35 72 -35c125 0 149 152 149 231h-40c-34 0 -101 1 -179 -17v52
c34 -7 133 -13 179 -13h40c-2 150 -61 187 -130 187s-128 -56 -131 -95l-1 -15h-25z" />
    <glyph glyph-name="afii10096" unicode="&#x44e;" horiz-adv-x="754" 
d="M183 269h89c9 95 76 204 222 204c157 0 224 -124 224 -242s-67 -242 -224 -242c-165 0 -226 132 -224 258h-87v-201c0 -21 14 -24 36 -24h39v-22h-226v22h39c22 0 36 3 36 24v370c0 21 -14 24 -36 24h-39v22h226v-22h-39c-22 0 -36 -3 -36 -24v-147zM357 231
c0 -191 87 -220 137 -220s137 28 137 220s-87 220 -137 220s-137 -29 -137 -220z" />
    <glyph glyph-name="afii10097" unicode="&#x44f;" horiz-adv-x="534" 
d="M280 462h222v-22h-39c-22 0 -36 -3 -36 -24v-370c0 -21 14 -24 36 -24h39v-22h-226v22h39c22 0 36 3 36 24v174c-72 2 -109 -43 -130 -76c-28 -43 -76 -155 -148 -155c-19 0 -64 5 -61 69h21v-9c0 -6 0 -23 16 -23c22 0 27 26 57 76c36 59 92 107 157 115v5h-33
c-53 0 -155 22 -155 115c0 126 150 125 205 125zM351 242v184c-29 12 -57 14 -79 14c-70 0 -117 -40 -117 -107c0 -83 83 -95 130 -95c25 0 47 1 66 4z" />
    <glyph glyph-name="Euro" unicode="&#x20ac;" 
d="M485 573h-20c-9 68 -57 99 -123 99c-109 0 -150 -95 -162 -251h254l-14 -38h-242v-32v-34h216l-15 -38h-199c9 -162 65 -251 163 -251c57 0 111 27 122 100h20l-6 -82c-25 -33 -69 -59 -156 -59c-148 0 -224 100 -238 292h-66l15 38h47c-1 9 -1 26 -1 35c0 8 0 22 1 31
h-62l15 38h49c18 188 80 293 240 293c93 0 135 -30 156 -56z" />
  </font>
</defs>
</svg>
