<?xml version="1.0" standalone="no"?>
<!DOCTYPE svg PUBLIC "-//W3C//DTD SVG 1.1//EN" "http://www.w3.org/Graphics/SVG/1.1/DTD/svg11.dtd" >
<svg xmlns="http://www.w3.org/2000/svg" xmlns:xlink="http://www.w3.org/1999/xlink" version="1.1">
<metadata>
Created by FontForge 20170924 at Fri Oct 18 16:05:28 2002
 By www-data
Copyright 2002 Adobe Systems Incorporated. All rights reserved.
</metadata>
<defs>
<font id="PetersburgC-Italic" horiz-adv-x="526" >
  <font-face 
    font-family="PetersburgC"
    font-weight="400"
    font-style="italic"
    font-stretch="normal"
    units-per-em="1000"
    panose-1="4 0 5 0 0 0 0 0 0 0"
    ascent="776"
    descent="-224"
    x-height="473"
    cap-height="700"
    bbox="-203 -224 1165 929"
    underline-thickness="50"
    underline-position="-100"
    slope="-16"
    stemh="22"
    stemv="73"
    unicode-range="U+0020-2122"
  />
<missing-glyph horiz-adv-x="233" 
 />
    <glyph glyph-name=".notdef" horiz-adv-x="233" 
 />
    <glyph glyph-name="space" unicode=" " horiz-adv-x="233" 
 />
    <glyph glyph-name="space" unicode="&#xa0;" horiz-adv-x="233" 
 />
    <glyph glyph-name="exclam" unicode="!" horiz-adv-x="309" 
d="M161 140h-28l29 136c31 147 40 249 48 330c7 59 13 108 77 108c31 0 46 -17 46 -45c0 -51 -63 -150 -133 -393zM80 39c0 30 24 54 54 54s54 -24 54 -54s-24 -54 -54 -54s-54 24 -54 54z" />
    <glyph glyph-name="quotedbl" unicode="&#x22;" horiz-adv-x="413" 
d="M332 700l-92 -200h-28l20 200h100zM492 700l-92 -200h-28l20 200h100z" />
    <glyph glyph-name="numbersign" unicode="#" horiz-adv-x="705" 
d="M449 17h-40l30 167h-165l-30 -167h-40l30 167h-114l10 56h114l37 207h-114l10 56h114l30 167h40l-30 -167h165l30 167h40l-30 -167h113l-10 -56h-113l-37 -207h113l-10 -56h-113zM449 240l37 207h-165l-37 -207h165z" />
    <glyph glyph-name="dollar" unicode="$" horiz-adv-x="634" 
d="M287 -72h-38l15 58c-88 2 -164 52 -164 122c0 52 33 66 59 66c35 0 49 -25 49 -44c0 -34 -19 -21 -19 -57c0 -22 33 -57 81 -59l83 334l-82 64c-32 25 -68 47 -68 102c0 87 75 196 240 192l13 54h38l-13 -54c107 -9 149 -59 149 -104c0 -47 -30 -61 -53 -61
c-28 0 -45 21 -45 39c0 21 10 18 10 43c0 23 -23 50 -68 55l-63 -251l78 -57c43 -32 80 -69 80 -142c0 -111 -91 -253 -268 -242zM379 450l57 228c-87 -1 -148 -57 -148 -125c0 -40 30 -59 51 -74zM386 323l-78 -309c124 -2 178 85 178 163c0 50 -20 85 -53 110z" />
    <glyph glyph-name="percent" unicode="%" horiz-adv-x="932" 
d="M824 750l21 -20l-780 -800l-20 21l623 639c-29 -15 -83 -39 -145 -39c-26 0 -81 4 -112 56c2 -121 -73 -228 -170 -228c-59 0 -137 28 -137 118c0 89 65 217 195 217c25 0 44 -5 63 -21c73 33 65 -118 164 -118c85 0 201 56 298 175zM382 624c-15 11 -28 32 -24 47
c-5 7 -17 18 -43 18c-69 0 -137 -108 -137 -200c0 -52 28 -80 64 -80c66 0 142 92 142 194c0 7 -1 14 -2 21zM479 104c0 97 68 218 193 218c73 0 113 -42 113 -112c0 -99 -58 -224 -170 -224c-78 0 -136 47 -136 118zM553 96c0 -42 20 -79 63 -79c75 0 141 88 141 193
c0 68 -40 84 -72 84c-73 0 -132 -110 -132 -198z" />
    <glyph glyph-name="ampersand" unicode="&#x26;" horiz-adv-x="1000" 
d="M478 437l-11 -43c-20 6 -41 9 -65 9c-102 0 -161 -73 -161 -175c0 -119 77 -214 261 -214c224 0 284 169 284 289c0 39 -2 78 -12 118c-174 16 -188 -50 -188 -76c0 -19 15 -28 24 -28c7 0 13 8 20 12c6 4 13 6 20 6c33 0 46 -24 46 -43c0 -29 -19 -65 -58 -65
c-45 0 -79 37 -79 100c0 84 92 177 220 177c28 0 55 -3 83 -3c127 0 150 51 150 77c0 21 -17 32 -33 32c-5 0 -9 -2 -14 -3c-9 -3 -17 -6 -26 -6c-21 0 -45 13 -45 40c0 30 30 48 71 48c44 0 75 -41 75 -94c0 -92 -83 -180 -216 -174c14 -41 20 -82 20 -123
c0 -157 -96 -312 -372 -312c-255 0 -332 130 -332 217c0 105 74 191 205 217v4c-55 13 -81 69 -81 123c0 66 49 167 199 167c121 0 171 -53 171 -95c0 -24 -18 -53 -51 -53c-24 0 -49 15 -49 43c0 5 1 10 3 15s4 11 4 16c0 22 -26 46 -71 46c-66 0 -115 -75 -115 -158
c0 -87 55 -95 74 -95c16 0 34 1 49 4z" />
    <glyph glyph-name="quotesingle" unicode="'" horiz-adv-x="253" 
d="M232 700h100l-92 -200h-28z" />
    <glyph glyph-name="parenleft" unicode="(" horiz-adv-x="430" 
d="M319 -204l-18 -20c-145 106 -205 252 -205 366c0 201 143 424 404 572l10 -20c-200 -122 -310 -371 -310 -562c0 -69 -1 -231 119 -336z" />
    <glyph glyph-name="parenright" unicode=")" horiz-adv-x="430" 
d="M167 694l18 20c145 -106 205 -252 205 -366c0 -201 -143 -424 -404 -572l-10 20c200 122 310 371 310 562c0 69 1 231 -119 336z" />
    <glyph glyph-name="asterisk" unicode="*" horiz-adv-x="552" 
d="M302 546l10 18l-93 94c12 30 41 44 72 42l35 -128h20l35 128c31 2 60 -12 72 -42l-93 -94l10 -18l128 34c9 -11 14 -24 14 -42s-5 -31 -14 -42l-128 34l-10 -17l93 -94c-9 -24 -39 -46 -72 -43l-35 129h-20l-35 -129c-33 -3 -63 19 -72 43l93 94l-10 17l-128 -34
c-9 11 -14 24 -14 42s5 31 14 42z" />
    <glyph glyph-name="plus" unicode="+" horiz-adv-x="700" 
d="M120 330v40h240v240h40v-240h240v-40h-240v-240h-40v240h-240z" />
    <glyph glyph-name="comma" unicode="," horiz-adv-x="236" 
d="M28 -154l-12 21c29 18 99 66 99 104c0 14 -9 20 -19 28c-15 10 -36 26 -36 56c0 34 23 57 56 57c35 0 60 -29 60 -80c0 -80 -63 -135 -148 -186z" />
    <glyph glyph-name="hyphenminus" horiz-adv-x="400" 
d="M340 299v-60h-240v60h240z" />
    <glyph glyph-name="period" unicode="." horiz-adv-x="228" 
d="M60 39c0 30 24 54 54 54s54 -24 54 -54s-24 -54 -54 -54s-54 24 -54 54z" />
    <glyph glyph-name="slash" unicode="/" horiz-adv-x="510" 
d="M560 700h50l-660 -914h-50z" />
    <glyph glyph-name="zero" unicode="0" 
d="M199 -14c-105 0 -147 107 -147 209c0 184 130 519 328 519c104 0 146 -106 146 -209c0 -186 -131 -519 -327 -519zM205 14c129 0 239 368 239 568c0 32 -6 104 -71 104c-129 0 -239 -368 -239 -568c0 -32 6 -104 71 -104z" />
    <glyph glyph-name="one" unicode="1" 
d="M308 0h-86l134 538c-64 -44 -115 -67 -207 -110l-13 26c121 64 246 149 308 260h42z" />
    <glyph glyph-name="two" unicode="2" 
d="M18 0h-32c159 233 429 285 429 557c0 12 1 129 -106 129c-66 0 -96 -48 -100 -75c-2 -14 1 -28 0 -43c-2 -43 -33 -47 -44 -47c-20 0 -43 15 -43 42c0 56 54 151 199 151c125 0 185 -78 185 -189c0 -230 -230 -272 -446 -468l3 -4c54 24 83 30 117 30c13 0 26 -1 39 -4
c32 -7 87 -33 126 -33c33 0 54 25 77 58l20 -13c-46 -73 -95 -102 -167 -102c-17 0 -34 3 -50 6c-72 15 -115 38 -149 38c-21 0 -43 -14 -58 -33z" />
    <glyph glyph-name="three" unicode="3" 
d="M184 353l-9 27c129 31 244 82 244 197c0 65 -41 109 -102 109c-46 0 -78 -18 -90 -47c-14 -33 -7 -81 -59 -81c-33 0 -43 26 -43 42c0 45 56 114 193 114c158 0 188 -90 188 -147c0 -105 -100 -150 -215 -178l1 -5c73 -1 150 -44 150 -154c0 -185 -254 -281 -472 -290v28
c201 17 381 142 381 300c0 93 -77 99 -94 99c-20 0 -54 -6 -73 -14z" />
    <glyph glyph-name="four" unicode="4" 
d="M377 202h103l-8 -32h-103l-42 -170h-80l42 170h-271l8 32l448 512h32zM389 570l-319 -368h227z" />
    <glyph glyph-name="five" unicode="5" 
d="M153 382l-30 9l97 323c40 -16 89 -29 161 -29c61 0 114 8 167 29l12 -18c-64 -56 -148 -81 -226 -81c-37 0 -78 7 -105 13l-60 -194c32 23 66 32 109 32c114 0 177 -85 177 -190c0 -164 -144 -318 -455 -336v28c248 16 364 195 364 341c0 75 -34 129 -102 129
c-48 0 -86 -27 -109 -56z" />
    <glyph glyph-name="six" unicode="6" 
d="M218 337l-14 17c31 30 75 55 127 55c84 0 144 -63 144 -158c0 -169 -146 -265 -255 -265c-104 0 -164 92 -164 229c0 231 169 499 359 499c57 0 101 -23 101 -65c0 -27 -18 -42 -44 -42c-120 0 -2 79 -92 79c-146 0 -244 -427 -244 -565c0 -76 41 -107 84 -107
c86 0 166 113 166 255c0 67 -28 106 -84 106c-37 0 -66 -21 -84 -38z" />
    <glyph glyph-name="seven" unicode="7" 
d="M529 714h37c-40 -129 -99 -210 -153 -287c-60 -86 -115 -164 -150 -281c-21 -70 -30 -160 -96 -160c-13 0 -51 6 -51 67c0 104 105 208 248 376c71 83 112 131 148 215l-5 2c-53 -32 -96 -37 -126 -37c-15 0 -30 3 -45 5c-45 7 -69 12 -93 12c-55 0 -77 -27 -80 -36
l-14 -44h-32l49 154c37 10 73 14 114 14c37 0 76 -5 110 -16c28 -9 58 -22 88 -22c14 0 37 6 51 38z" />
    <glyph glyph-name="eight" unicode="8" 
d="M357 387l43 -51c35 -41 65 -81 65 -146c0 -90 -75 -204 -228 -204c-124 0 -204 71 -204 165c0 84 68 174 220 224l-49 58c-21 25 -45 51 -45 94c0 100 85 187 198 187c102 0 176 -58 176 -140c0 -77 -51 -141 -176 -187zM269 490l71 -84c102 45 121 118 121 165
c0 73 -45 115 -109 115c-69 0 -123 -50 -123 -112c0 -38 22 -63 40 -84zM328 289l-59 68c-131 -57 -156 -154 -156 -214c0 -89 63 -129 134 -129c95 0 148 67 148 135c0 35 -13 78 -67 140z" />
    <glyph glyph-name="nine" unicode="9" 
d="M346 359l13 -19c-52 -40 -95 -50 -129 -50c-65 0 -127 51 -127 164c0 147 120 260 237 260c123 0 170 -115 170 -219c0 -229 -181 -521 -510 -555v28c297 49 421 370 421 567c0 88 -12 151 -86 151c-103 0 -147 -176 -147 -270c0 -65 39 -89 81 -89c31 0 60 20 77 32z
" />
    <glyph glyph-name="colon" unicode=":" horiz-adv-x="248" 
d="M140 420c0 30 24 54 54 54s54 -24 54 -54s-24 -54 -54 -54s-54 24 -54 54zM60 39c0 30 24 54 54 54s54 -24 54 -54s-24 -54 -54 -54s-54 24 -54 54z" />
    <glyph glyph-name="semicolon" unicode=";" horiz-adv-x="252" 
d="M28 -154l-12 21c29 18 99 66 99 104c0 14 -9 20 -19 28c-15 10 -36 26 -36 56c0 34 23 57 56 57c35 0 60 -29 60 -80c0 -80 -63 -135 -148 -186zM144 420c0 30 24 54 54 54s54 -24 54 -54s-24 -54 -54 -54s-54 24 -54 54z" />
    <glyph glyph-name="less" unicode="&#x3c;" horiz-adv-x="690" 
d="M45 365l582 240l18 -40l-522 -215l522 -215l-18 -40l-582 240v30z" />
    <glyph glyph-name="equal" unicode="=" horiz-adv-x="700" 
d="M120 390v40h520v-40h-520zM120 270v40h520v-40h-520z" />
    <glyph glyph-name="greater" unicode="&#x3e;" horiz-adv-x="745" 
d="M720 335l-582 -240l-18 40l522 215l-522 215l18 40l582 -240v-30z" />
    <glyph glyph-name="question" unicode="?" horiz-adv-x="500" 
d="M202 140h-28l30 119c35 137 254 160 254 334c0 61 -51 93 -116 93c-54 0 -90 -32 -90 -55c0 -9 6 -19 6 -29c0 -27 -18 -60 -57 -60c-41 0 -56 27 -56 48c0 53 65 124 203 124c123 0 172 -76 172 -152c0 -292 -240 -114 -304 -367zM120 39c0 32 26 53 53 53
c30 0 53 -23 53 -53c0 -27 -21 -53 -53 -53c-29 0 -53 24 -53 53z" />
    <glyph glyph-name="at" unicode="@" horiz-adv-x="876" 
d="M600 541h71l-44 -317c-2 -12 -4 -23 -4 -35c0 -25 10 -39 34 -39c57 0 129 49 129 231c0 225 -168 302 -313 302c-195 0 -329 -144 -329 -338c0 -184 107 -328 286 -328c67 0 148 18 198 48l15 -30c-74 -35 -144 -49 -218 -49c-200 0 -335 146 -335 346
c0 226 154 382 382 382c226 0 368 -138 368 -335c0 -183 -106 -257 -204 -257c-49 0 -79 30 -83 69l-5 1c-32 -41 -84 -70 -146 -70c-101 0 -159 73 -159 169c0 172 128 267 238 267c23 0 77 -6 114 -52zM414 148c96 0 162 112 162 263c0 35 -8 125 -89 125
c-108 0 -164 -141 -164 -260c0 -51 16 -128 91 -128z" />
    <glyph glyph-name="A" unicode="A" horiz-adv-x="677" 
d="M454 273h-227l-38 -62c-48 -79 -77 -108 -77 -137c0 -27 2 -46 18 -46h50l-7 -28h-203l7 28h9c26 0 72 31 205 245l273 441h27l69 -625c3 -28 8 -61 54 -61h12l-7 -28h-241l7 28h40c51 0 53 23 44 105zM244 301h208l-32 288z" />
    <glyph glyph-name="B" unicode="B" horiz-adv-x="658" 
d="M0 0l7 28h47c14 0 38 1 49 45l139 555c3 11 11 44 -29 44h-55l7 28h278c177 0 185 -105 185 -148c0 -111 -100 -159 -183 -166l-1 -4c62 -6 151 -46 151 -166c0 -107 -88 -216 -276 -216h-319zM276 398h75c21 0 181 -3 181 166c0 39 -22 108 -125 108c-7 0 -62 0 -76 -54
zM268 368l-78 -316c22 -15 47 -24 87 -24c103 0 218 73 218 203c0 81 -50 137 -153 137h-74z" />
    <glyph glyph-name="C" unicode="C" horiz-adv-x="676" 
d="M684 700h32l-47 -185h-32l6 26c11 47 -19 145 -128 145c-181 0 -315 -263 -315 -464c0 -117 61 -195 165 -195c99 0 180 80 245 179l26 -18c-71 -107 -158 -202 -300 -202c-157 0 -236 115 -236 251c0 175 134 477 429 477c87 0 127 -28 147 -43z" />
    <glyph glyph-name="D" unicode="D" horiz-adv-x="760" 
d="M165 700h293c72 0 282 -10 282 -272c0 -236 -175 -428 -413 -428h-327l7 28h47c16 0 39 3 49 45l138 554c4 14 11 45 -26 45h-57zM336 641l-146 -588c34 -19 70 -25 120 -25c203 0 330 209 330 396c0 163 -85 245 -185 245c-39 0 -84 -12 -119 -28z" />
    <glyph glyph-name="E" unicode="E" horiz-adv-x="587" 
d="M165 700h472l-35 -142h-32l7 29c16 65 -131 85 -179 85h-15c-36 0 -46 -29 -50 -46l-61 -244h45c133 0 145 39 150 57l7 25h32l-48 -192h-32l6 25c4 16 5 34 -24 45c-28 11 -76 12 -98 12h-45l-70 -281c-11 -46 19 -45 27 -45h14c57 0 243 38 263 104l7 23h32l-52 -155
h-486l7 28h47c16 0 39 3 49 45l138 554c11 44 -12 45 -26 45h-57z" />
    <glyph glyph-name="F" unicode="F" horiz-adv-x="530" 
d="M292 0h-292l7 28h47c16 0 39 3 49 45l138 554c4 14 11 45 -26 45h-57l7 28h465l-35 -142h-32l7 29c14 59 -108 85 -172 85h-15c-36 0 -46 -29 -50 -46l-61 -244h45c133 0 145 39 150 57l7 25h32l-48 -192h-32l6 25c4 16 5 34 -24 45c-28 11 -76 12 -98 12h-45l-70 -281
c-11 -46 19 -45 27 -45h77z" />
    <glyph glyph-name="G" unicode="G" horiz-adv-x="750" 
d="M453 285h268l-7 -28h-23c-14 0 -38 -1 -49 -45l-36 -145c-108 -62 -188 -81 -264 -81c-160 0 -242 123 -242 281c0 206 174 447 433 447c102 0 156 -30 177 -43l8 29h32l-47 -185h-32l6 26c15 64 -42 145 -158 145c-183 0 -319 -225 -319 -445c0 -113 42 -227 157 -227
c84 0 156 53 171 112l22 86c11 42 -14 45 -27 45h-77z" />
    <glyph glyph-name="H" unicode="H" horiz-adv-x="762" 
d="M271 379h303l62 248c11 44 -12 45 -26 45h-57l7 28h272l-7 -28h-47c-14 0 -40 -3 -50 -45l-138 -554c-10 -42 13 -45 27 -45h57l-7 -28h-272l7 28h47c16 0 39 3 49 45l69 278h-303l-69 -278c-10 -42 13 -45 27 -45h57l-7 -28h-272l7 28h47c16 0 39 3 49 45l138 554
c11 44 -12 45 -26 45h-57l7 28h272l-7 -28h-47c-14 0 -39 -3 -50 -45z" />
    <glyph glyph-name="I" unicode="I" horiz-adv-x="367" 
d="M165 700h272l-7 -28h-47c-14 0 -40 -3 -50 -45l-138 -554c-11 -44 19 -45 27 -45h57l-7 -28h-272l7 28h47c16 0 39 3 49 45l138 554c11 44 -12 45 -26 45h-57z" />
    <glyph glyph-name="J" unicode="J" horiz-adv-x="367" 
d="M165 700h272l-7 -28h-47c-11 0 -39 -1 -50 -45l-129 -520c-9 -35 -82 -331 -306 -331c-68 0 -101 39 -101 80c0 34 21 67 60 67c36 0 53 -26 53 -52c0 -8 -2 -15 -5 -22s-7 -13 -7 -20c0 -9 2 -25 27 -25c57 0 128 68 172 244l144 579c4 14 11 45 -26 45h-57z" />
    <glyph glyph-name="K" unicode="K" horiz-adv-x="710" 
d="M165 700h272l-7 -28h-47c-14 0 -40 -3 -50 -45l-70 -281l235 204c30 26 90 86 90 109c0 12 -16 13 -23 13h-49l7 28h237l-7 -28h-16c-46 0 -112 -56 -145 -84l-209 -180l201 -327c23 -38 37 -51 83 -53l-7 -28h-141l-212 348l-56 -49l-56 -226c-11 -46 19 -45 27 -45h57
l-7 -28h-272l7 28h47c16 0 39 3 49 45l138 554c4 14 11 45 -26 45h-57z" />
    <glyph glyph-name="L" unicode="L" horiz-adv-x="580" 
d="M165 700h282l-7 -28h-57c-14 0 -40 -3 -50 -45l-138 -554c-11 -42 14 -45 32 -45c120 -2 258 54 274 105l7 23h32l-39 -156h-501l7 28h47c16 0 39 3 49 45l138 554c4 14 11 45 -26 45h-57z" />
    <glyph glyph-name="M" unicode="M" horiz-adv-x="898" 
d="M794 700h174l-7 -28h-47c-39 0 -45 -24 -50 -45l-138 -554c-11 -44 12 -45 27 -45h57l-7 -28h-272l7 28h47c27 0 40 10 49 45l128 513l-373 -586h-26l-92 595l-74 -297c-15 -58 -36 -159 -36 -207c0 -17 4 -63 43 -63h19l-7 -28h-216l7 28h19c72 0 108 163 137 280
l79 314c12 48 -8 50 -25 50h-51l7 28h174l91 -562z" />
    <glyph glyph-name="N" unicode="N" horiz-adv-x="710" 
d="M140 700h154l253 -560l66 262c31 122 36 171 36 207c0 56 -27 63 -43 63h-19l7 28h216l-7 -28h-19c-69 0 -107 -152 -137 -270l-104 -416h-36l-255 563l-63 -251c-31 -123 -36 -171 -36 -207c0 -56 27 -63 43 -63h19l-7 -28h-208l7 28h11c69 0 107 152 137 270l74 294
l-10 23c-17 40 -50 59 -86 57z" />
    <glyph glyph-name="O" unicode="O" horiz-adv-x="765" 
d="M356 -14c-94 0 -256 40 -256 267c0 141 68 302 189 392c65 49 126 69 201 69c181 0 255 -130 255 -266c0 -132 -60 -296 -189 -394c-63 -48 -128 -68 -200 -68zM358 14c154 0 287 213 287 433c0 64 2 239 -159 239c-166 0 -286 -244 -286 -437c0 -180 78 -235 158 -235z
" />
    <glyph glyph-name="P" unicode="P" horiz-adv-x="600" 
d="M164 700h256c139 0 220 -81 220 -182c0 -121 -90 -224 -299 -224c-32 0 -58 3 -89 8l-57 -229c-11 -46 19 -45 27 -45h77l-7 -28h-292l7 28h47c16 0 39 3 49 45l138 554c4 14 11 45 -26 45h-58zM339 650l-79 -318c26 -8 46 -10 71 -10c125 0 209 77 209 206
c0 87 -41 144 -118 144c-25 0 -55 -6 -83 -22z" />
    <glyph glyph-name="Q" unicode="Q" horiz-adv-x="765" 
d="M145 -127l168 116c-79 7 -213 61 -213 264c0 141 68 302 189 392c65 49 126 69 201 69c181 0 255 -130 255 -266c0 -132 -60 -296 -189 -394c-59 -44 -121 -66 -197 -68l-91 -60l1 -6c35 9 70 13 105 13c51 0 93 -11 138 -31c43 -20 76 -44 119 -44c70 0 132 45 164 78
l15 -14c-56 -82 -125 -146 -209 -146c-64 0 -104 30 -158 65c-39 25 -88 51 -166 51c-57 0 -95 -23 -118 -40zM358 14c154 0 287 213 287 433c0 64 2 239 -159 239c-166 0 -286 -244 -286 -437c0 -180 78 -235 158 -235z" />
    <glyph glyph-name="R" unicode="R" horiz-adv-x="680" 
d="M291 340l-66 -267c-11 -46 19 -45 27 -45h47l-7 -28h-262l7 28h47c16 0 39 3 49 45l138 554c4 14 11 45 -26 45h-57l7 28h248c59 0 227 -2 227 -150c0 -112 -111 -220 -277 -210l-2 -7c110 -22 143 -124 159 -199c15 -66 17 -103 42 -103c20 0 41 21 48 49h27
c-9 -38 -38 -94 -103 -94c-107 0 -110 158 -126 234c-8 38 -32 118 -147 120zM369 652l-71 -284c19 -3 47 -6 68 -6c96 0 208 47 208 177c0 82 -47 133 -128 133c-28 0 -52 -7 -77 -20z" />
    <glyph glyph-name="S" unicode="S" horiz-adv-x="545" 
d="M52 0h-32l45 181h32l-5 -18c-11 -40 36 -149 143 -149c87 0 159 77 159 163c0 37 -9 71 -37 97l-120 113c-29 27 -56 61 -56 117c0 96 85 202 224 202c59 0 99 -10 141 -35l7 29h32l-44 -177h-32l4 19c9 42 -13 136 -105 136c-77 0 -138 -64 -138 -138
c0 -25 15 -46 37 -66l100 -89c38 -34 70 -72 70 -147c0 -120 -85 -252 -264 -252c-60 0 -106 15 -153 47z" />
    <glyph glyph-name="T" unicode="T" horiz-adv-x="573" 
d="M131 700h546l-39 -156h-32l5 26c18 92 -112 102 -139 102c-10 0 -31 1 -36 -19l-144 -580c-10 -42 13 -45 27 -45h57l-7 -28h-272l7 28h47c14 0 38 1 49 45l144 580c1 5 4 19 -36 19c-62 0 -161 -41 -177 -101l-7 -27h-32z" />
    <glyph glyph-name="U" unicode="U" horiz-adv-x="710" 
d="M152 700h272l-7 -28h-47c-14 0 -38 -1 -49 -45l-98 -393c-6 -26 -11 -50 -11 -76c0 -70 31 -141 114 -141c111 0 202 94 234 224l39 161c27 111 36 162 36 207c0 56 -27 63 -43 63h-19l7 28h210l-7 -28h-13c-69 0 -108 -152 -137 -270l-39 -157
c-25 -100 -98 -259 -287 -259c-128 0 -187 74 -187 161c0 29 3 58 11 88l98 392c4 14 10 45 -27 45h-57z" />
    <glyph glyph-name="V" unicode="V" horiz-adv-x="645" 
d="M129 700h248l-7 -28h-41c-46 0 -42 -29 -39 -53l53 -498l189 329c37 65 84 148 84 196c0 27 -19 26 -32 26h-35l7 28h196l-7 -28c-38 4 -64 -29 -111 -109l-336 -577h-29l-75 633c-2 13 -5 53 -62 53h-10z" />
    <glyph glyph-name="W" unicode="W" horiz-adv-x="925" 
d="M129 700h237l-7 -28h-19c-35 0 -47 -20 -43 -53l53 -493l174 299l-20 194c-2 18 -6 53 -52 53h-13l7 28h243l-7 -28h-43c-35 0 -47 -18 -44 -53l48 -483l163 314c35 67 70 158 70 196c0 25 -21 26 -32 26h-40l7 28h221l-7 -28c-33 3 -79 -16 -175 -202l-250 -484h-28
l-44 385l-227 -385h-29l-69 633c-5 45 -35 53 -58 53h-23z" />
    <glyph glyph-name="X" unicode="X" horiz-adv-x="710" 
d="M140 700h281l-7 -28h-63c-18 0 -25 -9 -25 -20c0 -8 3 -16 9 -30l86 -210c158 176 183 216 183 240c0 20 -21 20 -31 20h-48l7 28h238l-7 -28c-65 1 -122 -46 -330 -289l103 -247c38 -90 55 -108 106 -108h8l-7 -28h-269l7 28h57c13 0 25 10 25 24c0 9 -2 15 -5 22
l-99 237c-118 -136 -208 -237 -208 -269c0 -5 6 -14 20 -14h54l-7 -28h-238l7 28c55 2 104 23 358 310l-101 249c-26 63 -50 86 -111 85z" />
    <glyph glyph-name="Y" unicode="Y" horiz-adv-x="635" 
d="M129 700h271l-7 -28h-57c-17 0 -32 -8 -24 -40l79 -302l91 124c115 157 123 183 123 196c0 8 -2 22 -21 22h-46l7 28h197l-7 -28h-15c-44 0 -76 -47 -196 -210l-126 -171l-54 -218c-11 -46 19 -45 27 -45h57l-7 -28h-272l7 28h47c16 0 39 3 49 45l53 213l-90 327
c-13 48 -39 55 -93 59z" />
    <glyph glyph-name="Z" unicode="Z" horiz-adv-x="575" 
d="M167 700h478l-7 -28l-517 -644h55c221 0 309 50 321 92l7 24h32l-36 -144h-500l7 28l520 644h-86c-172 0 -263 -45 -272 -88l-6 -28h-32z" />
    <glyph glyph-name="bracketleft" unicode="[" horiz-adv-x="376" 
d="M278 714h216l-5 -22h-91c-11 0 -39 -1 -50 -45l-200 -804c-1 -6 -3 -20 -3 -26c0 -19 22 -19 30 -19h91l-6 -22h-216z" />
    <glyph glyph-name="backslash" unicode="\" horiz-adv-x="440" 
d="M140 700h40l260 -914h-40z" />
    <glyph glyph-name="bracketright" unicode="]" horiz-adv-x="376" 
d="M238 714h216l-234 -938h-216l6 22h91c10 0 38 1 49 45l200 804c1 6 3 20 3 26c0 19 -24 19 -29 19h-91z" />
    <glyph glyph-name="asciicircum" unicode="^" horiz-adv-x="558" 
d="M175 400h-45l214 314l214 -314h-45l-169 249z" />
    <glyph glyph-name="underscore" unicode="_" horiz-adv-x="580" 
d="M0 -214v40h580v-40h-580z" />
    <glyph glyph-name="grave" unicode="`" horiz-adv-x="308" 
d="M291 563l-130 125c-10 10 -17 18 -17 34c0 26 22 44 44 44c28 0 39 -21 49 -39l77 -146z" />
    <glyph glyph-name="a" unicode="a" horiz-adv-x="532" 
d="M422 462h76l-110 -382c-3 -10 -6 -19 -6 -28c0 -11 4 -16 14 -16c31 0 80 61 96 87l18 -12c-33 -52 -97 -122 -157 -122c-32 0 -47 22 -47 53c0 13 2 25 6 38l20 67h-4c-41 -70 -97 -158 -184 -158c-52 0 -114 33 -114 129c0 159 147 355 307 355c43 0 63 -13 78 -36z
M364 258l37 131c-1 31 -19 62 -56 62c-98 0 -239 -230 -239 -365c0 -59 37 -68 53 -68c77 0 189 184 205 240z" />
    <glyph glyph-name="b" unicode="b" horiz-adv-x="508" 
d="M155 694h-31l6 22c55 5 126 29 172 55l-120 -436h4c38 70 92 138 167 138c57 0 119 -38 119 -149c0 -170 -133 -335 -277 -335c-66 0 -119 24 -163 76l160 582c13 46 -14 47 -37 47zM146 204l-37 -136c14 -39 47 -57 87 -57c111 0 196 213 196 335c0 82 -33 98 -54 98
c-71 0 -167 -149 -192 -240z" />
    <glyph glyph-name="c" unicode="c" horiz-adv-x="426" 
d="M363 159l22 -12c-28 -63 -92 -158 -204 -158c-101 0 -145 81 -145 176c0 166 128 308 269 308c65 0 111 -30 111 -71c0 -25 -17 -40 -40 -40c-36 0 -42 29 -44 43c-3 19 -7 46 -47 46c-89 0 -169 -168 -169 -304c0 -64 17 -129 88 -129c69 0 122 67 159 141z" />
    <glyph glyph-name="d" unicode="d" horiz-adv-x="532" 
d="M433 703h-31l6 22c55 5 126 29 172 55l-192 -700c-4 -14 -5 -21 -5 -28c0 -9 2 -16 13 -16c26 0 73 49 96 87l18 -12c-43 -66 -107 -122 -157 -122c-45 0 -46 44 -46 53c0 13 1 25 5 38l20 67h-4c-41 -69 -98 -158 -184 -158c-52 0 -114 33 -114 129
c0 181 165 355 302 355c39 0 64 -16 80 -29l59 214c12 44 -17 45 -38 45zM361 258l37 136c-2 36 -27 57 -57 57c-90 0 -235 -226 -235 -365c0 -61 38 -69 53 -69c74 0 186 183 202 241z" />
    <glyph glyph-name="e" unicode="e" horiz-adv-x="448" 
d="M372 156l22 -12c-26 -47 -97 -155 -221 -155c-84 0 -143 62 -143 165c0 155 156 319 295 319c72 0 103 -46 103 -93c0 -73 -90 -161 -306 -175c-10 -28 -16 -62 -16 -91c0 -56 30 -96 86 -96c82 0 149 85 180 138zM131 231c163 8 233 113 233 168c0 30 -17 52 -45 52
c-60 0 -142 -90 -188 -220z" />
    <glyph glyph-name="f" unicode="f" horiz-adv-x="417" 
d="M395 462l-7 -22h-96l-114 -418c-32 -119 -111 -246 -214 -246c-48 0 -64 32 -64 53c0 25 18 42 42 42c30 0 39 -24 42 -33c3 -10 3 -28 21 -28c42 0 72 119 90 185l121 445h-95l7 22h94l17 62c33 119 111 246 214 246c48 0 64 -32 64 -53c0 -24 -18 -42 -42 -42
c-30 0 -38 22 -41 33c-5 18 -7 28 -22 28c-42 0 -72 -119 -90 -185l-24 -89h97z" />
    <glyph glyph-name="g" unicode="g" horiz-adv-x="480" 
d="M150 199l1 4c-57 14 -80 65 -80 110c0 91 92 160 204 160c39 0 67 -7 96 -23c41 54 71 74 107 74s42 -23 42 -32c0 -16 -9 -43 -41 -43c-9 0 -21 2 -28 13c-4 6 -6 16 -21 16c-17 0 -36 -22 -44 -38c33 -25 45 -65 45 -101c0 -95 -93 -155 -205 -155c-17 0 -35 2 -52 2
c-49 0 -65 -25 -65 -41c0 -30 37 -40 79 -47l85 -14c50 -8 171 -22 171 -131c0 -70 -45 -177 -282 -177c-168 0 -202 81 -202 124c0 77 58 133 122 145c-40 17 -47 50 -47 68c0 40 42 77 115 86zM277 451c-87 0 -130 -94 -130 -161c0 -75 54 -84 76 -84
c94 0 132 106 132 169c0 45 -27 76 -78 76zM240 12l-108 19c-60 -11 -103 -66 -103 -126c0 -51 38 -107 138 -107c165 0 214 74 214 117c0 77 -89 88 -141 97z" />
    <glyph glyph-name="h" unicode="h" horiz-adv-x="513" 
d="M91 0h-76l180 656c13 46 -14 47 -37 47h-31l6 22c55 5 126 29 172 55l-139 -512h4c101 172 163 205 215 205c46 0 83 -21 83 -65c0 -21 -12 -60 -15 -68l-84 -260c-5 -15 -6 -23 -6 -28c0 -11 4 -16 14 -16c31 0 80 61 96 87l18 -12c-33 -52 -97 -122 -157 -122
c-33 0 -47 22 -47 53c0 13 2 25 6 38l88 274c13 41 11 56 11 60c0 21 -19 22 -27 22c-62 0 -214 -217 -234 -290z" />
    <glyph glyph-name="i" unicode="i" horiz-adv-x="276" 
d="M57 80l87 302c3 10 6 19 6 28c0 11 -4 16 -14 16c-31 0 -80 -61 -96 -87l-18 12c33 52 97 122 157 122c32 0 47 -22 47 -53c0 -13 -2 -25 -6 -38l-87 -302c-3 -10 -6 -19 -6 -28c0 -11 4 -16 14 -16c31 0 80 61 96 87l18 -12c-33 -52 -97 -122 -157 -122
c-32 0 -47 22 -47 53c0 13 2 25 6 38zM164 651c0 29 21 50 50 50s50 -21 50 -50s-21 -50 -50 -50s-50 21 -50 50z" />
    <glyph glyph-name="j" unicode="j" horiz-adv-x="256" 
d="M40 339l-18 12c43 66 107 122 157 122c30 0 46 -21 46 -53c0 -13 -2 -25 -5 -38l-98 -360c-32 -119 -111 -246 -214 -246c-48 0 -64 32 -64 53c0 24 18 42 42 42c30 0 38 -22 41 -33c5 -18 7 -28 22 -28c42 0 71 116 90 185l105 387c4 14 5 21 5 28c0 9 -2 16 -13 16
c-26 0 -73 -49 -96 -87zM164 651c0 29 21 50 50 50s50 -21 50 -50s-21 -50 -50 -50s-50 21 -50 50z" />
    <glyph glyph-name="k" unicode="k" horiz-adv-x="475" 
d="M91 0h-76l180 656c13 46 -14 47 -37 47h-31l6 22c55 5 126 29 172 55l-109 -398c38 44 103 91 170 91c53 0 89 -34 89 -89c0 -74 -69 -135 -211 -156c76 -22 68 -95 81 -158c2 -11 6 -28 20 -28c23 0 62 62 72 80l20 -12c-14 -26 -68 -121 -126 -121c-56 0 -63 64 -65 84
c-4 35 -8 145 -46 145c-5 0 -10 0 -16 -1l-35 -5zM174 305l-19 -70c187 21 225 103 225 148c0 38 -22 59 -50 59c-56 0 -144 -93 -156 -137z" />
    <glyph glyph-name="l" unicode="l" horiz-adv-x="256" 
d="M157 703h-31l6 22c55 5 126 29 172 55l-192 -700c-4 -14 -5 -21 -5 -28c0 -9 2 -16 13 -16c26 0 73 49 96 87l18 -12c-33 -51 -97 -122 -157 -122c-31 0 -46 22 -46 53c0 13 1 25 5 38l158 576c13 46 -14 47 -37 47z" />
    <glyph glyph-name="m" unicode="m" horiz-adv-x="746" 
d="M110 0h-76l110 382c3 10 6 19 6 28c0 11 -4 16 -14 16c-31 0 -80 -61 -96 -87l-18 12c33 52 97 122 157 122c38 0 47 -30 47 -53c0 -13 -2 -25 -6 -38l-13 -46h4c69 118 132 137 162 137c46 0 85 -18 85 -64c0 -17 -1 -33 -6 -50l-6 -23h4c69 118 132 137 164 137
c46 0 85 -16 85 -61c0 -14 -1 -36 -13 -72l-84 -260c-5 -15 -6 -23 -6 -28c0 -11 4 -16 14 -16c31 0 80 61 96 87l18 -12c-33 -52 -97 -122 -157 -122c-33 0 -47 22 -47 53c0 13 2 25 6 38l88 274c5 16 9 42 9 58c0 8 -5 24 -26 24c-63 0 -170 -167 -185 -219l-63 -217h-76
l102 354c4 15 7 46 7 58c0 22 -18 24 -26 24c-54 0 -160 -140 -183 -219z" />
    <glyph glyph-name="n" unicode="n" horiz-adv-x="534" 
d="M110 0h-76l110 382c3 10 6 19 6 28c0 11 -4 16 -14 16c-31 0 -80 -61 -96 -87l-18 12c33 52 97 122 157 122c32 0 47 -22 47 -53c0 -13 -2 -25 -6 -38l-33 -114h4c101 172 163 205 215 205c46 0 83 -21 83 -65c0 -21 -12 -60 -15 -68l-84 -260c-5 -15 -6 -23 -6 -28
c0 -11 4 -16 14 -16c31 0 80 61 96 87l18 -12c-33 -52 -97 -122 -157 -122c-33 0 -47 22 -47 53c0 13 2 25 6 38l88 274c13 41 11 56 11 60c0 21 -19 22 -27 22c-63 0 -213 -217 -234 -290z" />
    <glyph glyph-name="o" unicode="o" horiz-adv-x="488" 
d="M291 473c116 0 161 -96 161 -202c0 -153 -103 -282 -253 -282c-115 0 -163 95 -163 192c0 155 107 292 255 292zM193 11c78 0 179 125 179 320c0 95 -40 120 -74 120c-94 0 -182 -151 -182 -320c0 -108 56 -120 77 -120z" />
    <glyph glyph-name="p" unicode="p" horiz-adv-x="527" 
d="M135 -214h-216l5 22h29c25 0 36 5 41 24l150 550c4 14 5 21 5 28c0 9 -2 16 -13 16c-26 0 -73 -49 -96 -87l-18 12c43 66 107 122 157 122c45 0 46 -44 46 -53c0 -13 -1 -25 -5 -38l-14 -47h4c41 70 92 138 168 138c57 0 119 -38 119 -149c0 -129 -101 -335 -277 -335
c-50 0 -79 12 -100 29l-50 -186c-5 -20 8 -24 31 -24h39zM171 204l-37 -136c14 -39 47 -57 87 -57c111 0 196 213 196 335c0 82 -35 98 -54 98c-71 0 -168 -151 -192 -240z" />
    <glyph glyph-name="q" unicode="q" horiz-adv-x="538" 
d="M438 462h76l-182 -630c-6 -20 9 -24 31 -24h29l-5 -22h-216l5 22h39c26 0 35 4 41 24l92 315h-4c-59 -90 -112 -158 -194 -158c-55 0 -120 33 -120 129c0 161 148 355 307 355c51 0 74 -13 94 -36zM380 258l37 131c-2 45 -40 62 -72 62c-96 0 -239 -225 -239 -365
c0 -59 41 -68 59 -68c80 0 199 182 215 240z" />
    <glyph glyph-name="r" unicode="r" horiz-adv-x="360" 
d="M111 0h-76l109 382c3 10 6 19 6 28c0 11 -4 16 -14 16c-31 0 -80 -61 -96 -87l-18 12c33 52 97 122 157 122c32 0 47 -22 47 -53c0 -13 -2 -25 -6 -38l-34 -120h4c78 135 132 211 187 211c21 0 45 -13 45 -41c0 -23 -12 -46 -40 -46c-23 0 -39 16 -60 16
c-49 0 -170 -257 -178 -286z" />
    <glyph glyph-name="s" unicode="s" horiz-adv-x="373" 
d="M85 348c0 60 59 125 165 125c84 0 123 -38 123 -71c0 -20 -12 -39 -34 -39c-41 0 -42 34 -44 49s-10 39 -49 39c-55 0 -87 -37 -87 -69c0 -48 53 -86 97 -129c46 -46 71 -81 71 -128c0 -77 -80 -136 -171 -136c-96 0 -156 40 -156 88c0 33 24 44 40 44
c20 0 41 -17 41 -45c0 -7 -2 -13 -2 -20c0 -22 20 -45 68 -45c66 0 107 52 107 93c0 51 -52 85 -101 133c-40 38 -68 72 -68 111z" />
    <glyph glyph-name="t" unicode="t" horiz-adv-x="318" 
d="M235 622h25l-46 -160c24 0 71 2 132 15l-14 -46c-42 8 -81 9 -94 9h-30l-102 -353c-3 -10 -4 -20 -4 -30c0 -30 19 -39 34 -39c43 0 114 70 140 109l20 -12c-11 -16 -89 -126 -179 -126c-63 0 -87 41 -87 80c0 13 2 26 6 39l96 332h-92l6 22c110 -4 159 61 189 160z" />
    <glyph glyph-name="u" unicode="u" horiz-adv-x="534" 
d="M424 462h76l-110 -382c-3 -10 -6 -19 -6 -28c0 -11 4 -16 14 -16c31 0 80 61 96 87l18 -12c-33 -52 -97 -122 -157 -122c-32 0 -47 22 -47 53c0 13 2 25 6 38l33 114h-4c-101 -172 -163 -205 -215 -205c-46 0 -83 21 -83 65c0 21 12 60 15 68l84 260c5 15 6 23 6 28
c0 11 -4 16 -14 16c-31 0 -80 -61 -96 -87l-18 12c33 52 97 122 157 122c33 0 47 -22 47 -53c0 -13 -2 -25 -6 -38l-88 -274c-13 -41 -11 -56 -11 -60c0 -21 19 -22 27 -22c63 0 213 217 234 290z" />
    <glyph glyph-name="v" unicode="v" horiz-adv-x="482" 
d="M40 379l-18 10c23 43 54 82 108 82c14 0 28 -3 41 -6c23 -5 45 -11 71 -11c16 0 41 4 58 19l13 -14c-131 -143 -174 -224 -174 -324c0 -86 41 -117 85 -117c117 0 200 199 200 291c0 20 -4 40 -11 58c-11 27 -27 49 -27 72c0 19 12 34 32 34c40 0 44 -52 44 -91
c0 -189 -114 -393 -266 -393c-89 0 -140 75 -140 152c0 112 103 209 203 291l-2 4c-28 -19 -62 -30 -89 -30c-11 0 -22 1 -33 2c-16 2 -31 4 -47 4c-22 0 -34 -10 -48 -33z" />
    <glyph glyph-name="w" unicode="w" horiz-adv-x="692" 
d="M300 473l13 -14c-131 -143 -174 -224 -174 -324c0 -87 36 -117 75 -117c36 0 68 20 89 39c-15 28 -25 61 -25 102c0 124 120 307 205 307c9 0 36 -4 36 -52c0 -79 -52 -221 -157 -329c4 -23 19 -67 72 -67c117 0 200 195 200 291c0 20 -4 40 -11 58c-11 27 -27 49 -27 72
c0 19 12 34 32 34c40 0 44 -52 44 -91c0 -185 -113 -393 -266 -393c-38 0 -73 17 -93 50c-32 -29 -75 -50 -117 -50c-73 0 -140 59 -140 152c0 112 103 209 203 291l-2 4c-28 -19 -62 -30 -89 -30c-11 0 -22 1 -33 2c-16 2 -31 4 -47 4c-22 0 -34 -10 -48 -33l-18 10
c23 43 54 82 108 82c14 0 28 -3 41 -6c23 -5 45 -11 71 -11c16 0 41 4 58 19zM358 110c86 97 139 231 139 301c0 8 0 33 -18 33c-40 0 -124 -140 -124 -285c0 -16 1 -33 3 -49z" />
    <glyph glyph-name="x" unicode="x" horiz-adv-x="500" 
d="M221 207l-29 195c-3 21 -12 24 -23 24c-37 0 -82 -62 -98 -87l-20 12c35 55 96 122 157 122c54 0 57 -54 60 -71l17 -115l69 99c33 48 63 87 118 87c45 0 58 -26 58 -46c0 -21 -18 -34 -36 -34c-12 0 -28 4 -36 19c-5 10 -7 20 -21 20c-25 0 -57 -48 -70 -67l-77 -111
l29 -194c3 -21 12 -24 23 -24c37 0 82 62 98 87l20 -12c-35 -54 -96 -122 -157 -122c-46 0 -56 41 -60 71l-17 114l-68 -98c-37 -54 -72 -87 -123 -87c-46 0 -65 27 -65 53c0 25 20 39 40 39c25 0 34 -19 37 -27c5 -12 7 -28 23 -28c20 0 50 35 75 71z" />
    <glyph glyph-name="y" unicode="y" horiz-adv-x="514" 
d="M424 462h76l-97 -336c-96 -332 -269 -350 -322 -350c-67 0 -108 25 -108 64c0 25 17 46 41 46c39 0 40 -41 41 -53c2 -15 6 -35 40 -35c74 0 172 71 252 396h-4c-101 -172 -163 -205 -215 -205c-46 0 -83 21 -83 65c0 21 12 60 15 68l84 260c5 15 6 23 6 28
c0 11 -4 16 -14 16c-31 0 -80 -61 -96 -87l-18 12c33 52 97 122 157 122c33 0 47 -22 47 -53c0 -13 -2 -25 -6 -38l-88 -274c-13 -41 -11 -56 -11 -60c0 -21 19 -22 27 -22c63 0 213 217 234 290z" />
    <glyph glyph-name="z" unicode="z" horiz-adv-x="390" 
d="M378 473h22c-50 -215 -191 -220 -367 -424l3 -3c26 24 51 33 83 33c19 0 38 -2 57 -6c46 -10 71 -18 98 -18c30 0 49 19 66 43l20 -11c-46 -71 -81 -98 -138 -98c-17 0 -34 1 -50 4c-89 16 -85 33 -121 33c-23 0 -44 -12 -47 -37h-24c28 75 81 152 222 270
c85 71 125 99 154 154l-4 3c-25 -27 -56 -31 -75 -31c-13 0 -25 1 -38 3c-40 6 -67 16 -94 16c-30 0 -57 -13 -74 -38l-21 11c41 66 85 96 136 96c29 0 60 -9 90 -19c33 -11 47 -15 62 -15c37 0 40 26 40 34z" />
    <glyph glyph-name="braceleft" unicode="{" horiz-adv-x="360" 
d="M460 739l-3 -34c-83 -12 -104 -100 -112 -144c-14 -80 -48 -255 -189 -289c75 -28 80 -105 80 -123c0 -16 0 -53 -19 -117c-15 -53 -32 -89 -32 -127c0 -47 33 -63 56 -67l-14 -34c-94 11 -112 75 -112 127c0 25 6 49 13 73c18 64 34 117 34 182c0 18 -7 61 -62 65l10 41
c97 7 129 135 144 211c16 83 38 216 206 236z" />
    <glyph glyph-name="bar" unicode="|" horiz-adv-x="252" 
d="M156 -224v1053h40v-1053h-40z" />
    <glyph glyph-name="braceright" unicode="}" horiz-adv-x="360" 
d="M0 -196l3 34c83 12 104 100 112 144c14 80 48 255 189 289c-75 28 -80 105 -80 123c0 16 0 53 19 117c15 53 32 89 32 127c0 47 -33 63 -56 67l14 34c94 -11 112 -75 112 -127c0 -25 -6 -49 -13 -73c-18 -64 -34 -117 -34 -182c0 -18 7 -61 62 -65l-10 -41
c-97 -7 -129 -135 -144 -211c-16 -83 -38 -216 -206 -236z" />
    <glyph glyph-name="asciitilde" unicode="~" horiz-adv-x="602" 
d="M150 253h-30c15 58 71 112 138 112c61 0 148 -46 190 -46c35 0 55 28 64 46h30c-36 -79 -69 -112 -124 -112c-96 0 -48 47 -192 47c-32 0 -66 -21 -76 -47z" />
    <glyph glyph-name="afii10051" unicode="&#x402;" horiz-adv-x="774" 
d="M270 0h-178l7 28h47c14 0 40 3 50 45l144 580c1 4 4 19 -36 19c-57 0 -141 -38 -157 -101l-7 -27h-32l39 156h526l-39 -156h-32l5 26c9 47 -37 102 -139 102c-15 0 -32 -2 -36 -19l-60 -243c13 4 89 29 167 29c111 0 185 -56 185 -170c0 -151 -133 -277 -256 -277
c-67 0 -124 30 -124 85c0 38 24 68 61 68c29 0 44 -23 44 -50c0 -9 -3 -18 -9 -25c-5 -7 -14 -12 -14 -19c0 -14 14 -31 43 -31c90 0 155 159 155 263c0 72 -40 122 -112 122c-44 0 -107 -12 -148 -25z" />
    <glyph glyph-name="afii10052" unicode="&#x403;" horiz-adv-x="520" 
d="M292 0h-292l7 28h47c38 0 45 30 47 38l143 572c6 25 -14 34 -29 34h-57l7 28h455l-35 -142h-32l7 29c13 55 -92 85 -162 85h-15c-36 0 -46 -29 -50 -46l-141 -565c-2 -7 -3 -33 30 -33h77zM301 789l174 121c12 8 25 19 42 19c26 0 51 -22 51 -52c0 -38 -35 -47 -54 -52
l-204 -55z" />
    <glyph glyph-name="quotesinglbase" unicode="&#x201a;" horiz-adv-x="236" 
d="M28 -154l-12 21c29 18 99 66 99 104c0 14 -9 20 -19 28c-15 10 -36 26 -36 56c0 34 23 57 56 57c35 0 60 -29 60 -80c0 -80 -63 -135 -148 -186z" />
    <glyph glyph-name="afii10100" unicode="&#x453;" horiz-adv-x="362" 
d="M304 114l20 -16c-20 -33 -74 -109 -174 -109c-74 0 -120 39 -120 90c0 79 80 146 142 203c77 70 99 100 99 132c0 35 -30 37 -39 37c-41 0 -105 -28 -143 -82l-19 16c43 58 113 88 179 88c73 0 93 -47 93 -76c0 -68 -86 -137 -134 -183c-60 -58 -107 -100 -107 -149
c0 -34 24 -54 54 -54c53 0 116 48 149 103zM227 578l105 147c15 21 26 41 50 41c31 0 49 -27 49 -47c0 -24 -24 -38 -42 -51l-146 -105z" />
    <glyph glyph-name="quotedblbase" unicode="&#x201e;" horiz-adv-x="412" 
d="M28 -154l-12 21c29 18 99 66 99 104c0 14 -9 20 -19 28c-15 10 -36 26 -36 56c0 34 23 57 56 57c35 0 60 -29 60 -80c0 -80 -63 -135 -148 -186zM204 -154l-12 21c29 18 99 66 99 104c0 14 -9 20 -19 28c-15 10 -36 26 -36 56c0 34 23 57 56 57c35 0 60 -29 60 -80
c0 -80 -63 -135 -148 -186z" />
    <glyph glyph-name="ellipsis" unicode="&#x2026;" horiz-adv-x="680" 
d="M60 39c0 30 24 54 54 54s54 -24 54 -54s-24 -54 -54 -54s-54 24 -54 54zM286 39c0 30 24 54 54 54s54 -24 54 -54s-24 -54 -54 -54s-54 24 -54 54zM512 39c0 30 24 54 54 54s54 -24 54 -54s-24 -54 -54 -54s-54 24 -54 54z" />
    <glyph glyph-name="dagger" unicode="&#x2020;" horiz-adv-x="550" 
d="M222 -214h-40l73 295c29 118 40 170 31 236c27 36 55 91 66 132c-24 0 -41 -5 -69 -15c-41 -15 -60 -25 -82 -25c-39 0 -48 22 -48 43c0 38 37 65 75 65c24 0 49 -18 69 -27c25 -11 46 -15 62 -16c3 15 7 34 7 51c0 55 -10 17 -10 105c0 60 43 84 79 84
c29 0 43 -16 43 -43c0 -62 -64 -81 -91 -197c28 0 45 7 69 16c40 16 61 27 82 27c44 0 48 -29 48 -43c0 -38 -37 -65 -75 -65c-54 0 -70 39 -130 40c-6 -22 -7 -43 -7 -66c0 -15 2 -39 8 -66c-43 -69 -61 -131 -87 -236z" />
    <glyph glyph-name="daggerdbl" unicode="&#x2021;" horiz-adv-x="550" 
d="M185 -214l11 45c26 105 23 155 16 192c34 51 54 88 67 137c-24 0 -41 -5 -69 -15c-41 -15 -60 -25 -82 -25c-39 0 -48 22 -48 43c0 38 37 65 75 65c24 0 49 -18 69 -27c25 -11 46 -15 62 -16c6 23 7 41 7 66c0 26 -2 44 -7 66c13 17 49 66 66 132c-24 0 -41 -5 -69 -15
c-41 -15 -60 -25 -82 -25c-39 0 -48 22 -48 43c0 38 37 65 75 65c24 0 49 -18 69 -27c25 -11 46 -15 62 -16c3 15 7 34 7 51c0 55 -10 17 -10 105c0 60 43 84 79 84c29 0 43 -16 43 -43c0 -62 -64 -81 -91 -197c28 0 45 7 69 16c40 16 61 27 82 27c44 0 48 -29 48 -43
c0 -38 -37 -65 -75 -65c-54 0 -70 39 -130 40c-6 -22 -7 -43 -7 -66c0 -15 2 -39 8 -66c-35 -49 -53 -80 -67 -132c28 0 45 7 69 16c40 16 61 27 82 27c44 0 48 -29 48 -43c0 -38 -37 -65 -75 -65c-54 0 -70 39 -130 40c-6 -23 -7 -41 -7 -66c0 -26 2 -44 7 -66
c-48 -77 -68 -145 -80 -192l-13 -50h-31z" />
    <glyph glyph-name="Yat'" horiz-adv-x="773" 
d="M127 640h230l6 27c3 14 12 45 -26 45h-57l7 28h272l-7 -28h-47c-13 0 -41 -3 -50 -45l-6 -27h249l-39 -156h-32l5 26c13 69 -86 102 -159 102c-12 0 -32 -2 -36 -19l-45 -180c35 7 70 10 106 10c186 0 235 -91 235 -175c0 -80 -46 -248 -333 -248h-298l7 28h57
c14 0 38 1 49 45l126 506c5 20 5 33 -50 33c-68 0 -153 -36 -176 -105l-6 -18h-32zM385 385l-83 -334c29 -14 58 -23 93 -23c135 0 238 100 238 227c0 128 -108 138 -158 138c-34 0 -62 -3 -90 -8z" />
    <glyph glyph-name="perthousand" unicode="&#x2030;" horiz-adv-x="1252" 
d="M825 750l21 -20l-781 -800l-20 21l624 639c-29 -15 -83 -39 -145 -39c-26 0 -81 4 -112 56c2 -121 -73 -228 -170 -228c-59 0 -137 28 -137 118c0 89 65 217 195 217c25 0 44 -5 63 -21c73 33 65 -118 164 -118c85 0 201 56 298 175zM383 624c-15 11 -28 32 -24 47
c-5 7 -17 18 -43 18c-69 0 -137 -108 -137 -200c0 -52 28 -80 64 -80c66 0 142 92 142 194c0 7 -1 14 -2 21zM480 104c0 97 68 218 193 218c73 0 113 -42 113 -112c0 -99 -58 -224 -170 -224c-78 0 -136 47 -136 118zM554 96c0 -42 20 -79 63 -79c75 0 141 88 141 193
c0 68 -40 84 -72 84c-73 0 -132 -110 -132 -198zM859 104c0 97 68 218 193 218c73 0 113 -42 113 -112c0 -99 -58 -224 -170 -224c-78 0 -136 47 -136 118zM933 96c0 -42 20 -79 63 -79c75 0 141 88 141 193c0 68 -40 84 -72 84c-73 0 -132 -110 -132 -198z" />
    <glyph glyph-name="afii10058" unicode="&#x409;" horiz-adv-x="976" 
d="M261 700h491l-7 -28h-47c-14 0 -40 -3 -50 -45l-53 -214c35 7 70 10 106 10c186 0 235 -91 235 -175c0 -80 -46 -248 -333 -248h-288l7 28h47c16 0 39 3 49 45l138 554c4 14 11 45 -26 45h-42c-93 0 -67 -1 -172 -287c-86 -231 -149 -399 -252 -399c-42 0 -84 28 -84 85
c0 46 32 68 61 68c30 0 44 -23 44 -50c0 -9 -3 -18 -8 -25c-5 -6 -12 -12 -12 -19c0 -8 6 -16 25 -16c31 0 66 45 144 245c23 58 124 327 124 366c0 29 -28 32 -38 32h-66zM588 385l-83 -334c29 -14 58 -23 93 -23c135 0 238 100 238 227c0 128 -108 138 -158 138
c-34 0 -62 -3 -90 -8z" />
    <glyph glyph-name="quilsinglleft" horiz-adv-x="454" 
d="M193 231l150 -215l-18 -16c-73 81 -156 158 -256 231c135 75 244 148 354 231l12 -18z" />
    <glyph glyph-name="afii10059" unicode="&#x40a;" horiz-adv-x="1056" 
d="M165 700h272l-7 -28h-47c-14 0 -39 -3 -50 -45l-57 -228h303l57 228c11 44 -12 45 -26 45h-57l7 28h272l-7 -28h-47c-14 0 -40 -3 -50 -45l-53 -214c35 7 70 10 106 10c186 0 235 -91 235 -175c0 -80 -46 -248 -333 -248h-288l7 28h47c16 0 39 3 49 45l74 298h-303
l-74 -298c-10 -42 13 -45 27 -45h57l-7 -28h-272l7 28h47c16 0 39 3 49 45l138 554c11 44 -12 45 -26 45h-57zM668 385l-83 -334c29 -14 58 -23 93 -23c135 0 238 100 238 227c0 128 -108 138 -158 138c-34 0 -62 -3 -90 -8z" />
    <glyph glyph-name="afii10061" unicode="&#x40c;" horiz-adv-x="685" 
d="M275 393h48c53 0 90 29 174 162c54 83 103 159 182 159c47 0 56 -36 56 -50c0 -35 -22 -65 -56 -65c-28 0 -43 18 -43 33c0 6 0 11 1 17c1 4 1 8 0 12c-1 5 -5 7 -10 7c-21 0 -44 -47 -64 -88c-66 -135 -129 -182 -184 -200l-2 -5c118 -17 148 -135 165 -258
c5 -39 8 -88 32 -88c15 0 41 18 45 44h27c-16 -61 -64 -87 -104 -87c-113 0 -112 196 -148 315c-12 40 -33 64 -78 64h-48l-73 -292c-10 -42 13 -45 27 -45h57l-7 -28h-272l7 28h47c14 0 38 1 49 45l138 554c11 44 -12 45 -26 45h-57l7 28h272l-7 -28h-47
c-14 0 -40 -3 -50 -45zM384 789l174 121c12 8 25 19 42 19c26 0 51 -22 51 -52c0 -38 -35 -47 -54 -52l-204 -55z" />
    <glyph glyph-name="afii10060" unicode="&#x40b;" horiz-adv-x="749" 
d="M344 0h-252l7 28h47c14 0 40 3 50 45l144 580c1 4 4 19 -36 19c-74 0 -143 -47 -157 -101l-7 -27h-32l39 156h526l-39 -156h-32l5 26c12 60 -55 102 -139 102c-10 0 -32 -2 -36 -19l-69 -280c76 36 145 42 178 42c130 0 147 -65 147 -104c0 -14 -2 -28 -6 -42l-49 -196
c-4 -14 -11 -45 26 -45h47l-7 -28h-252l7 28h37c14 0 40 3 50 45l50 203c4 16 6 30 6 45c0 42 -36 57 -80 57c-48 0 -114 -12 -161 -33l-68 -272c-4 -14 -11 -45 26 -45h37z" />
    <glyph glyph-name="afii10145" unicode="&#x40f;" horiz-adv-x="753" 
d="M658 0h-307l-10 -133c-5 -67 -28 -77 -64 -77c-15 0 -44 1 -44 32c0 15 5 28 12 44l62 134h-307l7 28h47c14 0 40 3 50 45l138 554c10 42 -13 45 -27 45h-57l7 28h272l-7 -28h-47c-16 0 -39 -3 -49 -45l-138 -554c-11 -44 12 -45 26 -45h218c14 0 40 3 50 45l138 554
c10 42 -13 45 -27 45h-57l7 28h272l-7 -28h-47c-16 0 -39 -3 -49 -45l-138 -554c-11 -44 12 -45 26 -45h57z" />
    <glyph glyph-name="afii10099" unicode="&#x452;" horiz-adv-x="481" 
d="M91 0h-76l155 565h-129l5 22h130l19 69c13 46 -15 47 -37 47h-31l6 22c55 5 126 29 172 55l-53 -193h186l-5 -22h-187l-67 -247h5c24 47 84 155 155 155c40 0 106 -28 106 -160c0 -199 -153 -537 -329 -537c-70 0 -101 44 -101 83c0 19 9 47 40 47c19 0 41 -8 41 -44
c0 -11 -5 -21 -5 -32c0 -9 6 -32 38 -32c118 0 240 413 240 558c0 45 -8 84 -42 84c-48 0 -158 -157 -182 -244z" />
    <glyph glyph-name="quoteleft" unicode="&#x2018;" horiz-adv-x="236" 
d="M304 714l12 -21c-29 -18 -99 -66 -99 -104c0 -14 9 -20 19 -28c15 -10 36 -26 36 -56c0 -34 -23 -57 -56 -57c-35 0 -60 29 -60 80c0 80 63 135 148 186z" />
    <glyph glyph-name="quoteright" unicode="&#x2019;" horiz-adv-x="236" 
d="M128 448l-12 21c29 18 99 66 99 104c0 14 -9 20 -19 28c-15 10 -36 26 -36 56c0 34 23 57 56 57c35 0 60 -29 60 -80c0 -80 -63 -135 -148 -186z" />
    <glyph glyph-name="quotedblleft" unicode="&#x201c;" horiz-adv-x="412" 
d="M304 714l12 -21c-29 -18 -99 -66 -99 -104c0 -14 9 -20 19 -28c15 -10 36 -26 36 -56c0 -34 -23 -57 -56 -57c-35 0 -60 29 -60 80c0 80 63 135 148 186zM480 714l12 -21c-29 -18 -99 -66 -99 -104c0 -14 9 -20 19 -28c15 -10 36 -26 36 -56c0 -34 -23 -57 -56 -57
c-35 0 -60 29 -60 80c0 80 63 135 148 186z" />
    <glyph glyph-name="quotedblright" unicode="&#x201d;" horiz-adv-x="412" 
d="M128 448l-12 21c29 18 99 66 99 104c0 14 -9 20 -19 28c-15 10 -36 26 -36 56c0 34 23 57 56 57c35 0 60 -29 60 -80c0 -80 -63 -135 -148 -186zM304 448l-12 21c29 18 99 66 99 104c0 14 -9 20 -19 28c-15 10 -36 26 -36 56c0 34 23 57 56 57c35 0 60 -29 60 -80
c0 -80 -63 -135 -148 -186z" />
    <glyph glyph-name="bullet" unicode="&#x2022;" horiz-adv-x="700" 
d="M250 350c0 73 57 130 130 130s130 -57 130 -130s-57 -130 -130 -130s-130 57 -130 130z" />
    <glyph glyph-name="endash" unicode="&#x2013;" horiz-adv-x="700" 
d="M120 252v34h520v-34h-520z" />
    <glyph glyph-name="emdash" unicode="&#x2014;" horiz-adv-x="860" 
d="M800 286v-34h-700v34h700z" />
    <glyph glyph-name="yat'" horiz-adv-x="702" 
d="M110 0h-76l110 382c3 10 6 19 6 28c0 11 -4 16 -14 16c-31 0 -80 -61 -96 -87l-18 12c33 52 97 122 157 122c38 0 47 -30 47 -53c0 -13 -2 -25 -6 -38l-13 -46h4c72 124 137 137 170 137c53 0 76 -32 76 -75c0 -13 -3 -26 -8 -39l-42 -121h4c31 50 86 85 141 85
c64 0 120 -42 120 -118c0 -117 -111 -216 -221 -216c-100 0 -145 66 -145 132c0 24 4 47 12 72l54 161c5 15 10 38 10 53c0 16 -8 29 -26 29c-54 0 -160 -141 -183 -219zM369 91c0 -55 33 -80 68 -80c79 0 155 109 155 204c0 65 -35 79 -55 79c-64 0 -168 -103 -168 -203z
" />
    <glyph glyph-name="trademark" unicode="&#x2122;" horiz-adv-x="910" 
d="M160 700h280v-87h-23v15c0 37 -59 50 -74 50c-11 0 -13 -7 -13 -15v-225c0 -14 10 -16 24 -16h25v-22h-158v22h26c13 0 23 2 23 16v225c0 8 -2 15 -13 15c-14 0 -73 -13 -73 -50v-15h-24v87zM594 700l93 -212l94 212h109v-22h-25c-13 0 -23 -2 -23 -16v-224
c0 -14 10 -16 23 -16h25v-22h-157v22h25c15 0 23 3 23 16v210l-109 -248h-12l-110 248v-139c0 -38 1 -87 30 -87h13v-22h-115v22h18c29 0 30 49 30 87v153c0 14 -10 16 -24 16h-23v22h115z" />
    <glyph glyph-name="afii10106" unicode="&#x459;" horiz-adv-x="672" 
d="M140 462h296l-65 -224h4c27 37 78 85 153 85s114 -53 114 -118c0 -117 -107 -216 -215 -216c-85 0 -155 45 -155 132c0 24 3 48 10 72l67 232c2 8 -3 15 -17 15h-42c-49 0 -38 -12 -98 -188c-61 -178 -99 -263 -164 -263c-36 0 -60 19 -60 48c0 24 17 42 40 42
c12 0 25 -7 32 -19c4 -7 7 -19 19 -19c22 0 47 45 95 180c56 157 56 184 56 190c0 30 -32 29 -41 29h-36zM339 91c0 -55 33 -80 68 -80c79 0 155 109 155 204c0 65 -35 79 -55 79c-64 0 -168 -103 -168 -203z" />
    <glyph glyph-name="quilsinglright" horiz-adv-x="454" 
d="M311 231l-150 215l18 16c73 -81 156 -158 256 -231c-135 -75 -244 -148 -354 -231l-12 18z" />
    <glyph glyph-name="afii10107" unicode="&#x45a;" horiz-adv-x="712" 
d="M333 232h-156l-66 -232h-76l109 382c3 10 6 19 6 28c0 11 -4 16 -14 16c-31 0 -80 -61 -96 -87l-18 12c33 52 97 122 157 122c32 0 47 -22 47 -53c0 -13 -2 -25 -6 -38l-36 -128h156l60 208h76l-65 -224h4c27 37 78 85 153 85s114 -53 114 -118
c0 -117 -107 -216 -215 -216c-85 0 -155 45 -155 132c0 24 3 47 10 72zM379 91c0 -55 33 -80 68 -80c79 0 155 109 155 204c0 65 -35 79 -55 79c-64 0 -168 -103 -168 -203z" />
    <glyph glyph-name="afii10109" unicode="&#x45c;" horiz-adv-x="492" 
d="M111 0h-76l109 382c3 10 6 19 6 28c0 11 -4 16 -14 16c-31 0 -80 -61 -96 -87l-18 12c33 52 97 122 157 122c32 0 47 -22 47 -53c0 -13 -2 -25 -6 -38l-36 -126h21c62 0 91 55 124 115c47 83 66 102 110 102c30 0 53 -14 53 -46c0 -24 -13 -40 -36 -40
c-29 0 -36 23 -37 26c-3 11 2 24 -11 24c-16 0 -31 -41 -39 -58c-30 -66 -64 -119 -128 -133v-4c73 -12 94 -78 102 -115c9 -38 11 -85 33 -85c19 0 53 49 70 81l20 -12c-31 -61 -81 -122 -125 -122c-54 0 -61 64 -78 135c-22 93 -40 110 -71 110h-14zM292 578l105 147
c15 21 26 41 50 41c31 0 49 -27 49 -47c0 -24 -24 -38 -42 -51l-146 -105z" />
    <glyph glyph-name="afii10108" unicode="&#x45b;" horiz-adv-x="513" 
d="M91 0h-76l155 565h-129l5 22h130l19 69c13 46 -15 47 -37 47h-31l6 22c55 5 126 29 172 55l-52 -193h185l-5 -22h-186l-81 -297h4c101 172 163 205 215 205c46 0 83 -21 83 -65c0 -21 -12 -60 -15 -68l-84 -260c-5 -15 -6 -23 -6 -28c0 -11 4 -16 14 -16
c31 0 80 61 96 87l18 -12c-33 -52 -97 -122 -157 -122c-33 0 -47 22 -47 53c0 13 2 25 6 38l88 274c13 41 11 56 11 60c0 21 -19 22 -27 22c-62 0 -214 -217 -234 -290z" />
    <glyph glyph-name="afii10193" unicode="&#x45f;" horiz-adv-x="534" 
d="M424 462h76l-110 -382c-3 -10 -6 -19 -6 -28c0 -11 4 -16 14 -16c31 0 80 61 96 87l18 -12c-33 -52 -97 -122 -157 -122c-32 0 -47 22 -47 53c0 13 2 25 6 38l33 114h-4c-101 -172 -163 -205 -215 -205c-46 0 -83 21 -83 65c0 21 12 60 15 68l84 260c5 15 6 23 6 28
c0 11 -4 16 -14 16c-31 0 -80 -61 -96 -87l-18 12c33 52 97 122 157 122c33 0 47 -22 47 -53c0 -13 -2 -25 -6 -38l-88 -274c-13 -41 -11 -56 -11 -60c0 -21 19 -22 27 -22c63 0 213 217 234 290zM163 -224l-10 23c33 10 51 33 51 50c0 12 -2 23 -5 35c-2 10 -3 20 -3 30
c0 40 38 78 64 116h22c-38 -49 -8 -83 -7 -127c1 -52 -33 -103 -112 -127z" />
    <glyph glyph-name="afii10062" unicode="&#x40e;" horiz-adv-x="646" 
d="M134 700h264l-7 -28h-52c-20 0 -30 -20 -26 -33l105 -375l163 276c22 37 45 80 45 106c0 27 -17 26 -28 26h-51l7 28h192l-7 -28c-38 4 -64 -29 -111 -109l-253 -436c-65 -112 -137 -141 -195 -141s-94 36 -94 85c0 46 31 68 61 68c29 0 44 -23 44 -50
c0 -9 -3 -18 -9 -25c-5 -6 -14 -12 -14 -19c0 -9 7 -26 38 -26c29 0 83 22 143 132l-138 470c-11 36 -30 51 -63 51h-21zM652 875l19 -16c-78 -105 -145 -119 -186 -119c-90 0 -126 42 -126 79c0 30 19 66 65 66c35 0 60 -20 60 -52c0 -20 -4 -24 -4 -35c0 -10 9 -25 34 -25
c33 0 82 25 138 102z" />
    <glyph glyph-name="afii10110" unicode="&#x45e;" horiz-adv-x="514" 
d="M424 462h76l-97 -336c-96 -332 -269 -350 -322 -350c-67 0 -108 25 -108 64c0 25 17 46 41 46c39 0 40 -41 41 -53c2 -15 6 -35 40 -35c74 0 172 71 252 396h-4c-101 -172 -163 -205 -215 -205c-46 0 -83 21 -83 65c0 21 12 60 15 68l84 260c5 15 6 23 6 28
c0 11 -4 16 -14 16c-31 0 -80 -61 -96 -87l-18 12c33 52 97 122 157 122c33 0 47 -22 47 -53c0 -13 -2 -25 -6 -38l-88 -274c-13 -41 -11 -56 -11 -60c0 -21 19 -22 27 -22c63 0 213 217 234 290zM491 700l16 -12c-43 -58 -108 -120 -183 -120c-68 0 -104 41 -104 71
c0 25 14 54 48 54c28 0 40 -19 40 -37c0 -33 -4 -20 -4 -35c0 -14 13 -25 36 -25c57 0 111 57 151 104z" />
    <glyph glyph-name="afii10057" unicode="&#x408;" horiz-adv-x="367" 
d="M165 700h272l-7 -28h-47c-11 0 -39 -1 -50 -45l-129 -520c-9 -35 -82 -331 -306 -331c-68 0 -101 39 -101 80c0 34 21 67 60 67c36 0 53 -26 53 -52c0 -8 -2 -15 -5 -22s-7 -13 -7 -20c0 -9 2 -25 27 -25c57 0 128 68 172 244l144 579c4 14 11 45 -26 45h-57z" />
    <glyph glyph-name="currency" unicode="&#xa4;" horiz-adv-x="842" 
d="M178 39l-28 27l100 101c-49 56 -69 123 -69 183s20 127 69 183l-100 100l28 27l100 -99c56 49 123 69 183 69s127 -20 183 -69l100 99l28 -27l-100 -100c49 -56 69 -123 69 -183s-20 -127 -69 -183l100 -101l-28 -27l-100 100c-56 -49 -123 -69 -183 -69s-127 20 -183 69
zM221 350c0 -133 107 -240 240 -240s240 107 240 240s-107 240 -240 240s-240 -107 -240 -240z" />
    <glyph glyph-name="afii10050" unicode="&#x490;" horiz-adv-x="480" 
d="M292 0h-292l7 28h47c38 0 45 30 47 38l142 572c8 30 -19 34 -28 34h-57l7 28h174c78 0 223 30 242 94l7 24h32l-37 -146h-200c-26 0 -45 -21 -48 -34l-143 -577c-2 -7 -3 -33 30 -33h77z" />
    <glyph glyph-name="brokenbar" unicode="&#xa6;" horiz-adv-x="252" 
d="M156 429v400h40v-400h-40zM156 -224v400h40v-400h-40z" />
    <glyph glyph-name="section" unicode="&#xa7;" horiz-adv-x="600" 
d="M266 473c-13 17 -19 34 -19 56c0 78 60 185 193 185c87 0 140 -41 140 -87c0 -29 -18 -56 -57 -56c-29 0 -46 21 -46 39c0 28 10 8 10 43c0 11 -14 30 -63 30c-66 0 -106 -55 -106 -108c0 -38 18 -55 42 -77l120 -114c48 -46 54 -100 54 -126c0 -55 -32 -138 -132 -197
c22 -31 26 -62 26 -83c0 -91 -81 -178 -191 -178c-61 0 -137 36 -137 104c0 50 37 66 66 66c35 0 43 -28 43 -46c0 -29 -17 -7 -17 -49c0 -14 4 -44 49 -44c62 0 112 54 112 108c0 27 -5 63 -34 91l-127 123c-24 24 -51 59 -51 120c0 78 52 158 125 200zM420 319l-140 136
c-42 -30 -78 -85 -78 -135c0 -40 14 -65 30 -81l157 -160c48 35 78 97 78 148c0 47 -26 71 -47 92z" />
    <glyph glyph-name="afii10023" unicode="&#x401;" horiz-adv-x="587" 
d="M165 700h472l-35 -142h-32l7 29c16 65 -131 85 -179 85h-15c-36 0 -46 -29 -50 -46l-61 -244h45c133 0 145 39 150 57l7 25h32l-48 -192h-32l6 25c4 16 5 34 -24 45c-28 11 -76 12 -98 12h-45l-70 -281c-11 -46 19 -45 27 -45h14c57 0 243 38 263 104l7 23h32l-52 -155
h-486l7 28h47c16 0 39 3 49 45l138 554c11 44 -12 45 -26 45h-57zM255 810c0 33 27 60 60 60s60 -27 60 -60s-27 -60 -60 -60s-60 27 -60 60zM481 810c0 33 27 60 60 60s60 -27 60 -60s-27 -60 -60 -60s-60 27 -60 60z" />
    <glyph glyph-name="copyright" unicode="&#xa9;" horiz-adv-x="864" 
d="M100 350c0 200 164 364 364 364s364 -164 364 -364s-164 -364 -364 -364s-364 164 -364 364zM140 350c0 -180 144 -324 324 -324s324 144 324 324s-144 324 -324 324s-324 -144 -324 -324zM585 560h22l8 -111h-22l-2 26c-18 48 -75 71 -120 71c-64 0 -140 -61 -140 -198
s78 -188 152 -188c52 0 101 26 132 99l22 -7c-29 -72 -80 -120 -173 -120c-139 0 -208 108 -208 217c0 106 69 219 217 219c35 0 72 -6 112 -25v17z" />
    <glyph glyph-name="afii10053" unicode="&#x404;" horiz-adv-x="676" 
d="M684 700h32l-47 -185h-32l6 26c11 47 -19 145 -128 145c-164 0 -255 -198 -290 -303h112c63 0 126 3 203 16l-16 -65c-64 10 -173 21 -249 21h-57c-9 -29 -18 -72 -18 -133c0 -117 60 -195 165 -195c99 0 180 80 245 179l26 -18c-71 -107 -158 -202 -300 -202
c-157 0 -236 115 -236 251c0 175 134 477 429 477c87 0 127 -28 147 -43z" />
    <glyph glyph-name="guillemotleft" unicode="&#xab;" 
d="M193 231l150 -215l-18 -16c-73 81 -156 158 -256 231c135 75 244 148 354 231l12 -18zM356 231l87 -151l-18 -14c-64 75 -80 95 -158 165c93 59 149 100 228 165l12 -16z" />
    <glyph glyph-name="logicalnot" unicode="&#xac;" horiz-adv-x="700" 
d="M120 380v40h520v-190h-40v150h-480z" />
    <glyph glyph-name="hyphen" unicode="-" horiz-adv-x="400" 
d="M340 299v-60h-240v60h240z" />
    <glyph glyph-name="hyphen" unicode="&#xad;" horiz-adv-x="400" 
d="M340 299v-60h-240v60h240z" />
    <glyph glyph-name="registered" unicode="&#xae;" horiz-adv-x="864" 
d="M100 350c0 200 164 364 364 364s364 -164 364 -364s-164 -364 -364 -364s-364 164 -364 364zM140 350c0 -180 144 -324 324 -324s324 144 324 324s-144 324 -324 324s-324 -144 -324 -324zM284 560h166c64 0 182 -3 182 -107c0 -78 -78 -112 -148 -111v-4
c60 -16 111 -61 142 -149c3 -7 10 -31 26 -31c2 0 3 0 5 1v-22c-8 -3 -16 -5 -24 -5c-70 0 -100 96 -120 137c-17 36 -44 68 -107 70v-150c0 -14 5 -27 23 -27h34v-22h-179v22h34c8 0 23 1 23 27v322c0 26 -15 27 -23 27h-34v22zM406 531v-170c23 -4 41 -4 49 -4
c89 0 105 57 105 96c0 33 -17 85 -104 85c-19 0 -34 -2 -50 -7z" />
    <glyph glyph-name="afii10056" unicode="&#x407;" horiz-adv-x="367" 
d="M272 0h-272l7 28h47c16 0 39 3 49 45l138 554c11 44 -12 45 -26 45h-57l7 28h272l-7 -28h-47c-14 0 -40 -3 -50 -45l-138 -554c-11 -44 19 -45 27 -45h57zM165 810c0 33 27 60 60 60s60 -27 60 -60s-27 -60 -60 -60s-60 27 -60 60zM351 810c0 33 27 60 60 60
s60 -27 60 -60s-27 -60 -60 -60s-60 27 -60 60z" />
    <glyph glyph-name="degree" unicode="&#xb0;" horiz-adv-x="354" 
d="M160 607c0 61 48 107 107 107c60 0 107 -47 107 -107c0 -59 -46 -107 -107 -107c-60 0 -107 47 -107 107zM196 607c0 -38 33 -71 71 -71c39 0 71 34 71 71c0 38 -33 71 -71 71c-37 0 -71 -32 -71 -71z" />
    <glyph glyph-name="plusminus" unicode="&#xb1;" horiz-adv-x="700" 
d="M120 380v40h240v220h40v-220h240v-40h-240v-210h-40v210h-240zM120 50v40h520v-40h-520z" />
    <glyph glyph-name="Fita" horiz-adv-x="765" 
d="M356 -14c-94 0 -256 40 -256 267c0 141 68 302 189 392c65 49 126 69 201 69c181 0 255 -130 255 -266c0 -132 -60 -296 -189 -394c-63 -48 -128 -68 -200 -68zM358 14c108 0 233 120 278 353c-42 -38 -95 -88 -150 -88c-38 0 -73 35 -93 54c-18 17 -48 48 -81 48
c-31 0 -74 -25 -103 -51c-5 -27 -9 -54 -9 -81c0 -180 78 -235 158 -235zM217 369c85 67 129 74 151 74c34 0 62 -23 87 -46c26 -24 53 -47 87 -47c27 0 62 27 99 53c2 15 4 29 4 44c0 64 2 239 -159 239c-137 0 -234 -165 -269 -317z" />
    <glyph glyph-name="fita" horiz-adv-x="488" 
d="M291 473c116 0 161 -96 161 -202c0 -153 -103 -282 -253 -282c-115 0 -163 95 -163 192c0 155 107 292 255 292zM122 202c-5 -24 -6 -47 -6 -71c0 -95 42 -120 77 -120c43 0 128 35 168 223c-13 -16 -50 -58 -89 -58c-28 0 -42 18 -55 36c-11 16 -21 32 -41 32
c-22 0 -45 -27 -54 -42zM366 265c4 22 6 44 6 66c0 95 -39 120 -74 120c-67 0 -148 -89 -168 -212c16 25 50 59 80 59c31 0 48 -18 62 -36c11 -13 25 -31 47 -31c17 0 32 16 47 34z" />
    <glyph glyph-name="afii10098" unicode="&#x491;" horiz-adv-x="350" 
d="M101 0h-76l111 389c14 50 -24 50 -38 50h-26l7 23h131c36 0 173 11 191 91l2 9h22l-35 -123h-140c-8 0 -24 0 -30 -23z" />
    <glyph glyph-name="mu" unicode="&#xb5;" horiz-adv-x="539" 
d="M427 462h76l-108 -382c-3 -11 -6 -19 -6 -28c0 -11 4 -16 14 -16c31 0 80 61 96 87l18 -12c-42 -66 -107 -122 -157 -122c-32 0 -42 25 -42 53c0 11 2 22 6 33l3 9h-6c-27 -41 -81 -95 -151 -95c-76 0 -91 56 -92 90h-7c-29 -119 1 -303 -100 -303c-34 0 -51 23 -51 55
c0 95 60 72 149 383l71 248h76l-92 -326c-3 -10 -5 -19 -5 -29c0 -62 61 -60 69 -60c65 0 138 60 157 127z" />
    <glyph glyph-name="mu" unicode="&#x3bc;" horiz-adv-x="539" 
d="M427 462h76l-108 -382c-3 -11 -6 -19 -6 -28c0 -11 4 -16 14 -16c31 0 80 61 96 87l18 -12c-42 -66 -107 -122 -157 -122c-32 0 -42 25 -42 53c0 11 2 22 6 33l3 9h-6c-27 -41 -81 -95 -151 -95c-76 0 -91 56 -92 90h-7c-29 -119 1 -303 -100 -303c-34 0 -51 23 -51 55
c0 95 60 72 149 383l71 248h76l-92 -326c-3 -10 -5 -19 -5 -29c0 -62 61 -60 69 -60c65 0 138 60 157 127z" />
    <glyph glyph-name="paragraph" unicode="&#xb6;" horiz-adv-x="590" 
d="M210 -214h-40l140 564c-80 -5 -170 38 -170 141c0 73 27 209 270 209h280l-7 -28h-112l-221 -886h-40l221 886h-100z" />
    <glyph glyph-name="periodcentered" unicode="&#xb7;" horiz-adv-x="268" 
d="M100 269c0 30 24 54 54 54s54 -24 54 -54s-24 -54 -54 -54s-54 24 -54 54z" />
    <glyph glyph-name="periodcentered" unicode="&#x2219;" horiz-adv-x="268" 
d="M100 269c0 30 24 54 54 54s54 -24 54 -54s-24 -54 -54 -54s-54 24 -54 54z" />
    <glyph glyph-name="afii10071" unicode="&#x451;" horiz-adv-x="448" 
d="M372 156l22 -12c-26 -47 -97 -155 -221 -155c-84 0 -143 62 -143 165c0 155 156 319 295 319c72 0 103 -46 103 -93c0 -73 -90 -161 -306 -175c-10 -28 -16 -62 -16 -91c0 -56 30 -96 86 -96c82 0 149 85 180 138zM131 231c163 8 233 113 233 168c0 30 -17 52 -45 52
c-60 0 -142 -90 -188 -220zM218 651c0 29 21 50 50 50s50 -21 50 -50s-21 -50 -50 -50s-50 21 -50 50zM378 651c0 29 21 50 50 50s50 -21 50 -50s-21 -50 -50 -50s-50 21 -50 50z" />
    <glyph glyph-name="numero" horiz-adv-x="1090" 
d="M249 700h159l225 -523l102 398c31 122 95 139 149 139c62 0 79 -35 79 -65c0 -38 -28 -57 -54 -57c-29 0 -48 20 -48 41c0 8 4 16 4 25c0 11 -8 15 -21 15c-36 0 -63 -49 -75 -98l-146 -589h-28l-225 543l-101 -403c-14 -55 -45 -140 -149 -140c-54 0 -80 30 -80 66
c0 38 28 57 55 57c32 0 48 -22 48 -40c0 -9 -4 -17 -4 -26c0 -11 8 -15 21 -15c36 0 63 49 75 98l113 450l-20 39c-24 46 -56 59 -86 57zM881 158c-77 0 -121 54 -121 131c0 110 89 171 177 171c77 0 123 -52 123 -130c0 -89 -78 -172 -179 -172zM887 180
c65 0 104 101 104 185c0 14 -4 73 -60 73c-66 0 -103 -105 -103 -184c0 -62 36 -74 59 -74zM952 0h-240l15 60h240z" />
    <glyph glyph-name="afii10101" unicode="&#x454;" horiz-adv-x="426" 
d="M363 159l22 -12c-28 -63 -92 -158 -204 -158c-101 0 -145 81 -145 176c0 166 128 308 269 308c65 0 111 -30 111 -71c0 -25 -17 -40 -40 -40c-36 0 -42 29 -44 43c-3 17 -7 45 -47 45c-67 0 -133 -110 -154 -199c27 23 60 32 88 32c20 0 39 -7 59 -14
c18 -7 36 -13 54 -13c12 0 23 6 34 13l-3 -22c-39 -27 -66 -36 -98 -36c-20 0 -38 7 -57 14c-17 7 -34 14 -51 14c-10 0 -21 -3 -31 -8c-7 -28 -10 -56 -10 -84c0 -64 17 -129 88 -129c69 0 122 67 159 141z" />
    <glyph glyph-name="guillemotright" unicode="&#xbb;" 
d="M383 231l-150 215l18 16c73 -81 156 -158 256 -231c-135 -75 -244 -148 -354 -231l-12 18zM220 231l-87 151l18 14c64 -75 80 -95 158 -165c-93 -59 -149 -100 -228 -165l-12 16z" />
    <glyph glyph-name="afii10105" unicode="&#x458;" horiz-adv-x="256" 
d="M40 339l-18 12c43 66 107 122 157 122c30 0 46 -21 46 -53c0 -13 -2 -25 -5 -38l-98 -360c-32 -119 -111 -246 -214 -246c-48 0 -64 32 -64 53c0 24 18 42 42 42c30 0 38 -22 41 -33c5 -18 7 -28 22 -28c42 0 71 116 90 185l105 387c4 14 5 21 5 28c0 9 -2 16 -13 16
c-26 0 -73 -49 -96 -87zM164 611c0 27 23 50 50 50s50 -23 50 -50s-23 -50 -50 -50s-50 23 -50 50z" />
    <glyph glyph-name="Izhitsa" horiz-adv-x="700" 
d="M129 700h248l-7 -28h-41c-46 0 -42 -29 -39 -53l53 -498l251 466c30 56 69 127 150 127c25 0 63 -7 63 -50c0 -35 -22 -65 -56 -65c-28 0 -43 18 -43 33c0 6 0 11 1 17c1 4 1 8 0 12c-2 5 -5 7 -10 7c-26 0 -54 -49 -73 -84l-324 -598h-33l-75 633c-2 13 -5 53 -62 53
h-10z" />
    <glyph glyph-name="izhitsa" horiz-adv-x="540" 
d="M22 339l-20 12c35 55 96 122 157 122c54 0 58 -54 60 -71l41 -295l131 263c31 62 64 103 127 103c54 0 58 -33 58 -46c0 -21 -18 -34 -36 -34c-15 0 -26 6 -32 14c-5 8 -8 25 -25 25c-32 0 -54 -42 -70 -73l-185 -370h-30l-55 413c-3 23 -15 24 -23 24
c-38 0 -79 -57 -98 -87z" />
    <glyph glyph-name="afii10104" unicode="&#x457;" horiz-adv-x="277" 
d="M57 80l87 302c3 10 6 19 6 28c0 11 -4 16 -14 16c-31 0 -80 -61 -96 -87l-18 12c33 52 97 122 157 122c32 0 47 -22 47 -53c0 -13 -2 -25 -6 -38l-87 -302c-3 -10 -6 -19 -6 -28c0 -11 4 -16 14 -16c31 0 80 61 96 87l18 -12c-33 -52 -97 -122 -157 -122
c-32 0 -47 22 -47 53c0 13 2 25 6 38zM89 611c0 27 23 50 50 50s50 -23 50 -50s-23 -50 -50 -50s-50 23 -50 50zM229 611c0 27 23 50 50 50s50 -23 50 -50s-23 -50 -50 -50s-50 23 -50 50z" />
    <glyph glyph-name="afii10017" unicode="&#x410;" horiz-adv-x="677" 
d="M454 273h-227l-38 -62c-48 -79 -77 -108 -77 -137c0 -27 2 -46 18 -46h50l-7 -28h-203l7 28h9c26 0 72 31 205 245l273 441h27l69 -625c3 -28 8 -61 54 -61h12l-7 -28h-241l7 28h40c51 0 53 23 44 105zM244 301h208l-32 288z" />
    <glyph glyph-name="afii10018" unicode="&#x411;" horiz-adv-x="657" 
d="M291 0h-291l7 28h47c14 0 38 1 49 45l138 554c11 44 -12 45 -26 45h-57l7 28h482l-35 -142h-32l7 29c16 65 -137 85 -189 85h-15c-36 0 -46 -29 -50 -46l-55 -221c35 9 65 12 100 12c156 0 215 -89 215 -192c0 -113 -95 -225 -302 -225zM271 377l-81 -324
c-3 -13 6 -25 53 -25h43c115 0 206 88 206 214c0 107 -55 147 -137 147c-28 0 -56 -3 -84 -12z" />
    <glyph glyph-name="afii10019" unicode="&#x412;" horiz-adv-x="658" 
d="M0 0l7 28h47c14 0 38 1 49 45l139 555c3 11 11 44 -29 44h-55l7 28h278c177 0 185 -105 185 -148c0 -111 -100 -159 -183 -166l-1 -4c62 -6 151 -46 151 -166c0 -107 -88 -216 -276 -216h-319zM276 398h75c21 0 181 -3 181 166c0 39 -22 108 -125 108c-7 0 -62 0 -76 -54
zM268 368l-78 -316c22 -15 47 -24 87 -24c103 0 218 73 218 203c0 81 -50 137 -153 137h-74z" />
    <glyph glyph-name="afii10020" unicode="&#x413;" horiz-adv-x="520" 
d="M292 0h-292l7 28h47c38 0 45 30 47 38l142 572c8 30 -19 34 -28 34h-57l7 28h455l-35 -142h-32l7 29c13 55 -92 85 -162 85h-15c-19 0 -42 -9 -51 -46l-140 -565c-2 -7 -3 -33 30 -33h77z" />
    <glyph glyph-name="afii10021" unicode="&#x414;" horiz-adv-x="690" 
d="M247 700h503l-7 -28h-47c-14 0 -40 -3 -50 -45l-138 -554c-10 -42 13 -45 27 -45h77l-45 -182h-32l9 39c13 55 -89 115 -214 115h-146c-110 0 -197 -54 -213 -118l-9 -36h-32l45 182c90 13 138 86 246 308c17 35 114 240 114 300c0 36 -34 36 -51 36h-44zM153 28h214
c15 0 38 1 49 45l138 554c11 44 -12 45 -25 45h-80c-65 0 -61 -60 -158 -272c-137 -299 -177 -322 -177 -348c0 -25 25 -24 39 -24z" />
    <glyph glyph-name="afii10022" unicode="&#x415;" horiz-adv-x="587" 
d="M165 700h472l-35 -142h-32l7 29c16 65 -131 85 -179 85h-15c-36 0 -46 -29 -50 -46l-61 -244h45c133 0 145 39 150 57l7 25h32l-48 -192h-32l6 25c4 16 5 34 -24 45c-28 11 -76 12 -98 12h-45l-70 -281c-11 -46 19 -45 27 -45h14c57 0 243 38 263 104l7 23h32l-52 -155
h-486l7 28h47c16 0 39 3 49 45l138 554c11 44 -12 45 -26 45h-57z" />
    <glyph glyph-name="afii10024" unicode="&#x416;" horiz-adv-x="976" 
d="M466 700h272l-7 -28h-47c-14 0 -40 -3 -50 -45l-58 -234h33c51 0 84 13 179 162c54 83 103 159 182 159c47 0 56 -36 56 -50c0 -35 -22 -65 -56 -65c-28 0 -43 18 -43 33c0 6 0 11 1 17c1 4 1 8 0 12c-1 5 -5 7 -10 7c-21 0 -44 -47 -64 -88
c-66 -135 -129 -182 -184 -200l-2 -5c99 -16 143 -106 159 -258c3 -29 6 -88 38 -88c20 0 42 23 45 44h27c-16 -61 -64 -87 -104 -87c-91 0 -106 110 -122 188c-21 106 -27 191 -109 191h-33l-73 -292c-12 -46 19 -45 27 -45h57l-7 -28h-272l7 28h47c16 0 39 3 49 45l73 292
h-38c-80 0 -128 -102 -187 -190c-59 -89 -110 -189 -198 -189c-65 0 -74 42 -74 69c0 6 1 12 2 18h28c-2 -6 -3 -11 -3 -17c0 -16 10 -27 21 -27c20 0 40 36 70 88c111 195 214 246 294 261l2 5c-58 10 -98 59 -106 192c-2 29 1 93 -28 93c-13 0 -9 -14 -11 -27
c-3 -20 -19 -42 -55 -42c-28 0 -44 19 -44 48c0 48 41 67 80 67c84 0 96 -91 112 -165c26 -125 44 -156 109 -156h33l58 234c4 14 11 45 -26 45h-57z" />
    <glyph glyph-name="afii10025" unicode="&#x417;" horiz-adv-x="570" 
d="M183 527h-32l44 173h32l-8 -32c54 37 107 44 147 44c31 0 174 1 174 -136c0 -79 -40 -171 -154 -202l-1 -4c67 -8 112 -61 112 -135c0 -138 -135 -249 -306 -249c-113 0 -171 59 -171 129c0 52 24 86 66 86s50 -35 50 -57c0 -12 -6 -22 -12 -33c-5 -10 -13 -19 -13 -30
c0 -24 16 -67 82 -67c133 0 204 123 204 231c0 66 -37 112 -108 112c-36 0 -66 -10 -79 -15l12 49c23 -5 42 -6 68 -6c92 0 160 59 160 168c0 79 -28 131 -93 131c-71 0 -153 -64 -174 -157z" />
    <glyph glyph-name="afii10026" unicode="&#x418;" horiz-adv-x="774" 
d="M165 700h272l-7 -28h-47c-14 0 -40 -3 -50 -45l-120 -483l434 480l4 15c6 24 -15 33 -29 33h-57l7 28h272l-7 -28h-47c-14 0 -40 -3 -50 -45l-138 -554c-10 -42 13 -45 27 -45h57l-7 -28h-272l7 28h47c16 0 39 3 49 45l121 486l-435 -483l-4 -15c-2 -7 -3 -33 30 -33h57
l-7 -28h-272l7 28h47c16 0 39 3 49 45l138 554c11 44 -12 45 -26 45h-57z" />
    <glyph glyph-name="afii10027" unicode="&#x419;" horiz-adv-x="774" 
d="M165 700h272l-7 -28h-47c-14 0 -40 -3 -50 -45l-120 -483l434 480l4 15c6 24 -15 33 -29 33h-57l7 28h272l-7 -28h-47c-14 0 -40 -3 -50 -45l-138 -554c-10 -42 13 -45 27 -45h57l-7 -28h-272l7 28h47c16 0 39 3 49 45l121 486l-435 -483l-4 -15c-2 -7 -3 -33 30 -33h57
l-7 -28h-272l7 28h47c16 0 39 3 49 45l138 554c11 44 -12 45 -26 45h-57zM676 875l19 -16c-78 -105 -145 -119 -186 -119c-90 0 -126 42 -126 79c0 30 19 66 65 66c35 0 60 -20 60 -52c0 -20 -4 -24 -4 -35c0 -10 9 -25 34 -25c33 0 82 25 138 102z" />
    <glyph glyph-name="afii10028" unicode="&#x41a;" horiz-adv-x="685" 
d="M275 393h48c53 0 90 29 174 162c54 83 103 159 182 159c47 0 56 -36 56 -50c0 -35 -22 -65 -56 -65c-28 0 -43 18 -43 33c0 6 0 11 1 17c1 4 1 8 0 12c-1 5 -5 7 -10 7c-21 0 -44 -47 -64 -88c-66 -135 -129 -182 -184 -200l-2 -5c118 -17 148 -135 165 -258
c5 -39 8 -88 32 -88c15 0 41 18 45 44h27c-16 -61 -64 -87 -104 -87c-81 0 -95 83 -119 188c-24 106 -24 191 -107 191h-48l-73 -292c-10 -42 13 -45 27 -45h57l-7 -28h-272l7 28h47c14 0 38 1 49 45l138 554c11 44 -12 45 -26 45h-57l7 28h272l-7 -28h-47
c-14 0 -40 -3 -50 -45z" />
    <glyph glyph-name="afii10029" unicode="&#x41b;" horiz-adv-x="682" 
d="M262 700h490l-7 -28h-47c-14 0 -40 -3 -50 -45l-138 -554c-10 -42 13 -45 27 -45h57l-7 -28h-272l7 28h47c16 0 39 3 49 45l138 554c4 14 11 45 -26 45h-42c-93 0 -67 -1 -172 -287c-86 -231 -149 -399 -252 -399c-42 0 -84 28 -84 85c0 46 32 68 61 68
c30 0 44 -23 44 -50c0 -9 -2 -17 -8 -25c-5 -6 -12 -12 -12 -19s8 -16 25 -16c31 0 70 53 152 265c12 31 108 290 108 342c0 34 -31 36 -51 36h-44z" />
    <glyph glyph-name="afii10030" unicode="&#x41c;" horiz-adv-x="898" 
d="M794 700h174l-7 -28h-47c-39 0 -45 -24 -50 -45l-138 -554c-11 -44 12 -45 27 -45h57l-7 -28h-272l7 28h47c27 0 40 10 49 45l128 513l-373 -586h-26l-92 595l-74 -297c-15 -58 -36 -159 -36 -207c0 -17 4 -63 43 -63h19l-7 -28h-216l7 28h19c72 0 108 163 137 280
l79 314c12 48 -8 50 -25 50h-51l7 28h174l91 -562z" />
    <glyph glyph-name="afii10031" unicode="&#x41d;" horiz-adv-x="762" 
d="M271 379h303l62 248c11 44 -12 45 -26 45h-57l7 28h272l-7 -28h-47c-14 0 -40 -3 -50 -45l-138 -554c-10 -42 13 -45 27 -45h57l-7 -28h-272l7 28h47c16 0 39 3 49 45l69 278h-303l-69 -278c-10 -42 13 -45 27 -45h57l-7 -28h-272l7 28h47c16 0 39 3 49 45l138 554
c11 44 -12 45 -26 45h-57l7 28h272l-7 -28h-47c-14 0 -39 -3 -50 -45z" />
    <glyph glyph-name="afii10032" unicode="&#x41e;" horiz-adv-x="765" 
d="M356 -14c-94 0 -256 40 -256 267c0 141 68 302 189 392c65 49 126 69 201 69c181 0 255 -130 255 -266c0 -132 -60 -296 -189 -394c-63 -48 -128 -68 -200 -68zM358 14c154 0 287 213 287 433c0 64 2 239 -159 239c-166 0 -286 -244 -286 -437c0 -180 78 -235 158 -235z
" />
    <glyph glyph-name="afii10033" unicode="&#x41f;" horiz-adv-x="743" 
d="M165 700h648l-7 -28h-47c-14 0 -40 -3 -50 -45l-138 -554c-10 -42 13 -45 27 -45h57l-7 -28h-272l7 28h47c16 0 39 3 49 45l138 554c11 44 -12 45 -26 45h-208c-14 0 -40 -3 -50 -45l-138 -554c-10 -42 13 -45 27 -45h57l-7 -28h-272l7 28h47c16 0 39 3 49 45l138 554
c11 44 -12 45 -26 45h-57z" />
    <glyph glyph-name="afii10034" unicode="&#x420;" horiz-adv-x="600" 
d="M164 700h256c139 0 220 -81 220 -182c0 -121 -90 -224 -299 -224c-32 0 -58 3 -89 8l-57 -229c-11 -46 19 -45 27 -45h77l-7 -28h-292l7 28h47c16 0 39 3 49 45l138 554c4 14 11 45 -26 45h-58zM339 650l-79 -318c26 -8 46 -10 71 -10c125 0 209 77 209 206
c0 87 -41 144 -118 144c-25 0 -55 -6 -83 -22z" />
    <glyph glyph-name="afii10035" unicode="&#x421;" horiz-adv-x="676" 
d="M684 700h32l-47 -185h-32l6 26c11 47 -19 145 -128 145c-181 0 -315 -263 -315 -464c0 -117 61 -195 165 -195c99 0 180 80 245 179l26 -18c-71 -107 -158 -202 -300 -202c-157 0 -236 115 -236 251c0 175 134 477 429 477c87 0 127 -28 147 -43z" />
    <glyph glyph-name="afii10036" unicode="&#x422;" horiz-adv-x="573" 
d="M131 700h546l-39 -156h-32l5 26c18 92 -112 102 -139 102c-10 0 -31 1 -36 -19l-144 -580c-10 -42 13 -45 27 -45h57l-7 -28h-272l7 28h47c14 0 38 1 49 45l144 580c1 5 4 19 -36 19c-62 0 -161 -41 -177 -101l-7 -27h-32z" />
    <glyph glyph-name="afii10037" unicode="&#x423;" horiz-adv-x="646" 
d="M134 700h264l-7 -28h-52c-20 0 -30 -20 -26 -33l105 -375l163 276c22 37 45 80 45 106c0 27 -17 26 -28 26h-51l7 28h192l-7 -28c-38 4 -64 -29 -111 -109l-253 -436c-65 -112 -137 -141 -195 -141s-94 36 -94 85c0 46 31 68 61 68c29 0 44 -23 44 -50
c0 -9 -3 -18 -9 -25c-5 -6 -14 -11 -14 -19c0 -9 3 -26 38 -26c57 0 106 63 143 132l-138 470c-11 36 -30 51 -63 51h-21z" />
    <glyph glyph-name="afii10038" unicode="&#x424;" horiz-adv-x="925" 
d="M454 740h272l-7 -28h-47c-14 0 -39 -3 -50 -45l-6 -24h55c197 0 234 -127 234 -216c0 -141 -101 -330 -387 -330h-38l-6 -24c-12 -46 19 -45 27 -45h57l-7 -28h-272l7 28h47c16 0 39 3 49 45l6 24h-37c-70 0 -251 10 -251 218c0 189 154 328 369 328h55l6 24
c4 14 11 45 -26 45h-57zM395 125l122 490h-31c-181 0 -286 -152 -286 -300c0 -99 44 -190 156 -190h39zM609 615l-122 -490h40c148 0 278 132 278 305c0 117 -57 185 -164 185h-32z" />
    <glyph glyph-name="afii10039" unicode="&#x425;" horiz-adv-x="710" 
d="M140 700h281l-7 -28h-63c-18 0 -25 -9 -25 -20c0 -8 3 -16 9 -30l86 -210c158 176 183 216 183 240c0 20 -21 20 -31 20h-48l7 28h238l-7 -28c-65 1 -122 -46 -330 -289l103 -247c38 -90 55 -108 106 -108h8l-7 -28h-269l7 28h57c13 0 25 10 25 24c0 9 -2 15 -5 22
l-99 237c-118 -136 -208 -237 -208 -269c0 -5 6 -14 20 -14h54l-7 -28h-238l7 28c55 2 104 23 358 310l-101 249c-26 63 -50 86 -111 85z" />
    <glyph glyph-name="afii10040" unicode="&#x426;" horiz-adv-x="767" 
d="M165 700h262l-7 -28h-37c-14 0 -40 -3 -50 -45l-138 -554c-10 -42 13 -45 27 -45h218c12 0 38 1 49 45l138 554c11 44 -12 45 -26 45h-57l7 28h262l-7 -28h-37c-14 0 -40 -3 -50 -45l-134 -539c-5 -22 -13 -60 53 -60h61l-45 -182h-32l13 52c11 42 -71 102 -198 102h-437
l7 28h47c16 0 39 3 49 45l138 554c11 44 -12 45 -26 45h-57z" />
    <glyph glyph-name="afii10041" unicode="&#x427;" horiz-adv-x="690" 
d="M137 700h252l-7 -28h-37c-39 0 -46 -30 -50 -45l-50 -203c-2 -9 -3 -18 -3 -27c0 -69 55 -76 96 -76c51 0 113 14 158 34l68 272c4 14 11 45 -26 45h-37l7 28h252l-7 -28h-47c-14 0 -40 -3 -50 -45l-138 -554c-11 -46 19 -45 27 -45h57l-7 -28h-302l7 28h77
c16 0 39 3 49 45l63 254c-76 -36 -145 -42 -178 -42c-143 0 -163 64 -163 104c0 12 2 23 5 35l50 203c4 14 11 45 -26 45h-47z" />
    <glyph glyph-name="afii10042" unicode="&#x428;" horiz-adv-x="1063" 
d="M165 700h265l-7 -28h-40c-14 0 -40 -3 -50 -45l-138 -554c-10 -42 13 -45 27 -45h180c16 0 39 3 49 45l138 554c11 44 -12 45 -26 45h-50l7 28h258l-7 -28h-40c-14 0 -40 -3 -50 -45l-138 -554c-10 -42 13 -45 27 -45h180c16 0 39 3 49 45l138 554c11 44 -12 45 -26 45
h-50l7 28h265l-7 -28h-47c-14 0 -40 -3 -50 -45l-138 -554c-10 -42 13 -45 27 -45h57l-7 -28h-968l7 28h47c16 0 39 3 49 45l138 554c11 44 -12 45 -26 45h-57z" />
    <glyph glyph-name="afii10043" unicode="&#x429;" horiz-adv-x="1087" 
d="M165 700h265l-7 -28h-40c-14 0 -40 -3 -50 -45l-138 -554c-10 -42 13 -45 27 -45h180c16 0 39 3 49 45l138 554c11 44 -12 45 -26 45h-50l7 28h258l-7 -28h-40c-14 0 -40 -3 -50 -45l-138 -554c-10 -42 13 -45 27 -45h180c16 0 39 3 49 45l138 554c11 44 -12 45 -26 45
h-50l7 28h265l-7 -28h-47c-14 0 -40 -3 -50 -45l-134 -539c-5 -22 -13 -60 53 -60h61l-45 -182h-32l13 52c11 42 -71 102 -198 102h-747l7 28h47c16 0 39 3 49 45l138 554c11 44 -12 45 -26 45h-57z" />
    <glyph glyph-name="afii10044" unicode="&#x42a;" horiz-adv-x="773" 
d="M142 700h417l-7 -28h-57c-14 0 -40 -3 -50 -45l-53 -214c35 7 70 10 106 10c186 0 235 -91 235 -175c0 -80 -46 -248 -333 -248h-298l7 28h57c14 0 38 1 49 45l141 566c5 20 5 33 -50 33c-68 0 -153 -36 -176 -105l-6 -18h-32zM385 385l-83 -334c29 -14 58 -23 93 -23
c135 0 238 100 238 227c0 128 -108 138 -158 138c-34 0 -62 -3 -90 -8z" />
    <glyph glyph-name="afii10045" unicode="&#x42b;" horiz-adv-x="997" 
d="M175 700h282l-7 -28h-57c-14 0 -40 -3 -50 -45l-53 -214c35 7 70 10 106 10c186 0 235 -91 235 -175c0 -80 -46 -248 -333 -248h-298l7 28h57c16 0 39 3 49 45l138 554c11 44 -12 45 -26 45h-57zM283 385l-83 -334c29 -14 58 -23 93 -23c135 0 238 100 238 227
c0 128 -108 138 -158 138c-34 0 -62 -3 -90 -8zM785 700h282l-7 -28h-57c-14 0 -40 -3 -50 -45l-138 -554c-10 -42 13 -45 27 -45h57l-7 -28h-282l7 28h57c16 0 39 3 49 45l138 554c11 44 -12 45 -26 45h-57z" />
    <glyph glyph-name="afii10046" unicode="&#x42c;" horiz-adv-x="671" 
d="M175 700h282l-7 -28h-57c-14 0 -40 -3 -50 -45l-53 -214c35 7 70 10 106 10c186 0 235 -91 235 -175c0 -80 -46 -248 -333 -248h-298l7 28h57c16 0 39 3 49 45l138 554c11 44 -12 45 -26 45h-57zM283 385l-83 -334c29 -14 58 -23 93 -23c135 0 238 100 238 227
c0 128 -108 138 -158 138c-34 0 -62 -3 -90 -8z" />
    <glyph glyph-name="afii10047" unicode="&#x42d;" horiz-adv-x="658" 
d="M209 714h32l-10 -39c65 33 124 36 168 36c172 0 239 -124 239 -252c0 -197 -145 -473 -417 -473c-127 0 -191 60 -191 129c0 52 25 86 66 86c42 0 50 -35 50 -57c0 -12 -6 -22 -12 -33c-6 -10 -13 -19 -13 -30c0 -30 32 -67 102 -67c132 0 252 151 295 336h-112
c-63 0 -126 -3 -203 -16l16 65c84 -16 195 -21 249 -21h57c9 37 13 81 13 132c0 171 -111 173 -145 173c-94 0 -184 -81 -199 -157h-32z" />
    <glyph glyph-name="afii10048" unicode="&#x42e;" horiz-adv-x="1050" 
d="M271 379h129c50 193 204 335 375 335c181 0 255 -130 255 -266c0 -132 -60 -296 -189 -394c-63 -48 -128 -68 -200 -68c-95 0 -256 40 -256 267c0 33 2 65 9 98h-130l-69 -278c-10 -42 13 -45 27 -45h57l-7 -28h-272l7 28h47c16 0 39 3 49 45l138 554
c11 44 -12 45 -26 45h-57l7 28h272l-7 -28h-47c-14 0 -39 -3 -50 -45zM643 14c154 0 287 213 287 433c0 64 2 239 -159 239c-166 0 -286 -244 -286 -437c0 -180 78 -235 158 -235z" />
    <glyph glyph-name="afii10049" unicode="&#x42f;" horiz-adv-x="694" 
d="M599 0h-282l7 28h57c17 0 39 3 49 45l67 267c-121 -3 -180 -77 -210 -120c-70 -98 -141 -234 -241 -234c-38 0 -66 21 -66 57c0 13 1 25 6 37h27c-3 -8 -4 -20 -4 -28c0 -12 9 -21 29 -21c17 0 24 8 34 20c77 96 123 241 292 283l2 6c-122 -7 -196 57 -196 153
c0 214 276 207 320 207h274l-7 -28h-47c-13 0 -39 -2 -50 -45l-138 -554c-11 -46 19 -45 27 -45h57zM504 368l72 290c-36 11 -81 14 -123 14c-122 0 -187 -88 -187 -183c0 -127 120 -126 165 -126c24 0 49 1 73 5z" />
    <glyph glyph-name="afii10065" unicode="&#x430;" horiz-adv-x="532" 
d="M422 462h76l-110 -382c-3 -10 -6 -19 -6 -28c0 -11 4 -16 14 -16c31 0 80 61 96 87l18 -12c-33 -52 -97 -122 -157 -122c-32 0 -47 22 -47 53c0 13 2 25 6 38l20 67h-4c-41 -70 -97 -158 -184 -158c-52 0 -114 33 -114 129c0 159 147 355 307 355c43 0 63 -13 78 -36z
M364 258l37 131c-1 31 -19 62 -56 62c-98 0 -239 -230 -239 -365c0 -59 37 -68 53 -68c77 0 189 184 205 240z" />
    <glyph glyph-name="afii10066" unicode="&#x431;" horiz-adv-x="502" 
d="M95 345h9c10 15 87 128 207 128c98 0 151 -84 151 -186c0 -161 -134 -298 -271 -298c-83 0 -155 55 -155 178c0 193 140 429 281 510c100 58 194 34 217 103h22c-21 -90 -89 -119 -186 -158c-116 -47 -200 -89 -275 -277zM112 135c0 -103 53 -124 85 -124
c81 0 189 125 189 309c0 107 -43 131 -73 131c-93 0 -201 -146 -201 -316z" />
    <glyph glyph-name="afii10067" unicode="&#x432;" horiz-adv-x="446" 
d="M286 257v-4c64 -4 102 -49 102 -106c0 -83 -88 -158 -222 -158c-100 0 -130 90 -130 167c0 134 101 317 273 317c85 0 117 -42 117 -89s-39 -108 -140 -127zM133 248l54 9c131 22 169 97 169 141c0 36 -28 53 -66 53c-79 0 -129 -118 -157 -203zM223 242l-97 -16
c-11 -35 -22 -85 -22 -120c0 -78 43 -95 72 -95c67 0 138 70 138 154c0 67 -42 79 -65 79c-9 0 -17 -1 -26 -2z" />
    <glyph glyph-name="afii10068" unicode="&#x433;" horiz-adv-x="362" 
d="M304 114l20 -16c-20 -33 -74 -109 -174 -109c-74 0 -120 39 -120 90c0 79 80 146 142 203c77 70 99 100 99 132c0 35 -30 37 -39 37c-41 0 -105 -28 -143 -82l-19 16c43 58 113 88 179 88c73 0 93 -47 93 -76c0 -68 -86 -137 -134 -183c-60 -58 -107 -100 -107 -149
c0 -34 24 -54 54 -54c53 0 116 48 149 103z" />
    <glyph glyph-name="afii10069" unicode="&#x434;" horiz-adv-x="506" 
d="M167 702l-23 31c58 39 121 37 137 37c190 0 205 -257 205 -338c0 -236 -129 -443 -305 -443c-94 0 -145 77 -145 170c0 169 132 314 269 314c66 0 94 -39 109 -67c7 38 9 76 9 114c0 40 -7 228 -138 228c-23 0 -72 2 -118 -46zM191 11c110 0 199 186 199 309
c0 131 -75 131 -86 131c-110 0 -192 -191 -192 -328c0 -75 33 -112 79 -112z" />
    <glyph glyph-name="afii10070" unicode="&#x435;" horiz-adv-x="448" 
d="M372 156l22 -12c-26 -47 -97 -155 -221 -155c-84 0 -143 62 -143 165c0 155 156 319 295 319c72 0 103 -46 103 -93c0 -73 -90 -161 -306 -175c-10 -28 -16 -62 -16 -91c0 -56 30 -96 86 -96c82 0 149 85 180 138zM131 231c163 8 233 113 233 168c0 30 -17 52 -45 52
c-60 0 -142 -90 -188 -220z" />
    <glyph glyph-name="afii10072" unicode="&#x436;" horiz-adv-x="834" 
d="M445 462h76l-59 -208h66c38 119 124 219 227 219c53 0 79 -31 79 -68c0 -28 -14 -43 -33 -43c-20 0 -33 14 -33 37c0 7 2 15 2 22c0 14 -5 30 -27 30c-87 0 -158 -217 -158 -359c0 -70 38 -74 54 -74c56 0 96 58 122 111l22 -10c-26 -58 -77 -130 -159 -130
c-64 0 -115 39 -115 136c0 14 0 55 13 107h-66l-66 -232h-76l66 232h-68c-32 -126 -120 -243 -233 -243c-53 0 -79 31 -79 68c0 33 20 43 33 43c15 0 33 -10 33 -37c0 -7 -2 -15 -2 -22c0 -14 5 -30 27 -30c89 0 158 217 158 359c0 69 -32 74 -54 74
c-51 0 -90 -51 -122 -111l-22 10c28 57 80 130 164 130c73 0 110 -53 110 -136c0 -29 -3 -57 -8 -83h69z" />
    <glyph glyph-name="afii10073" unicode="&#x437;" horiz-adv-x="414" 
d="M143 230l9 35c16 -4 40 -9 65 -9c85 0 107 68 107 103c0 53 -29 92 -83 92c-70 0 -112 -62 -129 -98l-42 20c60 98 159 100 181 100c141 0 143 -108 143 -115c0 -54 -40 -114 -120 -115v-4c52 -9 91 -48 91 -103c0 -77 -80 -147 -209 -147c-115 0 -156 58 -156 99
c0 25 17 45 44 45c31 0 41 -25 41 -44c0 -5 -1 -10 -3 -15s-4 -11 -4 -16c0 -21 23 -46 72 -46c87 0 139 77 139 143c0 75 -70 79 -97 79c-18 0 -33 -1 -49 -4z" />
    <glyph glyph-name="afii10074" unicode="&#x438;" horiz-adv-x="534" 
d="M424 462h76l-110 -382c-3 -10 -6 -19 -6 -28c0 -11 4 -16 14 -16c31 0 80 61 96 87l18 -12c-33 -52 -97 -122 -157 -122c-32 0 -47 22 -47 53c0 13 2 25 6 38l33 114h-4c-101 -172 -163 -205 -215 -205c-46 0 -83 21 -83 65c0 21 12 60 15 68l84 260c5 15 6 23 6 28
c0 11 -4 16 -14 16c-31 0 -80 -61 -96 -87l-18 12c33 52 97 122 157 122c33 0 47 -22 47 -53c0 -13 -2 -25 -6 -38l-88 -274c-13 -41 -11 -56 -11 -60c0 -21 19 -22 27 -22c63 0 213 217 234 290z" />
    <glyph glyph-name="afii10075" unicode="&#x439;" horiz-adv-x="534" 
d="M424 462h76l-110 -382c-3 -10 -6 -19 -6 -28c0 -11 4 -16 14 -16c31 0 80 61 96 87l18 -12c-33 -52 -97 -122 -157 -122c-32 0 -47 22 -47 53c0 13 2 25 6 38l33 114h-4c-101 -172 -163 -205 -215 -205c-46 0 -83 21 -83 65c0 21 12 60 15 68l84 260c5 15 6 23 6 28
c0 11 -4 16 -14 16c-31 0 -80 -61 -96 -87l-18 12c33 52 97 122 157 122c33 0 47 -22 47 -53c0 -13 -2 -25 -6 -38l-88 -274c-13 -41 -11 -56 -11 -60c0 -21 19 -22 27 -22c63 0 213 217 234 290zM496 700l16 -12c-43 -58 -108 -120 -183 -120c-68 0 -104 41 -104 71
c0 25 14 54 48 54c28 0 40 -19 40 -37c0 -33 -4 -20 -4 -35c0 -14 13 -25 36 -25c57 0 111 57 151 104z" />
    <glyph glyph-name="afii10076" unicode="&#x43a;" horiz-adv-x="492" 
d="M111 0h-76l109 382c3 10 6 19 6 28c0 11 -4 16 -14 16c-31 0 -80 -61 -96 -87l-18 12c33 52 97 122 157 122c32 0 47 -22 47 -53c0 -13 -2 -25 -6 -38l-36 -126h21c62 0 91 55 124 115c47 83 66 102 110 102c30 0 53 -14 53 -46c0 -24 -13 -40 -36 -40
c-29 0 -36 23 -37 26c-3 11 2 24 -11 24c-16 0 -31 -41 -39 -58c-30 -66 -64 -119 -128 -133v-4c73 -12 94 -78 102 -115c9 -38 11 -85 33 -85c19 0 53 49 70 81l20 -12c-31 -61 -81 -122 -125 -122c-54 0 -61 64 -78 135c-22 93 -40 110 -71 110h-14z" />
    <glyph glyph-name="afii10077" unicode="&#x43b;" horiz-adv-x="470" 
d="M140 462h296l-110 -382c-3 -10 -6 -19 -6 -28c0 -11 4 -16 14 -16c31 0 80 61 96 87l18 -12c-33 -52 -97 -122 -157 -122c-32 0 -47 22 -47 53c0 13 2 25 6 38l99 345c2 8 -3 15 -17 15h-42c-49 0 -38 -12 -98 -188c-61 -178 -99 -263 -164 -263c-36 0 -60 19 -60 48
c0 24 17 42 40 42c12 0 25 -7 32 -19c4 -7 7 -19 19 -19c25 0 54 65 95 180c53 146 53 181 53 190c0 30 -31 29 -41 29h-33z" />
    <glyph glyph-name="afii10078" unicode="&#x43c;" horiz-adv-x="650" 
d="M140 462h167l20 -334l213 334h76l-110 -382c-3 -10 -6 -19 -6 -28c0 -11 4 -16 14 -16c31 0 80 61 96 87l18 -12c-33 -52 -97 -122 -157 -122c-32 0 -47 22 -47 53c0 13 2 25 6 38l84 290h-4l-236 -370h-18l-19 386h-4c-15 -61 -60 -191 -84 -249
c-28 -69 -60 -148 -121 -148c-36 0 -60 19 -60 48c0 24 17 42 40 42c12 0 25 -7 32 -19c4 -7 7 -19 19 -19c22 0 47 45 95 180c56 157 56 184 56 190c0 30 -32 29 -41 29h-36z" />
    <glyph glyph-name="afii10079" unicode="&#x43d;" horiz-adv-x="524" 
d="M348 232h-170l-67 -232h-76l110 382c2 6 5 22 5 28c0 11 -4 16 -14 16c-31 0 -80 -61 -96 -87l-18 12c33 52 97 122 157 122c43 0 47 -37 47 -53c0 -13 -1 -25 -5 -38l-37 -128h170l60 208h76l-110 -382c-3 -10 -6 -19 -6 -28c0 -11 4 -16 14 -16c31 0 80 61 96 87
l18 -12c-33 -52 -97 -122 -157 -122c-32 0 -47 22 -47 53c0 13 2 25 6 38z" />
    <glyph glyph-name="afii10080" unicode="&#x43e;" horiz-adv-x="488" 
d="M291 473c116 0 161 -96 161 -202c0 -153 -103 -282 -253 -282c-115 0 -163 95 -163 192c0 155 107 292 255 292zM193 11c78 0 179 125 179 320c0 95 -40 120 -74 120c-94 0 -182 -151 -182 -320c0 -108 56 -120 77 -120z" />
    <glyph glyph-name="afii10081" unicode="&#x43f;" horiz-adv-x="534" 
d="M110 0h-76l110 382c3 10 6 19 6 28c0 11 -4 16 -14 16c-31 0 -80 -61 -96 -87l-18 12c33 52 97 122 157 122c32 0 47 -22 47 -53c0 -13 -2 -25 -6 -38l-33 -114h4c101 172 163 205 215 205c46 0 83 -21 83 -65c0 -21 -12 -60 -15 -68l-84 -260c-5 -15 -6 -23 -6 -28
c0 -11 4 -16 14 -16c31 0 80 61 96 87l18 -12c-33 -52 -97 -122 -157 -122c-33 0 -47 22 -47 53c0 13 2 25 6 38l88 274c13 41 11 56 11 60c0 21 -19 22 -27 22c-63 0 -213 -217 -234 -290z" />
    <glyph glyph-name="afii10082" unicode="&#x440;" horiz-adv-x="527" 
d="M135 -214h-216l5 22h29c25 0 36 5 41 24l150 550c4 14 5 21 5 28c0 9 -2 16 -13 16c-26 0 -73 -49 -96 -87l-18 12c43 66 107 122 157 122c45 0 46 -44 46 -53c0 -13 -1 -25 -5 -38l-14 -47h4c41 70 92 138 168 138c57 0 119 -38 119 -149c0 -129 -101 -335 -277 -335
c-50 0 -79 12 -100 29l-50 -186c-5 -20 8 -24 31 -24h39zM171 204l-37 -136c14 -39 47 -57 87 -57c111 0 196 213 196 335c0 82 -35 98 -54 98c-71 0 -168 -151 -192 -240z" />
    <glyph glyph-name="afii10083" unicode="&#x441;" horiz-adv-x="426" 
d="M363 159l22 -12c-28 -63 -92 -158 -204 -158c-101 0 -145 81 -145 176c0 166 128 308 269 308c65 0 111 -30 111 -71c0 -25 -17 -40 -40 -40c-36 0 -42 29 -44 43c-3 19 -7 46 -47 46c-89 0 -169 -168 -169 -304c0 -64 17 -129 88 -129c69 0 122 67 159 141z" />
    <glyph glyph-name="afii10084" unicode="&#x442;" horiz-adv-x="746" 
d="M110 0h-76l110 382c3 10 6 19 6 28c0 11 -4 16 -14 16c-31 0 -80 -61 -96 -87l-18 12c33 52 97 122 157 122c38 0 47 -30 47 -53c0 -13 -2 -25 -6 -38l-13 -46h4c69 118 132 137 162 137c46 0 85 -18 85 -64c0 -17 -1 -33 -6 -50l-6 -23h4c69 118 132 137 164 137
c46 0 85 -16 85 -61c0 -14 -1 -36 -13 -72l-84 -260c-5 -15 -6 -23 -6 -28c0 -11 4 -16 14 -16c31 0 80 61 96 87l18 -12c-33 -52 -97 -122 -157 -122c-33 0 -47 22 -47 53c0 13 2 25 6 38l88 274c5 16 9 42 9 58c0 8 -5 24 -26 24c-63 0 -170 -167 -185 -219l-63 -217h-76
l102 354c4 15 7 46 7 58c0 22 -18 24 -26 24c-54 0 -160 -140 -183 -219z" />
    <glyph glyph-name="afii10085" unicode="&#x443;" horiz-adv-x="514" 
d="M424 462h76l-97 -336c-96 -332 -269 -350 -322 -350c-67 0 -108 25 -108 64c0 25 17 46 41 46c39 0 40 -41 41 -53c2 -15 6 -35 40 -35c74 0 172 71 252 396h-4c-101 -172 -163 -205 -215 -205c-46 0 -83 21 -83 65c0 21 12 60 15 68l84 260c5 15 6 23 6 28
c0 11 -4 16 -14 16c-31 0 -80 -61 -96 -87l-18 12c33 52 97 122 157 122c33 0 47 -22 47 -53c0 -13 -2 -25 -6 -38l-88 -274c-13 -41 -11 -56 -11 -60c0 -21 19 -22 27 -22c63 0 213 217 234 290z" />
    <glyph glyph-name="afii10086" unicode="&#x444;" horiz-adv-x="733" 
d="M360 -214h-226l5 22h39c25 0 36 5 41 24l54 197c-17 -14 -51 -40 -95 -40c-70 0 -142 50 -142 160c0 181 149 324 273 324c48 0 67 -27 75 -40l45 163c13 46 -15 47 -37 47h-31l6 22c55 5 126 29 172 55l-79 -287c28 24 64 40 95 40c69 0 142 -50 142 -160
c0 -181 -149 -324 -273 -324c-48 0 -67 27 -75 40l-54 -197c-6 -20 8 -24 31 -24h39zM286 80l82 295c2 39 -20 76 -59 76c-99 0 -193 -177 -193 -340c0 -80 37 -100 66 -100c40 0 82 32 104 69zM447 382l-82 -295c-2 -39 20 -76 59 -76c99 0 193 176 193 340
c0 80 -37 100 -66 100c-40 0 -82 -32 -104 -69z" />
    <glyph glyph-name="afii10087" unicode="&#x445;" horiz-adv-x="500" 
d="M221 207l-29 195c-3 21 -12 24 -23 24c-37 0 -82 -62 -98 -87l-20 12c35 55 96 122 157 122c54 0 57 -54 60 -71l17 -115l69 99c33 48 63 87 118 87c45 0 58 -26 58 -46c0 -21 -18 -34 -36 -34c-12 0 -28 4 -36 19c-5 10 -7 20 -21 20c-25 0 -57 -48 -70 -67l-77 -111
l29 -194c3 -21 12 -24 23 -24c37 0 82 62 98 87l20 -12c-35 -54 -96 -122 -157 -122c-46 0 -56 41 -60 71l-17 114l-68 -98c-37 -54 -72 -87 -123 -87c-46 0 -65 27 -65 53c0 25 20 39 40 39c25 0 34 -19 37 -27c5 -12 7 -28 23 -28c20 0 50 35 75 71z" />
    <glyph glyph-name="afii10088" unicode="&#x446;" horiz-adv-x="534" 
d="M424 462h76l-110 -382c-3 -10 -6 -19 -6 -28c0 -11 4 -16 14 -16c31 0 80 61 96 87l18 -12c-36 -63 -17 -150 -32 -223c-13 -64 -52 -96 -108 -112l-10 23c47 15 60 71 113 258l-4 2c-25 -31 -72 -70 -116 -70c-32 0 -47 22 -47 53c0 13 2 25 6 38l33 114h-4
c-101 -172 -163 -205 -215 -205c-46 0 -83 21 -83 65c0 21 12 60 15 68l84 260c5 15 6 23 6 28c0 11 -4 16 -14 16c-31 0 -80 -61 -96 -87l-18 12c33 52 97 122 157 122c33 0 47 -22 47 -53c0 -13 -2 -25 -6 -38l-88 -274c-13 -41 -11 -56 -11 -60c0 -21 19 -22 27 -22
c63 0 213 217 234 290z" />
    <glyph glyph-name="afii10089" unicode="&#x447;" horiz-adv-x="485" 
d="M375 462h76l-110 -382c-3 -10 -6 -19 -6 -28c0 -11 4 -16 14 -16c31 0 80 61 96 87l18 -12c-33 -52 -97 -122 -157 -122c-32 0 -47 22 -47 53c0 13 2 25 6 38l43 150h-4c-28 -48 -83 -95 -141 -95c-42 0 -90 17 -90 69c0 18 1 35 7 54l42 124c2 6 6 19 6 28
c0 11 -4 16 -14 16c-31 0 -80 -61 -96 -87l-18 12c33 52 97 122 157 122c33 0 47 -22 47 -53c0 -13 -2 -25 -6 -38l-38 -118c-7 -22 -11 -40 -11 -61c0 -17 5 -35 29 -35c49 0 136 78 166 185z" />
    <glyph glyph-name="afii10090" unicode="&#x448;" horiz-adv-x="746" 
d="M636 462h76l-110 -382c-3 -10 -6 -19 -6 -28c0 -11 4 -16 14 -16c31 0 80 61 96 87l18 -12c-33 -52 -97 -122 -157 -122c-38 0 -47 30 -47 53c0 13 2 25 6 38l13 46h-4c-69 -118 -132 -137 -162 -137c-46 0 -85 18 -85 64c0 17 1 33 6 50l6 23h-4
c-69 -118 -132 -137 -164 -137c-46 0 -85 16 -85 61c0 14 1 36 13 72l84 260c5 15 6 23 6 28c0 11 -4 16 -14 16c-31 0 -80 -61 -96 -87l-18 12c33 52 97 122 157 122c33 0 47 -22 47 -53c0 -13 -2 -25 -6 -38l-88 -274c-5 -16 -9 -42 -9 -58c0 -8 5 -24 26 -24
c63 0 170 167 185 219l63 217h76l-102 -354c-4 -15 -7 -46 -7 -58c0 -22 18 -24 26 -24c54 0 160 140 183 219z" />
    <glyph glyph-name="afii10091" unicode="&#x449;" horiz-adv-x="746" 
d="M636 462h76l-110 -382c-3 -10 -6 -19 -6 -28c0 -11 4 -16 14 -16c31 0 80 61 96 87l18 -12c-36 -63 -17 -150 -32 -223c-13 -64 -52 -96 -108 -112l-10 23c47 15 60 71 113 258l-4 2c-26 -31 -72 -70 -116 -70c-38 0 -47 30 -47 53c0 13 2 25 6 38l13 46h-4
c-69 -118 -132 -137 -162 -137c-46 0 -85 18 -85 64c0 17 1 33 6 50l6 23h-4c-69 -118 -132 -137 -164 -137c-46 0 -85 16 -85 61c0 14 1 36 13 72l84 260c5 15 6 23 6 28c0 11 -4 16 -14 16c-31 0 -80 -61 -96 -87l-18 12c33 52 97 122 157 122c33 0 47 -22 47 -53
c0 -13 -2 -25 -6 -38l-88 -274c-5 -16 -9 -42 -9 -58c0 -8 5 -24 26 -24c63 0 170 167 185 219l63 217h76l-102 -354c-4 -15 -7 -46 -7 -58c0 -22 18 -24 26 -24c54 0 160 140 183 219z" />
    <glyph glyph-name="afii10092" unicode="&#x44a;" horiz-adv-x="454" 
d="M159 238h4c32 49 85 85 141 85c64 0 120 -42 120 -118c0 -90 -84 -216 -221 -216c-95 0 -151 58 -151 152c0 141 146 251 207 291l-2 4c-28 -19 -62 -30 -89 -30c-11 0 -22 1 -33 2c-16 2 -31 4 -47 4c-22 0 -34 -10 -48 -33l-18 10c23 43 54 82 108 82c14 0 28 -3 41 -6
c23 -5 45 -11 71 -11c16 0 41 4 58 19l13 -14c-107 -116 -136 -173 -154 -221zM121 91c0 -55 33 -80 68 -80c79 0 155 109 155 204c0 65 -35 79 -55 79c-64 0 -168 -103 -168 -203z" />
    <glyph glyph-name="afii10093" unicode="&#x44b;" horiz-adv-x="690" 
d="M40 339l-18 12c33 51 97 122 157 122c47 0 48 -45 48 -53c0 -13 -2 -25 -7 -38l-51 -144h4c31 50 86 85 141 85c64 0 120 -42 120 -118c0 -117 -111 -216 -221 -216c-100 0 -145 66 -145 132c0 24 4 47 12 72l64 189c3 10 7 16 7 28c0 11 -3 16 -15 16
c-32 0 -79 -60 -96 -87zM131 91c0 -55 33 -80 68 -80c79 0 155 109 155 204c0 65 -35 79 -55 79c-64 0 -168 -103 -168 -203zM580 462h76l-110 -382c-3 -10 -6 -19 -6 -28c0 -11 4 -16 14 -16c31 0 80 61 96 87l18 -12c-33 -52 -97 -122 -157 -122c-32 0 -47 22 -47 53
c0 13 2 25 6 38z" />
    <glyph glyph-name="afii10094" unicode="&#x44c;" horiz-adv-x="464" 
d="M40 339l-18 12c33 51 97 122 157 122c47 0 48 -45 48 -53c0 -13 -2 -25 -7 -38l-51 -144h4c31 50 86 85 141 85c64 0 120 -42 120 -118c0 -117 -111 -216 -221 -216c-100 0 -145 66 -145 132c0 24 4 47 12 72l64 189c3 10 7 16 7 28c0 11 -3 16 -15 16
c-32 0 -79 -60 -96 -87zM131 91c0 -55 33 -80 68 -80c79 0 155 109 155 204c0 65 -35 79 -55 79c-64 0 -168 -103 -168 -203z" />
    <glyph glyph-name="afii10095" unicode="&#x44d;" horiz-adv-x="434" 
d="M79 216v22c19 18 51 40 94 40c20 0 39 -6 59 -12c18 -6 36 -11 54 -11c12 0 23 5 34 11c2 15 2 30 2 45c0 117 -60 140 -101 140c-70 0 -113 -71 -129 -110l-42 20c26 47 80 112 181 112c103 0 167 -78 167 -195c0 -162 -111 -289 -253 -289c-103 0 -145 51 -145 96
c0 28 21 45 45 45c27 0 42 -22 42 -47c0 -28 -6 -23 -6 -36c0 -15 13 -36 58 -36c93 0 156 94 178 233c-20 -16 -53 -36 -90 -36c-19 0 -38 6 -57 13c-16 6 -32 13 -47 13s-30 -7 -44 -18z" />
    <glyph glyph-name="afii10096" unicode="&#x44e;" horiz-adv-x="722" 
d="M187 264h93c29 112 118 209 245 209c116 0 161 -96 161 -202c0 -153 -103 -282 -253 -282c-115 0 -163 95 -163 192c0 20 2 41 6 61h-96l-69 -242h-76l109 382c3 10 6 19 6 28c0 11 -4 16 -14 16c-31 0 -80 -61 -96 -87l-18 12c33 52 97 122 157 122c32 0 47 -22 47 -53
c0 -13 -2 -25 -6 -38zM427 11c78 0 179 125 179 320c0 95 -40 120 -74 120c-94 0 -182 -151 -182 -320c0 -108 56 -120 77 -120z" />
    <glyph glyph-name="afii10097" unicode="&#x44f;" horiz-adv-x="541" 
d="M338 462h169l-110 -382c-3 -10 -6 -19 -6 -28c0 -11 4 -16 14 -16c31 0 80 61 96 87l18 -12c-33 -52 -97 -122 -157 -122c-32 0 -47 22 -47 53c0 13 2 25 6 38l41 142c-30 1 -75 -7 -131 -83c-50 -66 -88 -150 -147 -150c-36 0 -86 38 -84 140h24c2 -81 34 -83 41 -83
c15 0 24 14 31 26c40 67 81 134 180 147v4c-95 -5 -150 46 -150 113c0 42 30 126 212 126zM369 244l56 196h-59c-144 0 -160 -82 -160 -119c0 -70 71 -77 117 -77h46z" />
    <glyph glyph-name="Euro" unicode="&#x20ac;" 
d="M575 575h-19c11 68 -30 100 -99 100c-115 0 -185 -97 -242 -255h265l-24 -36h-253c-4 -9 -8 -22 -10 -32c-3 -10 -8 -26 -10 -34h228l-25 -36h-212c-37 -165 -5 -257 98 -257c59 0 124 27 156 102h19l-28 -79c-35 -34 -87 -61 -175 -61c-147 0 -193 101 -152 295h-66
l24 36h49c1 9 6 26 9 35c2 8 7 22 10 31h-63l25 36h51c71 188 162 294 322 294c94 0 127 -31 140 -58z" />
  </font>
</defs>
</svg>
